<svg width="408" height="49" viewBox="0 0 408 49" fill="none" xmlns="http://www.w3.org/2000/svg">
<g filter="url(#filter0_d_565_383)">
<g clip-path="url(#clip0_565_383)">
<rect width="404" height="45" transform="translate(2 1)" fill="white"/>
<mask id="path-3-inside-1_565_383" fill="white">
<path d="M2 1H406V46H2V1Z"/>
</mask>
<path d="M2 1H406V46H2V1Z" fill="#FAFAFB"/>
<path d="M406 45H2V47H406V45Z" fill="#E4E4E7" mask="url(#path-3-inside-1_565_383)"/>
<path d="M21.892 18.06H23.754L27.338 28H25.77L24.86 25.382H20.786L19.876 28H18.308L21.892 18.06ZM24.384 24.024L22.83 19.46L21.262 24.024H24.384ZM33.1052 28L33.0912 26.082L33.2592 26.222C33.1379 26.8847 32.8626 27.3747 32.4332 27.692C32.0039 28.0093 31.4906 28.168 30.8932 28.168C30.0999 28.168 29.4886 27.9067 29.0592 27.384C28.6299 26.8613 28.4152 26.1847 28.4152 25.354V20.58H29.8712V24.906C29.8712 25.3633 29.9179 25.7413 30.0112 26.04C30.1139 26.3293 30.2632 26.5533 30.4592 26.712C30.6646 26.8613 30.9352 26.936 31.2712 26.936C31.8032 26.936 32.2279 26.7633 32.5452 26.418C32.8626 26.0633 33.0212 25.5593 33.0212 24.906V20.58H34.4772V28H33.1052ZM38.5523 18.9V25.886C38.5523 26.1847 38.6223 26.4133 38.7623 26.572C38.9117 26.7213 39.131 26.796 39.4203 26.796H40.5123V28H39.2943C38.5757 28 38.0297 27.818 37.6563 27.454C37.283 27.09 37.0963 26.5673 37.0963 25.886V18.9H38.5523ZM40.5263 20.58V21.784H35.9763V20.58H40.5263ZM44.7474 28.168C44.0381 28.168 43.4174 28.0093 42.8854 27.692C42.3628 27.3747 41.9568 26.9267 41.6674 26.348C41.3781 25.76 41.2334 25.074 41.2334 24.29C41.2334 23.506 41.3781 22.8247 41.6674 22.246C41.9568 21.658 42.3628 21.2053 42.8854 20.888C43.4174 20.5707 44.0381 20.412 44.7474 20.412C45.4474 20.412 46.0634 20.5707 46.5954 20.888C47.1274 21.2053 47.5381 21.658 47.8274 22.246C48.1168 22.8247 48.2614 23.506 48.2614 24.29C48.2614 25.074 48.1168 25.76 47.8274 26.348C47.5381 26.9267 47.1274 27.3747 46.5954 27.692C46.0634 28.0093 45.4474 28.168 44.7474 28.168ZM44.7474 26.894C45.3821 26.894 45.8721 26.6653 46.2174 26.208C46.5721 25.7507 46.7494 25.1113 46.7494 24.29C46.7494 23.4687 46.5721 22.8293 46.2174 22.372C45.8721 21.9147 45.3821 21.686 44.7474 21.686C44.1034 21.686 43.6088 21.9147 43.2634 22.372C42.9181 22.8293 42.7454 23.4687 42.7454 24.29C42.7454 25.1113 42.9181 25.7507 43.2634 26.208C43.6088 26.6653 44.1034 26.894 44.7474 26.894ZM58.0466 18.06H59.5026V28H58.1446L58.1026 26.964C57.8972 27.3467 57.5986 27.6453 57.2066 27.86C56.8146 28.0653 56.3432 28.168 55.7926 28.168C55.1112 28.168 54.5326 27.9953 54.0566 27.65C53.5899 27.2953 53.2399 26.824 53.0066 26.236C52.7732 25.648 52.6566 24.9993 52.6566 24.29C52.6566 23.5807 52.7732 22.932 53.0066 22.344C53.2399 21.756 53.5899 21.2893 54.0566 20.944C54.5326 20.5893 55.1112 20.412 55.7926 20.412C56.3246 20.412 56.7772 20.51 57.1506 20.706C57.5239 20.902 57.8226 21.182 58.0466 21.546V18.06ZM57.9486 25.578C58.0886 25.186 58.1586 24.7567 58.1586 24.29C58.1586 23.8047 58.0886 23.366 57.9486 22.974C57.8086 22.5727 57.5892 22.2507 57.2906 22.008C56.9919 21.7653 56.6139 21.644 56.1566 21.644C55.4939 21.644 54.9946 21.896 54.6586 22.4C54.3319 22.904 54.1686 23.534 54.1686 24.29C54.1686 25.018 54.3319 25.634 54.6586 26.138C54.9946 26.642 55.4939 26.894 56.1566 26.894C56.6139 26.894 56.9919 26.7727 57.2906 26.53C57.5892 26.2873 57.8086 25.97 57.9486 25.578ZM64.6165 28.168C63.9072 28.168 63.2865 28.0093 62.7545 27.692C62.2318 27.3747 61.8258 26.9267 61.5365 26.348C61.2472 25.76 61.1025 25.074 61.1025 24.29C61.1025 23.506 61.2472 22.8247 61.5365 22.246C61.8258 21.658 62.2318 21.2053 62.7545 20.888C63.2865 20.5707 63.9072 20.412 64.6165 20.412C65.3165 20.412 65.9325 20.5707 66.4645 20.888C66.9965 21.2053 67.4072 21.658 67.6965 22.246C67.9858 22.8247 68.1305 23.506 68.1305 24.29C68.1305 25.074 67.9858 25.76 67.6965 26.348C67.4072 26.9267 66.9965 27.3747 66.4645 27.692C65.9325 28.0093 65.3165 28.168 64.6165 28.168ZM64.6165 26.894C65.2512 26.894 65.7412 26.6653 66.0865 26.208C66.4412 25.7507 66.6185 25.1113 66.6185 24.29C66.6185 23.4687 66.4412 22.8293 66.0865 22.372C65.7412 21.9147 65.2512 21.686 64.6165 21.686C63.9725 21.686 63.4778 21.9147 63.1325 22.372C62.7872 22.8293 62.6145 23.4687 62.6145 24.29C62.6145 25.1113 62.7872 25.7507 63.1325 26.208C63.4778 26.6653 63.9725 26.894 64.6165 26.894ZM76.4105 26.362L78.0485 20.58H79.5465L77.2645 28H75.6125L74.0445 22.666L72.4765 28H70.8245L68.5565 20.58H70.0405L71.6925 26.362L73.3445 20.58H74.7445L76.4105 26.362ZM82.1383 20.58L82.2083 22.554L82.0263 22.4C82.1476 21.728 82.4229 21.2287 82.8523 20.902C83.2909 20.5753 83.8229 20.412 84.4483 20.412C85.2509 20.412 85.8669 20.6733 86.2963 21.196C86.7349 21.7093 86.9543 22.386 86.9543 23.226V28H85.4983V23.66C85.4983 23.212 85.4516 22.8433 85.3583 22.554C85.2649 22.2553 85.1109 22.0313 84.8963 21.882C84.6909 21.7233 84.4156 21.644 84.0703 21.644C83.5103 21.644 83.0716 21.8167 82.7543 22.162C82.4369 22.5073 82.2783 23.0067 82.2783 23.66V28H80.8223V20.58H82.1383ZM90.3157 18.06V26.306C90.3157 26.4647 90.353 26.586 90.4277 26.67C90.5117 26.754 90.633 26.796 90.7917 26.796H91.4077V28H90.4837C89.9984 28 89.6064 27.8507 89.3077 27.552C89.009 27.2533 88.8597 26.8613 88.8597 26.376V18.06H90.3157ZM95.8163 28.168C95.1069 28.168 94.4863 28.0093 93.9543 27.692C93.4316 27.3747 93.0256 26.9267 92.7363 26.348C92.4469 25.76 92.3023 25.074 92.3023 24.29C92.3023 23.506 92.4469 22.8247 92.7363 22.246C93.0256 21.658 93.4316 21.2053 93.9543 20.888C94.4863 20.5707 95.1069 20.412 95.8163 20.412C96.5163 20.412 97.1323 20.5707 97.6643 20.888C98.1963 21.2053 98.6069 21.658 98.8963 22.246C99.1856 22.8247 99.3303 23.506 99.3303 24.29C99.3303 25.074 99.1856 25.76 98.8963 26.348C98.6069 26.9267 98.1963 27.3747 97.6643 27.692C97.1323 28.0093 96.5163 28.168 95.8163 28.168ZM95.8163 26.894C96.4509 26.894 96.9409 26.6653 97.2863 26.208C97.6409 25.7507 97.8183 25.1113 97.8183 24.29C97.8183 23.4687 97.6409 22.8293 97.2863 22.372C96.9409 21.9147 96.4509 21.686 95.8163 21.686C95.1723 21.686 94.6776 21.9147 94.3323 22.372C93.9869 22.8293 93.8143 23.4687 93.8143 24.29C93.8143 25.1113 93.9869 25.7507 94.3323 26.208C94.6776 26.6653 95.1723 26.894 95.8163 26.894ZM100.655 22.792C100.805 22.0547 101.155 21.476 101.705 21.056C102.256 20.6267 102.956 20.412 103.805 20.412C104.813 20.412 105.583 20.6827 106.115 21.224C106.647 21.756 106.913 22.5307 106.913 23.548V26.348C106.913 26.516 106.951 26.6373 107.025 26.712C107.1 26.7867 107.212 26.824 107.361 26.824H107.669V28H107.179H107.123C106.862 28 106.619 27.972 106.395 27.916C106.171 27.86 105.98 27.748 105.821 27.58C105.663 27.412 105.579 27.174 105.569 26.866C105.392 27.2393 105.098 27.552 104.687 27.804C104.277 28.0467 103.782 28.168 103.203 28.168C102.429 28.168 101.789 27.9767 101.285 27.594C100.781 27.2113 100.529 26.698 100.529 26.054C100.529 25.578 100.637 25.1953 100.851 24.906C101.075 24.6167 101.383 24.3927 101.775 24.234C102.177 24.0753 102.695 23.9353 103.329 23.814L105.457 23.394C105.448 22.7967 105.308 22.3533 105.037 22.064C104.767 21.7747 104.356 21.63 103.805 21.63C103.376 21.63 103.021 21.7373 102.741 21.952C102.461 22.1667 102.265 22.4793 102.153 22.89L100.655 22.792ZM102.041 26.026C102.041 26.3153 102.163 26.5533 102.405 26.74C102.657 26.9267 103.017 27.02 103.483 27.02C103.866 27.02 104.207 26.9313 104.505 26.754C104.813 26.5673 105.051 26.292 105.219 25.928C105.397 25.564 105.485 25.1207 105.485 24.598V24.528L103.889 24.808L103.623 24.85C103.241 24.9247 102.947 24.9947 102.741 25.06C102.536 25.116 102.368 25.2233 102.237 25.382C102.107 25.5407 102.041 25.7553 102.041 26.026ZM113.887 18.06H115.343V28H113.985L113.943 26.964C113.738 27.3467 113.439 27.6453 113.047 27.86C112.655 28.0653 112.184 28.168 111.633 28.168C110.952 28.168 110.373 27.9953 109.897 27.65C109.43 27.2953 109.08 26.824 108.847 26.236C108.614 25.648 108.497 24.9993 108.497 24.29C108.497 23.5807 108.614 22.932 108.847 22.344C109.08 21.756 109.43 21.2893 109.897 20.944C110.373 20.5893 110.952 20.412 111.633 20.412C112.165 20.412 112.618 20.51 112.991 20.706C113.364 20.902 113.663 21.182 113.887 21.546V18.06ZM113.789 25.578C113.929 25.186 113.999 24.7567 113.999 24.29C113.999 23.8047 113.929 23.366 113.789 22.974C113.649 22.5727 113.43 22.2507 113.131 22.008C112.832 21.7653 112.454 21.644 111.997 21.644C111.334 21.644 110.835 21.896 110.499 22.4C110.172 22.904 110.009 23.534 110.009 24.29C110.009 25.018 110.172 25.634 110.499 26.138C110.835 26.642 111.334 26.894 111.997 26.894C112.454 26.894 112.832 26.7727 113.131 26.53C113.43 26.2873 113.649 25.97 113.789 25.578ZM123.748 28.168C123.039 28.168 122.418 28.0093 121.886 27.692C121.364 27.3747 120.958 26.9267 120.668 26.348C120.379 25.76 120.234 25.074 120.234 24.29C120.234 23.506 120.379 22.8247 120.668 22.246C120.958 21.658 121.364 21.2053 121.886 20.888C122.418 20.5707 123.039 20.412 123.748 20.412C124.448 20.412 125.064 20.5707 125.596 20.888C126.128 21.2053 126.539 21.658 126.828 22.246C127.118 22.8247 127.262 23.506 127.262 24.29C127.262 25.074 127.118 25.76 126.828 26.348C126.539 26.9267 126.128 27.3747 125.596 27.692C125.064 28.0093 124.448 28.168 123.748 28.168ZM123.748 26.894C124.383 26.894 124.873 26.6653 125.218 26.208C125.573 25.7507 125.75 25.1113 125.75 24.29C125.75 23.4687 125.573 22.8293 125.218 22.372C124.873 21.9147 124.383 21.686 123.748 21.686C123.104 21.686 122.61 21.9147 122.264 22.372C121.919 22.8293 121.746 23.4687 121.746 24.29C121.746 25.1113 121.919 25.7507 122.264 26.208C122.61 26.6653 123.104 26.894 123.748 26.894ZM132.098 28H130.404L127.688 20.58H129.186L131.258 26.502L133.316 20.58H134.814L132.098 28ZM135.24 24.29C135.24 23.506 135.384 22.8247 135.674 22.246C135.963 21.658 136.374 21.2053 136.906 20.888C137.438 20.5707 138.054 20.412 138.754 20.412C139.36 20.412 139.906 20.5473 140.392 20.818C140.886 21.0887 141.283 21.5087 141.582 22.078C141.89 22.6473 142.058 23.3567 142.086 24.206L142.1 24.71H136.766C136.822 25.41 137.022 25.9513 137.368 26.334C137.713 26.7167 138.175 26.908 138.754 26.908C139.127 26.908 139.468 26.81 139.776 26.614C140.084 26.4087 140.312 26.1287 140.462 25.774L141.988 25.886C141.773 26.5767 141.367 27.132 140.77 27.552C140.182 27.9627 139.51 28.168 138.754 28.168C138.054 28.168 137.438 28.0093 136.906 27.692C136.374 27.3747 135.963 26.9267 135.674 26.348C135.384 25.76 135.24 25.074 135.24 24.29ZM140.56 23.59C140.466 22.9273 140.256 22.442 139.93 22.134C139.603 21.826 139.211 21.672 138.754 21.672C138.212 21.672 137.774 21.84 137.438 22.176C137.102 22.512 136.887 22.9833 136.794 23.59H140.56ZM144.959 20.58L145.015 22.582L144.903 22.484C144.987 21.8213 145.178 21.3407 145.477 21.042C145.775 20.734 146.205 20.58 146.765 20.58H147.479V21.784H146.751C146.377 21.784 146.065 21.854 145.813 21.994C145.561 22.134 145.374 22.344 145.253 22.624C145.141 22.8947 145.085 23.24 145.085 23.66V28H143.629V20.58H144.959ZM153.128 18.06L155.06 25.956L157.006 18.06H158.532L160.492 25.956L162.396 18.06H164.006L161.374 28H159.638L157.776 20.902L155.914 28H154.178L151.546 18.06H153.128ZM166.745 20.58V28H165.289V20.58H166.745ZM166.787 18.06V19.474H165.275V18.06H166.787ZM173.054 23.268V24.556H168.364V23.268H173.054ZM181.185 18.06V19.432H175.459L176.243 18.634V23.184L175.459 22.47H180.933V23.814H175.459L176.243 23.1V28H174.759V18.06H181.185ZM184.303 20.58V28H182.847V20.58H184.303ZM184.345 18.06V19.474H182.833V18.06H184.345Z" fill="#24292F"/>
<g clip-path="url(#clip1_565_383)">
<rect x="362" y="15.5" width="28" height="16" rx="8" fill="#B2B7C2"/>
<g filter="url(#filter1_dd_565_383)">
<circle cx="370" cy="23.5" r="6" fill="white"/>
</g>
</g>
</g>
<rect x="2.5" y="1.5" width="403" height="44" rx="5.5" stroke="#E4E4E7"/>
</g>
<defs>
<filter id="filter0_d_565_383" x="0" y="0" width="408" height="49" filterUnits="userSpaceOnUse" color-interpolation-filters="sRGB">
<feFlood flood-opacity="0" result="BackgroundImageFix"/>
<feColorMatrix in="SourceAlpha" type="matrix" values="0 0 0 0 0 0 0 0 0 0 0 0 0 0 0 0 0 0 127 0" result="hardAlpha"/>
<feOffset dy="1"/>
<feGaussianBlur stdDeviation="1"/>
<feColorMatrix type="matrix" values="0 0 0 0 0.0627451 0 0 0 0 0.0941176 0 0 0 0 0.156863 0 0 0 0.05 0"/>
<feBlend mode="normal" in2="BackgroundImageFix" result="effect1_dropShadow_565_383"/>
<feBlend mode="normal" in="SourceGraphic" in2="effect1_dropShadow_565_383" result="shape"/>
</filter>
<filter id="filter1_dd_565_383" x="361" y="15.5" width="18" height="18" filterUnits="userSpaceOnUse" color-interpolation-filters="sRGB">
<feFlood flood-opacity="0" result="BackgroundImageFix"/>
<feColorMatrix in="SourceAlpha" type="matrix" values="0 0 0 0 0 0 0 0 0 0 0 0 0 0 0 0 0 0 127 0" result="hardAlpha"/>
<feOffset dy="1"/>
<feGaussianBlur stdDeviation="1"/>
<feColorMatrix type="matrix" values="0 0 0 0 0.0627451 0 0 0 0 0.0941176 0 0 0 0 0.156863 0 0 0 0.06 0"/>
<feBlend mode="normal" in2="BackgroundImageFix" result="effect1_dropShadow_565_383"/>
<feColorMatrix in="SourceAlpha" type="matrix" values="0 0 0 0 0 0 0 0 0 0 0 0 0 0 0 0 0 0 127 0" result="hardAlpha"/>
<feOffset dy="1"/>
<feGaussianBlur stdDeviation="1.5"/>
<feColorMatrix type="matrix" values="0 0 0 0 0.0627451 0 0 0 0 0.0941176 0 0 0 0 0.156863 0 0 0 0.1 0"/>
<feBlend mode="normal" in2="effect1_dropShadow_565_383" result="effect2_dropShadow_565_383"/>
<feBlend mode="normal" in="SourceGraphic" in2="effect2_dropShadow_565_383" result="shape"/>
</filter>
<clipPath id="clip0_565_383">
<rect x="2" y="1" width="404" height="45" rx="6" fill="white"/>
</clipPath>
<clipPath id="clip1_565_383">
<rect x="362" y="15.5" width="28" height="16" rx="8" fill="white"/>
</clipPath>
</defs>
</svg>
