<svg width="408" height="94" viewBox="0 0 408 94" fill="none" xmlns="http://www.w3.org/2000/svg">
<g filter="url(#filter0_d_565_346)">
<g clip-path="url(#clip0_565_346)">
<rect width="404" height="45" transform="translate(2 1)" fill="white"/>
<mask id="path-3-inside-1_565_346" fill="white">
<path d="M2 1H406V46H2V1Z"/>
</mask>
<path d="M2 1H406V46H2V1Z" fill="#FAFAFB"/>
<path d="M406 45H2V47H406V45Z" fill="#E4E4E7" mask="url(#path-3-inside-1_565_346)"/>
<path d="M21.892 18.06H23.754L27.338 28H25.77L24.86 25.382H20.786L19.876 28H18.308L21.892 18.06ZM24.384 24.024L22.83 19.46L21.262 24.024H24.384ZM33.1052 28L33.0912 26.082L33.2592 26.222C33.1379 26.8847 32.8626 27.3747 32.4332 27.692C32.0039 28.0093 31.4906 28.168 30.8932 28.168C30.0999 28.168 29.4886 27.9067 29.0592 27.384C28.6299 26.8613 28.4152 26.1847 28.4152 25.354V20.58H29.8712V24.906C29.8712 25.3633 29.9179 25.7413 30.0112 26.04C30.1139 26.3293 30.2632 26.5533 30.4592 26.712C30.6646 26.8613 30.9352 26.936 31.2712 26.936C31.8032 26.936 32.2279 26.7633 32.5452 26.418C32.8626 26.0633 33.0212 25.5593 33.0212 24.906V20.58H34.4772V28H33.1052ZM38.5523 18.9V25.886C38.5523 26.1847 38.6223 26.4133 38.7623 26.572C38.9117 26.7213 39.131 26.796 39.4203 26.796H40.5123V28H39.2943C38.5757 28 38.0297 27.818 37.6563 27.454C37.283 27.09 37.0963 26.5673 37.0963 25.886V18.9H38.5523ZM40.5263 20.58V21.784H35.9763V20.58H40.5263ZM44.7474 28.168C44.0381 28.168 43.4174 28.0093 42.8854 27.692C42.3628 27.3747 41.9568 26.9267 41.6674 26.348C41.3781 25.76 41.2334 25.074 41.2334 24.29C41.2334 23.506 41.3781 22.8247 41.6674 22.246C41.9568 21.658 42.3628 21.2053 42.8854 20.888C43.4174 20.5707 44.0381 20.412 44.7474 20.412C45.4474 20.412 46.0634 20.5707 46.5954 20.888C47.1274 21.2053 47.5381 21.658 47.8274 22.246C48.1168 22.8247 48.2614 23.506 48.2614 24.29C48.2614 25.074 48.1168 25.76 47.8274 26.348C47.5381 26.9267 47.1274 27.3747 46.5954 27.692C46.0634 28.0093 45.4474 28.168 44.7474 28.168ZM44.7474 26.894C45.3821 26.894 45.8721 26.6653 46.2174 26.208C46.5721 25.7507 46.7494 25.1113 46.7494 24.29C46.7494 23.4687 46.5721 22.8293 46.2174 22.372C45.8721 21.9147 45.3821 21.686 44.7474 21.686C44.1034 21.686 43.6088 21.9147 43.2634 22.372C42.9181 22.8293 42.7454 23.4687 42.7454 24.29C42.7454 25.1113 42.9181 25.7507 43.2634 26.208C43.6088 26.6653 44.1034 26.894 44.7474 26.894ZM56.1706 28.168C55.4612 28.168 54.8406 28.0093 54.3086 27.692C53.7859 27.3747 53.3799 26.9267 53.0906 26.348C52.8012 25.76 52.6566 25.074 52.6566 24.29C52.6566 23.506 52.8012 22.8247 53.0906 22.246C53.3799 21.658 53.7859 21.2053 54.3086 20.888C54.8406 20.5707 55.4612 20.412 56.1706 20.412C56.8706 20.412 57.4866 20.5707 58.0186 20.888C58.5506 21.2053 58.9612 21.658 59.2506 22.246C59.5399 22.8247 59.6846 23.506 59.6846 24.29C59.6846 25.074 59.5399 25.76 59.2506 26.348C58.9612 26.9267 58.5506 27.3747 58.0186 27.692C57.4866 28.0093 56.8706 28.168 56.1706 28.168ZM56.1706 26.894C56.8052 26.894 57.2952 26.6653 57.6406 26.208C57.9952 25.7507 58.1726 25.1113 58.1726 24.29C58.1726 23.4687 57.9952 22.8293 57.6406 22.372C57.2952 21.9147 56.8052 21.686 56.1706 21.686C55.5266 21.686 55.0319 21.9147 54.6866 22.372C54.3412 22.8293 54.1686 23.4687 54.1686 24.29C54.1686 25.1113 54.3412 25.7507 54.6866 26.208C55.0319 26.6653 55.5266 26.894 56.1706 26.894ZM61.2097 20.58H62.5677L62.6237 22.148L62.4837 21.938C62.6704 21.4433 62.9644 21.0653 63.3657 20.804C63.7764 20.5427 64.2757 20.412 64.8637 20.412C65.5637 20.412 66.1517 20.5893 66.6277 20.944C67.1037 21.2893 67.4584 21.756 67.6917 22.344C67.9344 22.9227 68.0557 23.5713 68.0557 24.29C68.0557 25.0087 67.9344 25.662 67.6917 26.25C67.4584 26.8287 67.1037 27.2953 66.6277 27.65C66.1517 27.9953 65.5637 28.168 64.8637 28.168C64.4717 28.168 64.117 28.112 63.7997 28C63.4917 27.8787 63.2257 27.7013 63.0017 27.468C62.787 27.2347 62.619 26.95 62.4977 26.614L62.6657 26.432V30.1H61.2097V20.58ZM62.5257 24.29C62.5257 24.7567 62.5957 25.186 62.7357 25.578C62.885 25.97 63.109 26.2873 63.4077 26.53C63.7064 26.7727 64.0797 26.894 64.5277 26.894C65.1904 26.894 65.685 26.6467 66.0117 26.152C66.3477 25.648 66.5157 25.0273 66.5157 24.29C66.5157 23.562 66.3477 22.946 66.0117 22.442C65.6757 21.938 65.181 21.686 64.5277 21.686C64.0797 21.686 63.7064 21.8073 63.4077 22.05C63.109 22.2927 62.885 22.61 62.7357 23.002C62.5957 23.394 62.5257 23.8233 62.5257 24.29ZM71.4715 18.9V25.886C71.4715 26.1847 71.5415 26.4133 71.6815 26.572C71.8308 26.7213 72.0501 26.796 72.3395 26.796H73.4315V28H72.2135C71.4948 28 70.9488 27.818 70.5755 27.454C70.2021 27.09 70.0155 26.5673 70.0155 25.886V18.9H71.4715ZM73.4455 20.58V21.784H68.8955V20.58H73.4455ZM76.372 20.58V28H74.916V20.58H76.372ZM76.414 18.06V19.474H74.902V18.06H76.414ZM79.592 20.58L79.634 21.798C79.8207 21.35 80.0914 21.0093 80.446 20.776C80.81 20.5333 81.244 20.412 81.748 20.412C82.2894 20.412 82.742 20.5473 83.106 20.818C83.4794 21.0793 83.7454 21.4573 83.904 21.952C84.072 21.448 84.3427 21.0653 84.716 20.804C85.0987 20.5427 85.57 20.412 86.13 20.412C86.634 20.412 87.0634 20.524 87.418 20.748C87.782 20.9627 88.0574 21.28 88.244 21.7C88.44 22.12 88.538 22.6287 88.538 23.226V28H87.082V23.66C87.082 23.0067 86.9654 22.5073 86.732 22.162C86.508 21.8167 86.186 21.644 85.766 21.644C85.4114 21.644 85.108 21.7233 84.856 21.882C84.604 22.0407 84.4127 22.2693 84.282 22.568C84.1607 22.8667 84.1 23.2307 84.1 23.66V28H82.714V23.66C82.714 23.2307 82.6627 22.8667 82.56 22.568C82.4574 22.2693 82.3034 22.0407 82.098 21.882C81.902 21.7233 81.6687 21.644 81.398 21.644C81.0527 21.644 80.754 21.7233 80.502 21.882C80.2594 22.0407 80.068 22.274 79.928 22.582C79.7974 22.8807 79.732 23.24 79.732 23.66V28H78.276V20.58H79.592ZM91.7463 20.58V28H90.2903V20.58H91.7463ZM91.7883 18.06V19.474H90.2763V18.06H91.7883ZM95.1574 26.796H99.8194V28H93.5334V26.6L98.0834 21.784H93.6874V20.58H99.7074V21.994L95.1574 26.796ZM100.895 24.29C100.895 23.506 101.04 22.8247 101.329 22.246C101.619 21.658 102.029 21.2053 102.561 20.888C103.093 20.5707 103.709 20.412 104.409 20.412C105.016 20.412 105.562 20.5473 106.047 20.818C106.542 21.0887 106.939 21.5087 107.237 22.078C107.545 22.6473 107.713 23.3567 107.741 24.206L107.755 24.71H102.421C102.477 25.41 102.678 25.9513 103.023 26.334C103.369 26.7167 103.831 26.908 104.409 26.908C104.783 26.908 105.123 26.81 105.431 26.614C105.739 26.4087 105.968 26.1287 106.117 25.774L107.643 25.886C107.429 26.5767 107.023 27.132 106.425 27.552C105.837 27.9627 105.165 28.168 104.409 28.168C103.709 28.168 103.093 28.0093 102.561 27.692C102.029 27.3747 101.619 26.9267 101.329 26.348C101.04 25.76 100.895 25.074 100.895 24.29ZM106.215 23.59C106.122 22.9273 105.912 22.442 105.585 22.134C105.259 21.826 104.867 21.672 104.409 21.672C103.868 21.672 103.429 21.84 103.093 22.176C102.757 22.512 102.543 22.9833 102.449 23.59H106.215ZM117.544 18.06H119V28H117.642L117.6 26.964C117.395 27.3467 117.096 27.6453 116.704 27.86C116.312 28.0653 115.841 28.168 115.29 28.168C114.609 28.168 114.03 27.9953 113.554 27.65C113.088 27.2953 112.738 26.824 112.504 26.236C112.271 25.648 112.154 24.9993 112.154 24.29C112.154 23.5807 112.271 22.932 112.504 22.344C112.738 21.756 113.088 21.2893 113.554 20.944C114.03 20.5893 114.609 20.412 115.29 20.412C115.822 20.412 116.275 20.51 116.648 20.706C117.022 20.902 117.32 21.182 117.544 21.546V18.06ZM117.446 25.578C117.586 25.186 117.656 24.7567 117.656 24.29C117.656 23.8047 117.586 23.366 117.446 22.974C117.306 22.5727 117.087 22.2507 116.788 22.008C116.49 21.7653 116.112 21.644 115.654 21.644C114.992 21.644 114.492 21.896 114.156 22.4C113.83 22.904 113.666 23.534 113.666 24.29C113.666 25.018 113.83 25.634 114.156 26.138C114.492 26.642 114.992 26.894 115.654 26.894C116.112 26.894 116.49 26.7727 116.788 26.53C117.087 26.2873 117.306 25.97 117.446 25.578ZM120.74 22.792C120.889 22.0547 121.239 21.476 121.79 21.056C122.341 20.6267 123.041 20.412 123.89 20.412C124.898 20.412 125.668 20.6827 126.2 21.224C126.732 21.756 126.998 22.5307 126.998 23.548V26.348C126.998 26.516 127.035 26.6373 127.11 26.712C127.185 26.7867 127.297 26.824 127.446 26.824H127.754V28H127.264H127.208C126.947 28 126.704 27.972 126.48 27.916C126.256 27.86 126.065 27.748 125.906 27.58C125.747 27.412 125.663 27.174 125.654 26.866C125.477 27.2393 125.183 27.552 124.772 27.804C124.361 28.0467 123.867 28.168 123.288 28.168C122.513 28.168 121.874 27.9767 121.37 27.594C120.866 27.2113 120.614 26.698 120.614 26.054C120.614 25.578 120.721 25.1953 120.936 24.906C121.16 24.6167 121.468 24.3927 121.86 24.234C122.261 24.0753 122.779 23.9353 123.414 23.814L125.542 23.394C125.533 22.7967 125.393 22.3533 125.122 22.064C124.851 21.7747 124.441 21.63 123.89 21.63C123.461 21.63 123.106 21.7373 122.826 21.952C122.546 22.1667 122.35 22.4793 122.238 22.89L120.74 22.792ZM122.126 26.026C122.126 26.3153 122.247 26.5533 122.49 26.74C122.742 26.9267 123.101 27.02 123.568 27.02C123.951 27.02 124.291 26.9313 124.59 26.754C124.898 26.5673 125.136 26.292 125.304 25.928C125.481 25.564 125.57 25.1207 125.57 24.598V24.528L123.974 24.808L123.708 24.85C123.325 24.9247 123.031 24.9947 122.826 25.06C122.621 25.116 122.453 25.2233 122.322 25.382C122.191 25.5407 122.126 25.7553 122.126 26.026ZM130.555 20.58V28H129.099V20.58H130.555ZM130.597 18.06V19.474H129.085V18.06H130.597ZM134.19 18.06V26.306C134.19 26.4647 134.227 26.586 134.302 26.67C134.386 26.754 134.507 26.796 134.666 26.796H135.282V28H134.358C133.872 28 133.48 27.8507 133.182 27.552C132.883 27.2533 132.734 26.8613 132.734 26.376V18.06H134.19ZM137.079 20.58L139.193 26.46L141.237 20.58H142.707L139.739 28.868C139.589 29.2973 139.37 29.61 139.081 29.806C138.791 30.002 138.418 30.1 137.961 30.1H136.953V28.91H137.765C137.951 28.91 138.101 28.868 138.213 28.784C138.334 28.7093 138.427 28.588 138.493 28.42L138.745 27.79H138.283L135.595 20.58H137.079Z" fill="#24292F"/>
<g clip-path="url(#clip1_565_346)">
<rect x="362" y="15.5" width="28" height="16" rx="8" fill="#B2B7C2"/>
<g filter="url(#filter1_dd_565_346)">
<circle cx="370" cy="23.5" r="6" fill="white"/>
</g>
</g>
<rect width="404" height="45" transform="translate(2 46)" fill="white"/>
<mask id="path-8-inside-2_565_346" fill="white">
<path d="M2 46H406V91H2V46Z"/>
</mask>
<path d="M2 46H406V91H2V46Z" fill="#FAFAFB"/>
<path d="M406 90H2V92H406V90Z" fill="#E4E4E7" mask="url(#path-8-inside-2_565_346)"/>
<path d="M21.892 63.06H23.754L27.338 73H25.77L24.86 70.382H20.786L19.876 73H18.308L21.892 63.06ZM24.384 69.024L22.83 64.46L21.262 69.024H24.384ZM33.3273 63.06H34.7833V73H33.4253L33.3833 71.964C33.1779 72.3467 32.8793 72.6453 32.4873 72.86C32.0953 73.0653 31.6239 73.168 31.0733 73.168C30.3919 73.168 29.8133 72.9953 29.3373 72.65C28.8706 72.2953 28.5206 71.824 28.2873 71.236C28.0539 70.648 27.9373 69.9993 27.9373 69.29C27.9373 68.5807 28.0539 67.932 28.2873 67.344C28.5206 66.756 28.8706 66.2893 29.3373 65.944C29.8133 65.5893 30.3919 65.412 31.0733 65.412C31.6053 65.412 32.0579 65.51 32.4313 65.706C32.8046 65.902 33.1033 66.182 33.3273 66.546V63.06ZM33.2293 70.578C33.3693 70.186 33.4393 69.7567 33.4393 69.29C33.4393 68.8047 33.3693 68.366 33.2293 67.974C33.0893 67.5727 32.8699 67.2507 32.5713 67.008C32.2726 66.7653 31.8946 66.644 31.4373 66.644C30.7746 66.644 30.2753 66.896 29.9393 67.4C29.6126 67.904 29.4493 68.534 29.4493 69.29C29.4493 70.018 29.6126 70.634 29.9393 71.138C30.2753 71.642 30.7746 71.894 31.4373 71.894C31.8946 71.894 32.2726 71.7727 32.5713 71.53C32.8699 71.2873 33.0893 70.97 33.2293 70.578ZM36.5229 67.792C36.6722 67.0547 37.0222 66.476 37.5729 66.056C38.1235 65.6267 38.8235 65.412 39.6729 65.412C40.6809 65.412 41.4509 65.6827 41.9829 66.224C42.5149 66.756 42.7809 67.5307 42.7809 68.548V71.348C42.7809 71.516 42.8182 71.6373 42.8929 71.712C42.9675 71.7867 43.0795 71.824 43.2289 71.824H43.5369V73H43.0469H42.9909C42.7295 73 42.4869 72.972 42.2629 72.916C42.0389 72.86 41.8475 72.748 41.6889 72.58C41.5302 72.412 41.4462 72.174 41.4369 71.866C41.2595 72.2393 40.9655 72.552 40.5549 72.804C40.1442 73.0467 39.6495 73.168 39.0709 73.168C38.2962 73.168 37.6569 72.9767 37.1529 72.594C36.6489 72.2113 36.3969 71.698 36.3969 71.054C36.3969 70.578 36.5042 70.1953 36.7189 69.906C36.9429 69.6167 37.2509 69.3927 37.6429 69.234C38.0442 69.0753 38.5622 68.9353 39.1969 68.814L41.3249 68.394C41.3155 67.7967 41.1755 67.3533 40.9049 67.064C40.6342 66.7747 40.2235 66.63 39.6729 66.63C39.2435 66.63 38.8889 66.7373 38.6089 66.952C38.3289 67.1667 38.1329 67.4793 38.0209 67.89L36.5229 67.792ZM37.9089 71.026C37.9089 71.3153 38.0302 71.5533 38.2729 71.74C38.5249 71.9267 38.8842 72.02 39.3509 72.02C39.7335 72.02 40.0742 71.9313 40.3729 71.754C40.6809 71.5673 40.9189 71.292 41.0869 70.928C41.2642 70.564 41.3529 70.1207 41.3529 69.598V69.528L39.7569 69.808L39.4909 69.85C39.1082 69.9247 38.8142 69.9947 38.6089 70.06C38.4035 70.116 38.2355 70.2233 38.1049 70.382C37.9742 70.5407 37.9089 70.7553 37.9089 71.026ZM44.8816 65.58H46.2396L46.2956 67.148L46.1556 66.938C46.3423 66.4433 46.6363 66.0653 47.0376 65.804C47.4483 65.5427 47.9476 65.412 48.5356 65.412C49.2356 65.412 49.8236 65.5893 50.2996 65.944C50.7756 66.2893 51.1303 66.756 51.3636 67.344C51.6063 67.9227 51.7276 68.5713 51.7276 69.29C51.7276 70.0087 51.6063 70.662 51.3636 71.25C51.1303 71.8287 50.7756 72.2953 50.2996 72.65C49.8236 72.9953 49.2356 73.168 48.5356 73.168C48.1436 73.168 47.789 73.112 47.4716 73C47.1636 72.8787 46.8976 72.7013 46.6736 72.468C46.459 72.2347 46.291 71.95 46.1696 71.614L46.3376 71.432V75.1H44.8816V65.58ZM46.1976 69.29C46.1976 69.7567 46.2676 70.186 46.4076 70.578C46.557 70.97 46.781 71.2873 47.0796 71.53C47.3783 71.7727 47.7516 71.894 48.1996 71.894C48.8623 71.894 49.357 71.6467 49.6836 71.152C50.0196 70.648 50.1876 70.0273 50.1876 69.29C50.1876 68.562 50.0196 67.946 49.6836 67.442C49.3476 66.938 48.853 66.686 48.1996 66.686C47.7516 66.686 47.3783 66.8073 47.0796 67.05C46.781 67.2927 46.557 67.61 46.4076 68.002C46.2676 68.394 46.1976 68.8233 46.1976 69.29ZM55.1434 63.9V70.886C55.1434 71.1847 55.2134 71.4133 55.3534 71.572C55.5028 71.7213 55.7221 71.796 56.0114 71.796H57.1034V73H55.8854C55.1668 73 54.6208 72.818 54.2474 72.454C53.8741 72.09 53.6874 71.5673 53.6874 70.886V63.9H55.1434ZM57.1174 65.58V66.784H52.5674V65.58H57.1174ZM58.224 67.792C58.3733 67.0547 58.7233 66.476 59.274 66.056C59.8246 65.6267 60.5246 65.412 61.374 65.412C62.382 65.412 63.152 65.6827 63.684 66.224C64.216 66.756 64.482 67.5307 64.482 68.548V71.348C64.482 71.516 64.5193 71.6373 64.594 71.712C64.6686 71.7867 64.7806 71.824 64.93 71.824H65.238V73H64.748H64.692C64.4306 73 64.188 72.972 63.964 72.916C63.74 72.86 63.5486 72.748 63.39 72.58C63.2313 72.412 63.1473 72.174 63.138 71.866C62.9606 72.2393 62.6666 72.552 62.256 72.804C61.8453 73.0467 61.3506 73.168 60.772 73.168C59.9973 73.168 59.358 72.9767 58.854 72.594C58.35 72.2113 58.098 71.698 58.098 71.054C58.098 70.578 58.2053 70.1953 58.42 69.906C58.644 69.6167 58.952 69.3927 59.344 69.234C59.7453 69.0753 60.2633 68.9353 60.898 68.814L63.026 68.394C63.0166 67.7967 62.8766 67.3533 62.606 67.064C62.3353 66.7747 61.9246 66.63 61.374 66.63C60.9446 66.63 60.59 66.7373 60.31 66.952C60.03 67.1667 59.834 67.4793 59.722 67.89L58.224 67.792ZM59.61 71.026C59.61 71.3153 59.7313 71.5533 59.974 71.74C60.226 71.9267 60.5853 72.02 61.052 72.02C61.4346 72.02 61.7753 71.9313 62.074 71.754C62.382 71.5673 62.62 71.292 62.788 70.928C62.9653 70.564 63.054 70.1207 63.054 69.598V69.528L61.458 69.808L61.192 69.85C60.8093 69.9247 60.5153 69.9947 60.31 70.06C60.1046 70.116 59.9366 70.2233 59.806 70.382C59.6753 70.5407 59.61 70.7553 59.61 71.026ZM68.2345 63.9V70.886C68.2345 71.1847 68.3045 71.4133 68.4445 71.572C68.5938 71.7213 68.8132 71.796 69.1025 71.796H70.1945V73H68.9765C68.2578 73 67.7118 72.818 67.3385 72.454C66.9652 72.09 66.7785 71.5673 66.7785 70.886V63.9H68.2345ZM70.2085 65.58V66.784H65.6585V65.58H70.2085ZM73.1351 65.58V73H71.6791V65.58H73.1351ZM73.1771 63.06V64.474H71.6651V63.06H73.1771ZM78.8421 73H77.1481L74.4321 65.58H75.9301L78.0021 71.502L80.0601 65.58H81.5581L78.8421 73ZM81.9833 69.29C81.9833 68.506 82.1279 67.8247 82.4173 67.246C82.7066 66.658 83.1173 66.2053 83.6493 65.888C84.1813 65.5707 84.7973 65.412 85.4973 65.412C86.1039 65.412 86.6499 65.5473 87.1353 65.818C87.6299 66.0887 88.0266 66.5087 88.3253 67.078C88.6333 67.6473 88.8013 68.3567 88.8293 69.206L88.8433 69.71H83.5093C83.5653 70.41 83.7659 70.9513 84.1113 71.334C84.4566 71.7167 84.9186 71.908 85.4973 71.908C85.8706 71.908 86.2113 71.81 86.5193 71.614C86.8273 71.4087 87.0559 71.1287 87.2053 70.774L88.7313 70.886C88.5166 71.5767 88.1106 72.132 87.5133 72.552C86.9253 72.9627 86.2533 73.168 85.4973 73.168C84.7973 73.168 84.1813 73.0093 83.6493 72.692C83.1173 72.3747 82.7066 71.9267 82.4173 71.348C82.1279 70.76 81.9833 70.074 81.9833 69.29ZM87.3033 68.59C87.2099 67.9273 86.9999 67.442 86.6733 67.134C86.3466 66.826 85.9546 66.672 85.4973 66.672C84.9559 66.672 84.5173 66.84 84.1813 67.176C83.8453 67.512 83.6306 67.9833 83.5373 68.59H87.3033ZM93.7323 65.58H95.0903L95.1463 67.148L95.0063 66.938C95.193 66.4433 95.487 66.0653 95.8883 65.804C96.299 65.5427 96.7983 65.412 97.3863 65.412C98.0863 65.412 98.6743 65.5893 99.1503 65.944C99.6263 66.2893 99.981 66.756 100.214 67.344C100.457 67.9227 100.578 68.5713 100.578 69.29C100.578 70.0087 100.457 70.662 100.214 71.25C99.981 71.8287 99.6263 72.2953 99.1503 72.65C98.6743 72.9953 98.0863 73.168 97.3863 73.168C96.9943 73.168 96.6397 73.112 96.3223 73C96.0143 72.8787 95.7483 72.7013 95.5243 72.468C95.3097 72.2347 95.1417 71.95 95.0203 71.614L95.1883 71.432V75.1H93.7323V65.58ZM95.0483 69.29C95.0483 69.7567 95.1183 70.186 95.2583 70.578C95.4077 70.97 95.6317 71.2873 95.9303 71.53C96.229 71.7727 96.6023 71.894 97.0503 71.894C97.713 71.894 98.2077 71.6467 98.5343 71.152C98.8703 70.648 99.0383 70.0273 99.0383 69.29C99.0383 68.562 98.8703 67.946 98.5343 67.442C98.1983 66.938 97.7037 66.686 97.0503 66.686C96.6023 66.686 96.229 66.8073 95.9303 67.05C95.6317 67.2927 95.4077 67.61 95.2583 68.002C95.1183 68.394 95.0483 68.8233 95.0483 69.29ZM105.202 73.168C104.493 73.168 103.872 73.0093 103.34 72.692C102.818 72.3747 102.412 71.9267 102.122 71.348C101.833 70.76 101.688 70.074 101.688 69.29C101.688 68.506 101.833 67.8247 102.122 67.246C102.412 66.658 102.818 66.2053 103.34 65.888C103.872 65.5707 104.493 65.412 105.202 65.412C105.902 65.412 106.518 65.5707 107.05 65.888C107.582 66.2053 107.993 66.658 108.282 67.246C108.572 67.8247 108.716 68.506 108.716 69.29C108.716 70.074 108.572 70.76 108.282 71.348C107.993 71.9267 107.582 72.3747 107.05 72.692C106.518 73.0093 105.902 73.168 105.202 73.168ZM105.202 71.894C105.837 71.894 106.327 71.6653 106.672 71.208C107.027 70.7507 107.204 70.1113 107.204 69.29C107.204 68.4687 107.027 67.8293 106.672 67.372C106.327 66.9147 105.837 66.686 105.202 66.686C104.558 66.686 104.064 66.9147 103.718 67.372C103.373 67.8293 103.2 68.4687 103.2 69.29C103.2 70.1113 103.373 70.7507 103.718 71.208C104.064 71.6653 104.558 71.894 105.202 71.894ZM116.996 71.362L118.634 65.58H120.132L117.85 73H116.198L114.63 67.666L113.062 73H111.41L109.142 65.58H110.626L112.278 71.362L113.93 65.58H115.33L116.996 71.362ZM120.549 69.29C120.549 68.506 120.694 67.8247 120.983 67.246C121.272 66.658 121.683 66.2053 122.215 65.888C122.747 65.5707 123.363 65.412 124.063 65.412C124.67 65.412 125.216 65.5473 125.701 65.818C126.196 66.0887 126.592 66.5087 126.891 67.078C127.199 67.6473 127.367 68.3567 127.395 69.206L127.409 69.71H122.075C122.131 70.41 122.332 70.9513 122.677 71.334C123.022 71.7167 123.484 71.908 124.063 71.908C124.436 71.908 124.777 71.81 125.085 71.614C125.393 71.4087 125.622 71.1287 125.771 70.774L127.297 70.886C127.082 71.5767 126.676 72.132 126.079 72.552C125.491 72.9627 124.819 73.168 124.063 73.168C123.363 73.168 122.747 73.0093 122.215 72.692C121.683 72.3747 121.272 71.9267 120.983 71.348C120.694 70.76 120.549 70.074 120.549 69.29ZM125.869 68.59C125.776 67.9273 125.566 67.442 125.239 67.134C124.912 66.826 124.52 66.672 124.063 66.672C123.522 66.672 123.083 66.84 122.747 67.176C122.411 67.512 122.196 67.9833 122.103 68.59H125.869ZM130.268 65.58L130.324 67.582L130.212 67.484C130.296 66.8213 130.487 66.3407 130.786 66.042C131.085 65.734 131.514 65.58 132.074 65.58H132.788V66.784H132.06C131.687 66.784 131.374 66.854 131.122 66.994C130.87 67.134 130.683 67.344 130.562 67.624C130.45 67.8947 130.394 68.24 130.394 68.66V73H128.938V65.58H130.268ZM141.91 67.904C141.835 67.5213 141.634 67.218 141.308 66.994C140.99 66.7607 140.631 66.644 140.23 66.644C139.838 66.644 139.511 66.742 139.25 66.938C138.988 67.1247 138.862 67.3767 138.872 67.694C138.872 67.9927 139.026 68.226 139.334 68.394C139.642 68.562 140.034 68.6927 140.51 68.786C141.182 68.9073 141.732 69.052 142.162 69.22C142.591 69.388 142.927 69.6213 143.17 69.92C143.412 70.2187 143.534 70.6013 143.534 71.068C143.534 71.5347 143.389 71.9267 143.1 72.244C142.82 72.552 142.451 72.7853 141.994 72.944C141.546 73.0933 141.056 73.168 140.524 73.168C139.898 73.168 139.338 73.0653 138.844 72.86C138.349 72.6547 137.957 72.3653 137.668 71.992C137.378 71.6093 137.215 71.166 137.178 70.662L138.676 70.564C138.732 70.8533 138.834 71.1007 138.984 71.306C139.142 71.502 139.348 71.656 139.6 71.768C139.861 71.8707 140.164 71.922 140.51 71.922C140.902 71.922 141.252 71.852 141.56 71.712C141.868 71.5627 142.022 71.3293 142.022 71.012C142.012 70.788 141.942 70.6107 141.812 70.48C141.69 70.3493 141.536 70.2513 141.35 70.186C141.163 70.1207 140.906 70.0553 140.58 69.99C140.505 69.9807 140.398 69.9573 140.258 69.92C139.632 69.7893 139.119 69.6493 138.718 69.5C138.316 69.3413 137.99 69.122 137.738 68.842C137.486 68.5527 137.36 68.1887 137.36 67.75C137.36 67.274 137.481 66.8633 137.724 66.518C137.966 66.1633 138.312 65.8927 138.76 65.706C139.217 65.51 139.749 65.412 140.356 65.412C141.149 65.412 141.826 65.6313 142.386 66.07C142.946 66.4993 143.286 67.0827 143.408 67.82L141.91 67.904ZM144.861 67.792C145.01 67.0547 145.36 66.476 145.911 66.056C146.462 65.6267 147.162 65.412 148.011 65.412C149.019 65.412 149.789 65.6827 150.321 66.224C150.853 66.756 151.119 67.5307 151.119 68.548V71.348C151.119 71.516 151.156 71.6373 151.231 71.712C151.306 71.7867 151.418 71.824 151.567 71.824H151.875V73H151.385H151.329C151.068 73 150.825 72.972 150.601 72.916C150.377 72.86 150.186 72.748 150.027 72.58C149.868 72.412 149.784 72.174 149.775 71.866C149.598 72.2393 149.304 72.552 148.893 72.804C148.482 73.0467 147.988 73.168 147.409 73.168C146.634 73.168 145.995 72.9767 145.491 72.594C144.987 72.2113 144.735 71.698 144.735 71.054C144.735 70.578 144.842 70.1953 145.057 69.906C145.281 69.6167 145.589 69.3927 145.981 69.234C146.382 69.0753 146.9 68.9353 147.535 68.814L149.663 68.394C149.654 67.7967 149.514 67.3533 149.243 67.064C148.972 66.7747 148.562 66.63 148.011 66.63C147.582 66.63 147.227 66.7373 146.947 66.952C146.667 67.1667 146.471 67.4793 146.359 67.89L144.861 67.792ZM146.247 71.026C146.247 71.3153 146.368 71.5533 146.611 71.74C146.863 71.9267 147.222 72.02 147.689 72.02C148.072 72.02 148.412 71.9313 148.711 71.754C149.019 71.5673 149.257 71.292 149.425 70.928C149.602 70.564 149.691 70.1207 149.691 69.598V69.528L148.095 69.808L147.829 69.85C147.446 69.9247 147.152 69.9947 146.947 70.06C146.742 70.116 146.574 70.2233 146.443 70.382C146.312 70.5407 146.247 70.7553 146.247 71.026ZM156.531 73H154.837L152.121 65.58H153.619L155.691 71.502L157.749 65.58H159.247L156.531 73ZM161.987 65.58V73H160.531V65.58H161.987ZM162.029 63.06V64.474H160.517V63.06H162.029ZM165.207 65.58L165.277 67.554L165.095 67.4C165.216 66.728 165.492 66.2287 165.921 65.902C166.36 65.5753 166.892 65.412 167.517 65.412C168.32 65.412 168.936 65.6733 169.365 66.196C169.804 66.7093 170.023 67.386 170.023 68.226V73H168.567V68.66C168.567 68.212 168.52 67.8433 168.427 67.554C168.334 67.2553 168.18 67.0313 167.965 66.882C167.76 66.7233 167.484 66.644 167.139 66.644C166.579 66.644 166.14 66.8167 165.823 67.162C165.506 67.5073 165.347 68.0067 165.347 68.66V73H163.891V65.58H165.207ZM174.686 72.622C174.014 72.622 173.426 72.4727 172.922 72.174C172.428 71.866 172.045 71.4413 171.774 70.9C171.504 70.3493 171.368 69.7287 171.368 69.038C171.368 68.338 171.504 67.7127 171.774 67.162C172.054 66.6113 172.446 66.182 172.95 65.874C173.454 65.566 174.033 65.412 174.686 65.412C175.162 65.412 175.587 65.5333 175.96 65.776C176.343 66.0093 176.618 66.3267 176.786 66.728V65.58H178.186V72.23C178.186 72.874 178.042 73.42 177.752 73.868C177.472 74.3253 177.076 74.6707 176.562 74.904C176.049 75.1467 175.456 75.268 174.784 75.268C174.252 75.268 173.762 75.1793 173.314 75.002C172.866 74.8247 172.493 74.5727 172.194 74.246C171.896 73.9287 171.686 73.5553 171.564 73.126L173.076 73.028C173.216 73.3453 173.431 73.5927 173.72 73.77C174.019 73.9473 174.378 74.036 174.798 74.036C175.414 74.036 175.89 73.9007 176.226 73.63C176.562 73.3687 176.73 72.986 176.73 72.482V71.39C176.525 71.782 176.231 72.0853 175.848 72.3C175.475 72.5147 175.088 72.622 174.686 72.622ZM172.88 69.038C172.88 69.4953 172.96 69.9013 173.118 70.256C173.277 70.6107 173.501 70.8907 173.79 71.096C174.089 71.292 174.434 71.39 174.826 71.39C175.218 71.39 175.559 71.292 175.848 71.096C176.138 70.8907 176.362 70.6107 176.52 70.256C176.688 69.9013 176.772 69.4953 176.772 69.038C176.772 68.5807 176.693 68.1747 176.534 67.82C176.385 67.4653 176.161 67.19 175.862 66.994C175.573 66.7887 175.228 66.686 174.826 66.686C174.425 66.686 174.08 66.7887 173.79 66.994C173.501 67.19 173.277 67.4653 173.118 67.82C172.96 68.1747 172.88 68.5807 172.88 69.038Z" fill="#24292F"/>
<g clip-path="url(#clip2_565_346)">
<rect x="362" y="60.5" width="28" height="16" rx="8" fill="#B2B7C2"/>
<g filter="url(#filter2_dd_565_346)">
<circle cx="370" cy="68.5" r="6" fill="white"/>
</g>
</g>
</g>
<rect x="2.5" y="1.5" width="403" height="89" rx="5.5" stroke="#E4E4E7"/>
</g>
<defs>
<filter id="filter0_d_565_346" x="0" y="0" width="408" height="94" filterUnits="userSpaceOnUse" color-interpolation-filters="sRGB">
<feFlood flood-opacity="0" result="BackgroundImageFix"/>
<feColorMatrix in="SourceAlpha" type="matrix" values="0 0 0 0 0 0 0 0 0 0 0 0 0 0 0 0 0 0 127 0" result="hardAlpha"/>
<feOffset dy="1"/>
<feGaussianBlur stdDeviation="1"/>
<feColorMatrix type="matrix" values="0 0 0 0 0.0627451 0 0 0 0 0.0941176 0 0 0 0 0.156863 0 0 0 0.05 0"/>
<feBlend mode="normal" in2="BackgroundImageFix" result="effect1_dropShadow_565_346"/>
<feBlend mode="normal" in="SourceGraphic" in2="effect1_dropShadow_565_346" result="shape"/>
</filter>
<filter id="filter1_dd_565_346" x="361" y="15.5" width="18" height="18" filterUnits="userSpaceOnUse" color-interpolation-filters="sRGB">
<feFlood flood-opacity="0" result="BackgroundImageFix"/>
<feColorMatrix in="SourceAlpha" type="matrix" values="0 0 0 0 0 0 0 0 0 0 0 0 0 0 0 0 0 0 127 0" result="hardAlpha"/>
<feOffset dy="1"/>
<feGaussianBlur stdDeviation="1"/>
<feColorMatrix type="matrix" values="0 0 0 0 0.0627451 0 0 0 0 0.0941176 0 0 0 0 0.156863 0 0 0 0.06 0"/>
<feBlend mode="normal" in2="BackgroundImageFix" result="effect1_dropShadow_565_346"/>
<feColorMatrix in="SourceAlpha" type="matrix" values="0 0 0 0 0 0 0 0 0 0 0 0 0 0 0 0 0 0 127 0" result="hardAlpha"/>
<feOffset dy="1"/>
<feGaussianBlur stdDeviation="1.5"/>
<feColorMatrix type="matrix" values="0 0 0 0 0.0627451 0 0 0 0 0.0941176 0 0 0 0 0.156863 0 0 0 0.1 0"/>
<feBlend mode="normal" in2="effect1_dropShadow_565_346" result="effect2_dropShadow_565_346"/>
<feBlend mode="normal" in="SourceGraphic" in2="effect2_dropShadow_565_346" result="shape"/>
</filter>
<filter id="filter2_dd_565_346" x="361" y="60.5" width="18" height="18" filterUnits="userSpaceOnUse" color-interpolation-filters="sRGB">
<feFlood flood-opacity="0" result="BackgroundImageFix"/>
<feColorMatrix in="SourceAlpha" type="matrix" values="0 0 0 0 0 0 0 0 0 0 0 0 0 0 0 0 0 0 127 0" result="hardAlpha"/>
<feOffset dy="1"/>
<feGaussianBlur stdDeviation="1"/>
<feColorMatrix type="matrix" values="0 0 0 0 0.0627451 0 0 0 0 0.0941176 0 0 0 0 0.156863 0 0 0 0.06 0"/>
<feBlend mode="normal" in2="BackgroundImageFix" result="effect1_dropShadow_565_346"/>
<feColorMatrix in="SourceAlpha" type="matrix" values="0 0 0 0 0 0 0 0 0 0 0 0 0 0 0 0 0 0 127 0" result="hardAlpha"/>
<feOffset dy="1"/>
<feGaussianBlur stdDeviation="1.5"/>
<feColorMatrix type="matrix" values="0 0 0 0 0.0627451 0 0 0 0 0.0941176 0 0 0 0 0.156863 0 0 0 0.1 0"/>
<feBlend mode="normal" in2="effect1_dropShadow_565_346" result="effect2_dropShadow_565_346"/>
<feBlend mode="normal" in="SourceGraphic" in2="effect2_dropShadow_565_346" result="shape"/>
</filter>
<clipPath id="clip0_565_346">
<rect x="2" y="1" width="404" height="90" rx="6" fill="white"/>
</clipPath>
<clipPath id="clip1_565_346">
<rect x="362" y="15.5" width="28" height="16" rx="8" fill="white"/>
</clipPath>
<clipPath id="clip2_565_346">
<rect x="362" y="60.5" width="28" height="16" rx="8" fill="white"/>
</clipPath>
</defs>
</svg>
