<svg width="408" height="184" viewBox="0 0 408 184" fill="none" xmlns="http://www.w3.org/2000/svg">
<g filter="url(#filter0_d_562_291)">
<g clip-path="url(#clip0_562_291)">
<rect width="404" height="45" transform="translate(2 1)" fill="white"/>
<mask id="path-3-inside-1_562_291" fill="white">
<path d="M2 1H406V46H2V1Z"/>
</mask>
<path d="M2 1H406V46H2V1Z" fill="#FAFAFB"/>
<path d="M406 45H2V47H406V45Z" fill="#E4E4E7" mask="url(#path-3-inside-1_562_291)"/>
<path d="M21.892 18.06H23.754L27.338 28H25.77L24.86 25.382H20.786L19.876 28H18.308L21.892 18.06ZM24.384 24.024L22.83 19.46L21.262 24.024H24.384ZM33.3273 18.06H34.7833V28H33.4253L33.3833 26.964C33.1779 27.3467 32.8793 27.6453 32.4873 27.86C32.0953 28.0653 31.6239 28.168 31.0733 28.168C30.3919 28.168 29.8133 27.9953 29.3373 27.65C28.8706 27.2953 28.5206 26.824 28.2873 26.236C28.0539 25.648 27.9373 24.9993 27.9373 24.29C27.9373 23.5807 28.0539 22.932 28.2873 22.344C28.5206 21.756 28.8706 21.2893 29.3373 20.944C29.8133 20.5893 30.3919 20.412 31.0733 20.412C31.6053 20.412 32.0579 20.51 32.4313 20.706C32.8046 20.902 33.1033 21.182 33.3273 21.546V18.06ZM33.2293 25.578C33.3693 25.186 33.4393 24.7567 33.4393 24.29C33.4393 23.8047 33.3693 23.366 33.2293 22.974C33.0893 22.5727 32.8699 22.2507 32.5713 22.008C32.2726 21.7653 31.8946 21.644 31.4373 21.644C30.7746 21.644 30.2753 21.896 29.9393 22.4C29.6126 22.904 29.4493 23.534 29.4493 24.29C29.4493 25.018 29.6126 25.634 29.9393 26.138C30.2753 26.642 30.7746 26.894 31.4373 26.894C31.8946 26.894 32.2726 26.7727 32.5713 26.53C32.8699 26.2873 33.0893 25.97 33.2293 25.578ZM36.5229 22.792C36.6722 22.0547 37.0222 21.476 37.5729 21.056C38.1235 20.6267 38.8235 20.412 39.6729 20.412C40.6809 20.412 41.4509 20.6827 41.9829 21.224C42.5149 21.756 42.7809 22.5307 42.7809 23.548V26.348C42.7809 26.516 42.8182 26.6373 42.8929 26.712C42.9675 26.7867 43.0795 26.824 43.2289 26.824H43.5369V28H43.0469H42.9909C42.7295 28 42.4869 27.972 42.2629 27.916C42.0389 27.86 41.8475 27.748 41.6889 27.58C41.5302 27.412 41.4462 27.174 41.4369 26.866C41.2595 27.2393 40.9655 27.552 40.5549 27.804C40.1442 28.0467 39.6495 28.168 39.0709 28.168C38.2962 28.168 37.6569 27.9767 37.1529 27.594C36.6489 27.2113 36.3969 26.698 36.3969 26.054C36.3969 25.578 36.5042 25.1953 36.7189 24.906C36.9429 24.6167 37.2509 24.3927 37.6429 24.234C38.0442 24.0753 38.5622 23.9353 39.1969 23.814L41.3249 23.394C41.3155 22.7967 41.1755 22.3533 40.9049 22.064C40.6342 21.7747 40.2235 21.63 39.6729 21.63C39.2435 21.63 38.8889 21.7373 38.6089 21.952C38.3289 22.1667 38.1329 22.4793 38.0209 22.89L36.5229 22.792ZM37.9089 26.026C37.9089 26.3153 38.0302 26.5533 38.2729 26.74C38.5249 26.9267 38.8842 27.02 39.3509 27.02C39.7335 27.02 40.0742 26.9313 40.3729 26.754C40.6809 26.5673 40.9189 26.292 41.0869 25.928C41.2642 25.564 41.3529 25.1207 41.3529 24.598V24.528L39.7569 24.808L39.4909 24.85C39.1082 24.9247 38.8142 24.9947 38.6089 25.06C38.4035 25.116 38.2355 25.2233 38.1049 25.382C37.9742 25.5407 37.9089 25.7553 37.9089 26.026ZM44.8816 20.58H46.2396L46.2956 22.148L46.1556 21.938C46.3423 21.4433 46.6363 21.0653 47.0376 20.804C47.4483 20.5427 47.9476 20.412 48.5356 20.412C49.2356 20.412 49.8236 20.5893 50.2996 20.944C50.7756 21.2893 51.1303 21.756 51.3636 22.344C51.6063 22.9227 51.7276 23.5713 51.7276 24.29C51.7276 25.0087 51.6063 25.662 51.3636 26.25C51.1303 26.8287 50.7756 27.2953 50.2996 27.65C49.8236 27.9953 49.2356 28.168 48.5356 28.168C48.1436 28.168 47.789 28.112 47.4716 28C47.1636 27.8787 46.8976 27.7013 46.6736 27.468C46.459 27.2347 46.291 26.95 46.1696 26.614L46.3376 26.432V30.1H44.8816V20.58ZM46.1976 24.29C46.1976 24.7567 46.2676 25.186 46.4076 25.578C46.557 25.97 46.781 26.2873 47.0796 26.53C47.3783 26.7727 47.7516 26.894 48.1996 26.894C48.8623 26.894 49.357 26.6467 49.6836 26.152C50.0196 25.648 50.1876 25.0273 50.1876 24.29C50.1876 23.562 50.0196 22.946 49.6836 22.442C49.3476 21.938 48.853 21.686 48.1996 21.686C47.7516 21.686 47.3783 21.8073 47.0796 22.05C46.781 22.2927 46.557 22.61 46.4076 23.002C46.2676 23.394 46.1976 23.8233 46.1976 24.29ZM55.1434 18.9V25.886C55.1434 26.1847 55.2134 26.4133 55.3534 26.572C55.5028 26.7213 55.7221 26.796 56.0114 26.796H57.1034V28H55.8854C55.1668 28 54.6208 27.818 54.2474 27.454C53.8741 27.09 53.6874 26.5673 53.6874 25.886V18.9H55.1434ZM57.1174 20.58V21.784H52.5674V20.58H57.1174ZM58.224 22.792C58.3733 22.0547 58.7233 21.476 59.274 21.056C59.8246 20.6267 60.5246 20.412 61.374 20.412C62.382 20.412 63.152 20.6827 63.684 21.224C64.216 21.756 64.482 22.5307 64.482 23.548V26.348C64.482 26.516 64.5193 26.6373 64.594 26.712C64.6686 26.7867 64.7806 26.824 64.93 26.824H65.238V28H64.748H64.692C64.4306 28 64.188 27.972 63.964 27.916C63.74 27.86 63.5486 27.748 63.39 27.58C63.2313 27.412 63.1473 27.174 63.138 26.866C62.9606 27.2393 62.6666 27.552 62.256 27.804C61.8453 28.0467 61.3506 28.168 60.772 28.168C59.9973 28.168 59.358 27.9767 58.854 27.594C58.35 27.2113 58.098 26.698 58.098 26.054C58.098 25.578 58.2053 25.1953 58.42 24.906C58.644 24.6167 58.952 24.3927 59.344 24.234C59.7453 24.0753 60.2633 23.9353 60.898 23.814L63.026 23.394C63.0166 22.7967 62.8766 22.3533 62.606 22.064C62.3353 21.7747 61.9246 21.63 61.374 21.63C60.9446 21.63 60.59 21.7373 60.31 21.952C60.03 22.1667 59.834 22.4793 59.722 22.89L58.224 22.792ZM59.61 26.026C59.61 26.3153 59.7313 26.5533 59.974 26.74C60.226 26.9267 60.5853 27.02 61.052 27.02C61.4346 27.02 61.7753 26.9313 62.074 26.754C62.382 26.5673 62.62 26.292 62.788 25.928C62.9653 25.564 63.054 25.1207 63.054 24.598V24.528L61.458 24.808L61.192 24.85C60.8093 24.9247 60.5153 24.9947 60.31 25.06C60.1046 25.116 59.9366 25.2233 59.806 25.382C59.6753 25.5407 59.61 25.7553 59.61 26.026ZM68.2345 18.9V25.886C68.2345 26.1847 68.3045 26.4133 68.4445 26.572C68.5938 26.7213 68.8132 26.796 69.1025 26.796H70.1945V28H68.9765C68.2578 28 67.7118 27.818 67.3385 27.454C66.9652 27.09 66.7785 26.5673 66.7785 25.886V18.9H68.2345ZM70.2085 20.58V21.784H65.6585V20.58H70.2085ZM73.1351 20.58V28H71.6791V20.58H73.1351ZM73.1771 18.06V19.474H71.6651V18.06H73.1771ZM78.8421 28H77.1481L74.4321 20.58H75.9301L78.0021 26.502L80.0601 20.58H81.5581L78.8421 28ZM81.9833 24.29C81.9833 23.506 82.1279 22.8247 82.4173 22.246C82.7066 21.658 83.1173 21.2053 83.6493 20.888C84.1813 20.5707 84.7973 20.412 85.4973 20.412C86.1039 20.412 86.6499 20.5473 87.1353 20.818C87.6299 21.0887 88.0266 21.5087 88.3253 22.078C88.6333 22.6473 88.8013 23.3567 88.8293 24.206L88.8433 24.71H83.5093C83.5653 25.41 83.7659 25.9513 84.1113 26.334C84.4566 26.7167 84.9186 26.908 85.4973 26.908C85.8706 26.908 86.2113 26.81 86.5193 26.614C86.8273 26.4087 87.0559 26.1287 87.2053 25.774L88.7313 25.886C88.5166 26.5767 88.1106 27.132 87.5133 27.552C86.9253 27.9627 86.2533 28.168 85.4973 28.168C84.7973 28.168 84.1813 28.0093 83.6493 27.692C83.1173 27.3747 82.7066 26.9267 82.4173 26.348C82.1279 25.76 81.9833 25.074 81.9833 24.29ZM87.3033 23.59C87.2099 22.9273 86.9999 22.442 86.6733 22.134C86.3466 21.826 85.9546 21.672 85.4973 21.672C84.9559 21.672 84.5173 21.84 84.1813 22.176C83.8453 22.512 83.6306 22.9833 83.5373 23.59H87.3033ZM95.1883 18.06V21.546C95.4123 21.182 95.711 20.902 96.0843 20.706C96.4577 20.51 96.9103 20.412 97.4423 20.412C98.1237 20.412 98.6977 20.5893 99.1643 20.944C99.6403 21.2893 99.995 21.756 100.228 22.344C100.462 22.932 100.578 23.5807 100.578 24.29C100.578 24.9993 100.462 25.648 100.228 26.236C99.995 26.824 99.6403 27.2953 99.1643 27.65C98.6977 27.9953 98.1237 28.168 97.4423 28.168C96.8917 28.168 96.4203 28.0653 96.0283 27.86C95.6363 27.6453 95.3377 27.3467 95.1323 26.964L95.0903 28H93.7323V18.06H95.1883ZM95.0763 24.29C95.0763 24.7567 95.1463 25.186 95.2863 25.578C95.4263 25.97 95.6457 26.2873 95.9443 26.53C96.243 26.7727 96.621 26.894 97.0783 26.894C97.741 26.894 98.2357 26.642 98.5623 26.138C98.8983 25.634 99.0663 25.018 99.0663 24.29C99.0663 23.534 98.8983 22.904 98.5623 22.4C98.2357 21.896 97.741 21.644 97.0783 21.644C96.621 21.644 96.243 21.7653 95.9443 22.008C95.6457 22.2507 95.4263 22.5727 95.2863 22.974C95.1463 23.366 95.0763 23.8047 95.0763 24.29ZM101.896 22.792C102.046 22.0547 102.396 21.476 102.946 21.056C103.497 20.6267 104.197 20.412 105.046 20.412C106.054 20.412 106.824 20.6827 107.356 21.224C107.888 21.756 108.154 22.5307 108.154 23.548V26.348C108.154 26.516 108.192 26.6373 108.266 26.712C108.341 26.7867 108.453 26.824 108.602 26.824H108.91V28H108.42H108.364C108.103 28 107.86 27.972 107.636 27.916C107.412 27.86 107.221 27.748 107.062 27.58C106.904 27.412 106.82 27.174 106.81 26.866C106.633 27.2393 106.339 27.552 105.928 27.804C105.518 28.0467 105.023 28.168 104.444 28.168C103.67 28.168 103.03 27.9767 102.526 27.594C102.022 27.2113 101.77 26.698 101.77 26.054C101.77 25.578 101.878 25.1953 102.092 24.906C102.316 24.6167 102.624 24.3927 103.016 24.234C103.418 24.0753 103.936 23.9353 104.57 23.814L106.698 23.394C106.689 22.7967 106.549 22.3533 106.278 22.064C106.008 21.7747 105.597 21.63 105.046 21.63C104.617 21.63 104.262 21.7373 103.982 21.952C103.702 22.1667 103.506 22.4793 103.394 22.89L101.896 22.792ZM103.282 26.026C103.282 26.3153 103.404 26.5533 103.646 26.74C103.898 26.9267 104.258 27.02 104.724 27.02C105.107 27.02 105.448 26.9313 105.746 26.754C106.054 26.5673 106.292 26.292 106.46 25.928C106.638 25.564 106.726 25.1207 106.726 24.598V24.528L105.13 24.808L104.864 24.85C104.482 24.9247 104.188 24.9947 103.982 25.06C103.777 25.116 103.609 25.2233 103.478 25.382C103.348 25.5407 103.282 25.7553 103.282 26.026ZM111.907 18.9V25.886C111.907 26.1847 111.977 26.4133 112.117 26.572C112.266 26.7213 112.486 26.796 112.775 26.796H113.867V28H112.649C111.93 28 111.384 27.818 111.011 27.454C110.638 27.09 110.451 26.5673 110.451 25.886V18.9H111.907ZM113.881 20.58V21.784H109.331V20.58H113.881ZM116.429 18.9V25.886C116.429 26.1847 116.499 26.4133 116.639 26.572C116.788 26.7213 117.008 26.796 117.297 26.796H118.389V28H117.171C116.452 28 115.906 27.818 115.533 27.454C115.16 27.09 114.973 26.5673 114.973 25.886V18.9H116.429ZM118.403 20.58V21.784H113.853V20.58H118.403ZM119.113 24.29C119.113 23.506 119.258 22.8247 119.547 22.246C119.837 21.658 120.247 21.2053 120.779 20.888C121.311 20.5707 121.927 20.412 122.627 20.412C123.234 20.412 123.78 20.5473 124.265 20.818C124.76 21.0887 125.157 21.5087 125.455 22.078C125.763 22.6473 125.931 23.3567 125.959 24.206L125.973 24.71H120.639C120.695 25.41 120.896 25.9513 121.241 26.334C121.587 26.7167 122.049 26.908 122.627 26.908C123.001 26.908 123.341 26.81 123.649 26.614C123.957 26.4087 124.186 26.1287 124.335 25.774L125.861 25.886C125.647 26.5767 125.241 27.132 124.643 27.552C124.055 27.9627 123.383 28.168 122.627 28.168C121.927 28.168 121.311 28.0093 120.779 27.692C120.247 27.3747 119.837 26.9267 119.547 26.348C119.258 25.76 119.113 25.074 119.113 24.29ZM124.433 23.59C124.34 22.9273 124.13 22.442 123.803 22.134C123.477 21.826 123.085 21.672 122.627 21.672C122.086 21.672 121.647 21.84 121.311 22.176C120.975 22.512 120.761 22.9833 120.667 23.59H124.433ZM128.832 20.58L128.888 22.582L128.776 22.484C128.86 21.8213 129.052 21.3407 129.35 21.042C129.649 20.734 130.078 20.58 130.638 20.58H131.352V21.784H130.624C130.251 21.784 129.938 21.854 129.686 21.994C129.434 22.134 129.248 22.344 129.126 22.624C129.014 22.8947 128.958 23.24 128.958 23.66V28H127.502V20.58H128.832ZM133.626 20.58L135.74 26.46L137.784 20.58H139.254L136.286 28.868C136.137 29.2973 135.918 29.61 135.628 29.806C135.339 30.002 134.966 30.1 134.508 30.1H133.5V28.91H134.312C134.499 28.91 134.648 28.868 134.76 28.784C134.882 28.7093 134.975 28.588 135.04 28.42L135.292 27.79H134.83L132.142 20.58H133.626Z" fill="#24292F"/>
<g clip-path="url(#clip1_562_291)">
<rect x="362" y="15.5" width="28" height="16" rx="8" fill="#B2B7C2"/>
<g filter="url(#filter1_dd_562_291)">
<circle cx="370" cy="23.5" r="6" fill="white"/>
</g>
</g>
<rect width="404" height="45" transform="translate(2 46)" fill="white"/>
<mask id="path-8-inside-2_562_291" fill="white">
<path d="M2 46H406V91H2V46Z"/>
</mask>
<path d="M2 46H406V91H2V46Z" fill="#FAFAFB"/>
<path d="M406 90H2V92H406V90Z" fill="#E4E4E7" mask="url(#path-8-inside-2_562_291)"/>
<path d="M25.658 63.06V64.432H20.702V67.344H25.49V68.688H20.702V71.628H25.77V73H19.218V63.06H25.658ZM28.8272 65.58L28.8972 67.554L28.7152 67.4C28.8366 66.728 29.1119 66.2287 29.5412 65.902C29.9799 65.5753 30.5119 65.412 31.1372 65.412C31.9399 65.412 32.5559 65.6733 32.9852 66.196C33.4239 66.7093 33.6432 67.386 33.6432 68.226V73H32.1873V68.66C32.1873 68.212 32.1406 67.8433 32.0472 67.554C31.9539 67.2553 31.7999 67.0313 31.5852 66.882C31.3799 66.7233 31.1046 66.644 30.7592 66.644C30.1992 66.644 29.7606 66.8167 29.4432 67.162C29.1259 67.5073 28.9672 68.0067 28.9672 68.66V73H27.5112V65.58H28.8272ZM36.8663 63.06V67.232L36.6563 67.134C36.8056 66.5553 37.095 66.126 37.5243 65.846C37.9536 65.5567 38.4623 65.412 39.0503 65.412C39.853 65.412 40.469 65.6733 40.8983 66.196C41.3276 66.7187 41.5423 67.3953 41.5423 68.226V73H40.0863V68.73C40.0863 68.282 40.0396 67.9133 39.9463 67.624C39.853 67.3253 39.699 67.1013 39.4843 66.952C39.279 66.7933 39.0036 66.714 38.6583 66.714C38.0983 66.714 37.6596 66.8867 37.3423 67.232C37.025 67.5773 36.8663 68.0767 36.8663 68.73V73H35.4103V63.06H36.8663ZM43.2051 67.792C43.3545 67.0547 43.7045 66.476 44.2551 66.056C44.8058 65.6267 45.5058 65.412 46.3551 65.412C47.3631 65.412 48.1331 65.6827 48.6651 66.224C49.1971 66.756 49.4631 67.5307 49.4631 68.548V71.348C49.4631 71.516 49.5005 71.6373 49.5751 71.712C49.6498 71.7867 49.7618 71.824 49.9111 71.824H50.2191V73H49.7291H49.6731C49.4118 73 49.1691 72.972 48.9451 72.916C48.7211 72.86 48.5298 72.748 48.3711 72.58C48.2125 72.412 48.1285 72.174 48.1191 71.866C47.9418 72.2393 47.6478 72.552 47.2371 72.804C46.8265 73.0467 46.3318 73.168 45.7531 73.168C44.9785 73.168 44.3391 72.9767 43.8351 72.594C43.3311 72.2113 43.0791 71.698 43.0791 71.054C43.0791 70.578 43.1865 70.1953 43.4011 69.906C43.6251 69.6167 43.9331 69.3927 44.3251 69.234C44.7265 69.0753 45.2445 68.9353 45.8791 68.814L48.0071 68.394C47.9978 67.7967 47.8578 67.3533 47.5871 67.064C47.3165 66.7747 46.9058 66.63 46.3551 66.63C45.9258 66.63 45.5711 66.7373 45.2911 66.952C45.0111 67.1667 44.8151 67.4793 44.7031 67.89L43.2051 67.792ZM44.5911 71.026C44.5911 71.3153 44.7125 71.5533 44.9551 71.74C45.2071 71.9267 45.5665 72.02 46.0331 72.02C46.4158 72.02 46.7565 71.9313 47.0551 71.754C47.3631 71.5673 47.6011 71.292 47.7691 70.928C47.9465 70.564 48.0351 70.1207 48.0351 69.598V69.528L46.4391 69.808L46.1731 69.85C45.7905 69.9247 45.4965 69.9947 45.2911 70.06C45.0858 70.116 44.9178 70.2233 44.7871 70.382C44.6565 70.5407 44.5911 70.7553 44.5911 71.026ZM52.8799 65.58L52.9499 67.554L52.7679 67.4C52.8892 66.728 53.1646 66.2287 53.5939 65.902C54.0326 65.5753 54.5646 65.412 55.1899 65.412C55.9926 65.412 56.6086 65.6733 57.0379 66.196C57.4766 66.7093 57.6959 67.386 57.6959 68.226V73H56.2399V68.66C56.2399 68.212 56.1932 67.8433 56.0999 67.554C56.0066 67.2553 55.8526 67.0313 55.6379 66.882C55.4326 66.7233 55.1572 66.644 54.8119 66.644C54.2519 66.644 53.8132 66.8167 53.4959 67.162C53.1786 67.5073 53.0199 68.0067 53.0199 68.66V73H51.5639V65.58H52.8799ZM64.2773 68.17C64.212 67.7127 64.016 67.3533 63.6893 67.092C63.3627 66.8213 62.9847 66.686 62.5553 66.686C61.9113 66.686 61.4167 66.9147 61.0713 67.372C60.726 67.8293 60.5533 68.4687 60.5533 69.29C60.5533 70.1113 60.726 70.7507 61.0713 71.208C61.4167 71.6653 61.9113 71.894 62.5553 71.894C63.0127 71.894 63.4 71.754 63.7173 71.474C64.044 71.1847 64.2493 70.788 64.3333 70.284L65.8593 70.368C65.7847 70.9373 65.5887 71.4367 65.2713 71.866C64.9633 72.286 64.5713 72.608 64.0953 72.832C63.6287 73.056 63.1153 73.168 62.5553 73.168C61.846 73.168 61.2253 73.0093 60.6933 72.692C60.1707 72.3747 59.7647 71.9267 59.4753 71.348C59.186 70.76 59.0413 70.074 59.0413 69.29C59.0413 68.506 59.186 67.8247 59.4753 67.246C59.7647 66.658 60.1707 66.2053 60.6933 65.888C61.2253 65.5707 61.846 65.412 62.5553 65.412C63.0967 65.412 63.6007 65.524 64.0673 65.748C64.5433 65.9627 64.9307 66.2707 65.2293 66.672C65.5373 67.0733 65.724 67.5447 65.7893 68.086L64.2773 68.17ZM66.831 69.29C66.831 68.506 66.9757 67.8247 67.265 67.246C67.5543 66.658 67.965 66.2053 68.497 65.888C69.029 65.5707 69.645 65.412 70.345 65.412C70.9517 65.412 71.4977 65.5473 71.983 65.818C72.4777 66.0887 72.8743 66.5087 73.173 67.078C73.481 67.6473 73.649 68.3567 73.677 69.206L73.691 69.71H68.357C68.413 70.41 68.6137 70.9513 68.959 71.334C69.3043 71.7167 69.7663 71.908 70.345 71.908C70.7183 71.908 71.059 71.81 71.367 71.614C71.675 71.4087 71.9037 71.1287 72.053 70.774L73.579 70.886C73.3643 71.5767 72.9583 72.132 72.361 72.552C71.773 72.9627 71.101 73.168 70.345 73.168C69.645 73.168 69.029 73.0093 68.497 72.692C67.965 72.3747 67.5543 71.9267 67.265 71.348C66.9757 70.76 66.831 70.074 66.831 69.29ZM72.151 68.59C72.0577 67.9273 71.8477 67.442 71.521 67.134C71.1943 66.826 70.8023 66.672 70.345 66.672C69.8037 66.672 69.365 66.84 69.029 67.176C68.693 67.512 68.4783 67.9833 68.385 68.59H72.151ZM80.2021 63.06H81.6581V73H80.3001L80.2581 71.964C80.0528 72.3467 79.7541 72.6453 79.3621 72.86C78.9701 73.0653 78.4988 73.168 77.9481 73.168C77.2668 73.168 76.6881 72.9953 76.2121 72.65C75.7454 72.2953 75.3954 71.824 75.1621 71.236C74.9288 70.648 74.8121 69.9993 74.8121 69.29C74.8121 68.5807 74.9288 67.932 75.1621 67.344C75.3954 66.756 75.7454 66.2893 76.2121 65.944C76.6881 65.5893 77.2668 65.412 77.9481 65.412C78.4801 65.412 78.9328 65.51 79.3061 65.706C79.6794 65.902 79.9781 66.182 80.2021 66.546V63.06ZM80.1041 70.578C80.2441 70.186 80.3141 69.7567 80.3141 69.29C80.3141 68.8047 80.2441 68.366 80.1041 67.974C79.9641 67.5727 79.7448 67.2507 79.4461 67.008C79.1474 66.7653 78.7694 66.644 78.3121 66.644C77.6494 66.644 77.1501 66.896 76.8141 67.4C76.4874 67.904 76.3241 68.534 76.3241 69.29C76.3241 70.018 76.4874 70.634 76.8141 71.138C77.1501 71.642 77.6494 71.894 78.3121 71.894C78.7694 71.894 79.1474 71.7727 79.4461 71.53C79.7448 71.2873 79.9641 70.97 80.1041 70.578ZM87.0397 65.58H88.3977L88.4537 67.148L88.3137 66.938C88.5004 66.4433 88.7944 66.0653 89.1957 65.804C89.6064 65.5427 90.1057 65.412 90.6937 65.412C91.3937 65.412 91.9817 65.5893 92.4577 65.944C92.9337 66.2893 93.2884 66.756 93.5217 67.344C93.7644 67.9227 93.8857 68.5713 93.8857 69.29C93.8857 70.0087 93.7644 70.662 93.5217 71.25C93.2884 71.8287 92.9337 72.2953 92.4577 72.65C91.9817 72.9953 91.3937 73.168 90.6937 73.168C90.3017 73.168 89.947 73.112 89.6297 73C89.3217 72.8787 89.0557 72.7013 88.8317 72.468C88.617 72.2347 88.449 71.95 88.3277 71.614L88.4957 71.432V75.1H87.0397V65.58ZM88.3557 69.29C88.3557 69.7567 88.4257 70.186 88.5657 70.578C88.715 70.97 88.939 71.2873 89.2377 71.53C89.5364 71.7727 89.9097 71.894 90.3577 71.894C91.0204 71.894 91.515 71.6467 91.8417 71.152C92.1777 70.648 92.3457 70.0273 92.3457 69.29C92.3457 68.562 92.1777 67.946 91.8417 67.442C91.5057 66.938 91.011 66.686 90.3577 66.686C89.9097 66.686 89.5364 66.8073 89.2377 67.05C88.939 67.2927 88.715 67.61 88.5657 68.002C88.4257 68.394 88.3557 68.8233 88.3557 69.29ZM96.7336 65.58L96.7896 67.582L96.6776 67.484C96.7616 66.8213 96.9529 66.3407 97.2516 66.042C97.5503 65.734 97.9796 65.58 98.5396 65.58H99.2536V66.784H98.5256C98.1523 66.784 97.8396 66.854 97.5876 66.994C97.3356 67.134 97.1489 67.344 97.0276 67.624C96.9156 67.8947 96.8596 68.24 96.8596 68.66V73H95.4036V65.58H96.7336ZM103.319 73.168C102.61 73.168 101.989 73.0093 101.457 72.692C100.934 72.3747 100.528 71.9267 100.239 71.348C99.9495 70.76 99.8048 70.074 99.8048 69.29C99.8048 68.506 99.9495 67.8247 100.239 67.246C100.528 66.658 100.934 66.2053 101.457 65.888C101.989 65.5707 102.61 65.412 103.319 65.412C104.019 65.412 104.635 65.5707 105.167 65.888C105.699 66.2053 106.11 66.658 106.399 67.246C106.688 67.8247 106.833 68.506 106.833 69.29C106.833 70.074 106.688 70.76 106.399 71.348C106.11 71.9267 105.699 72.3747 105.167 72.692C104.635 73.0093 104.019 73.168 103.319 73.168ZM103.319 71.894C103.954 71.894 104.444 71.6653 104.789 71.208C105.144 70.7507 105.321 70.1113 105.321 69.29C105.321 68.4687 105.144 67.8293 104.789 67.372C104.444 66.9147 103.954 66.686 103.319 66.686C102.675 66.686 102.18 66.9147 101.835 67.372C101.49 67.8293 101.317 68.4687 101.317 69.29C101.317 70.1113 101.49 70.7507 101.835 71.208C102.18 71.6653 102.675 71.894 103.319 71.894ZM113.186 68.17C113.121 67.7127 112.925 67.3533 112.598 67.092C112.271 66.8213 111.893 66.686 111.464 66.686C110.82 66.686 110.325 66.9147 109.98 67.372C109.635 67.8293 109.462 68.4687 109.462 69.29C109.462 70.1113 109.635 70.7507 109.98 71.208C110.325 71.6653 110.82 71.894 111.464 71.894C111.921 71.894 112.309 71.754 112.626 71.474C112.953 71.1847 113.158 70.788 113.242 70.284L114.768 70.368C114.693 70.9373 114.497 71.4367 114.18 71.866C113.872 72.286 113.48 72.608 113.004 72.832C112.537 73.056 112.024 73.168 111.464 73.168C110.755 73.168 110.134 73.0093 109.602 72.692C109.079 72.3747 108.673 71.9267 108.384 71.348C108.095 70.76 107.95 70.074 107.95 69.29C107.95 68.506 108.095 67.8247 108.384 67.246C108.673 66.658 109.079 66.2053 109.602 65.888C110.134 65.5707 110.755 65.412 111.464 65.412C112.005 65.412 112.509 65.524 112.976 65.748C113.452 65.9627 113.839 66.2707 114.138 66.672C114.446 67.0733 114.633 67.5447 114.698 68.086L113.186 68.17ZM115.74 69.29C115.74 68.506 115.884 67.8247 116.174 67.246C116.463 66.658 116.874 66.2053 117.406 65.888C117.938 65.5707 118.554 65.412 119.254 65.412C119.86 65.412 120.406 65.5473 120.892 65.818C121.386 66.0887 121.783 66.5087 122.082 67.078C122.39 67.6473 122.558 68.3567 122.586 69.206L122.6 69.71H117.266C117.322 70.41 117.522 70.9513 117.868 71.334C118.213 71.7167 118.675 71.908 119.254 71.908C119.627 71.908 119.968 71.81 120.276 71.614C120.584 71.4087 120.812 71.1287 120.962 70.774L122.488 70.886C122.273 71.5767 121.867 72.132 121.27 72.552C120.682 72.9627 120.01 73.168 119.254 73.168C118.554 73.168 117.938 73.0093 117.406 72.692C116.874 72.3747 116.463 71.9267 116.174 71.348C115.884 70.76 115.74 70.074 115.74 69.29ZM121.06 68.59C120.966 67.9273 120.756 67.442 120.43 67.134C120.103 66.826 119.711 66.672 119.254 66.672C118.712 66.672 118.274 66.84 117.938 67.176C117.602 67.512 117.387 67.9833 117.294 68.59H121.06ZM128.453 67.904C128.378 67.5213 128.177 67.218 127.851 66.994C127.533 66.7607 127.174 66.644 126.773 66.644C126.381 66.644 126.054 66.742 125.793 66.938C125.531 67.1247 125.405 67.3767 125.415 67.694C125.415 67.9927 125.569 68.226 125.877 68.394C126.185 68.562 126.577 68.6927 127.053 68.786C127.725 68.9073 128.275 69.052 128.705 69.22C129.134 69.388 129.47 69.6213 129.713 69.92C129.955 70.2187 130.077 70.6013 130.077 71.068C130.077 71.5347 129.932 71.9267 129.643 72.244C129.363 72.552 128.994 72.7853 128.537 72.944C128.089 73.0933 127.599 73.168 127.067 73.168C126.441 73.168 125.881 73.0653 125.387 72.86C124.892 72.6547 124.5 72.3653 124.211 71.992C123.921 71.6093 123.758 71.166 123.721 70.662L125.219 70.564C125.275 70.8533 125.377 71.1007 125.527 71.306C125.685 71.502 125.891 71.656 126.143 71.768C126.404 71.8707 126.707 71.922 127.053 71.922C127.445 71.922 127.795 71.852 128.103 71.712C128.411 71.5627 128.565 71.3293 128.565 71.012C128.555 70.788 128.485 70.6107 128.355 70.48C128.233 70.3493 128.079 70.2513 127.893 70.186C127.706 70.1207 127.449 70.0553 127.123 69.99C127.048 69.9807 126.941 69.9573 126.801 69.92C126.175 69.7893 125.662 69.6493 125.261 69.5C124.859 69.3413 124.533 69.122 124.281 68.842C124.029 68.5527 123.903 68.1887 123.903 67.75C123.903 67.274 124.024 66.8633 124.267 66.518C124.509 66.1633 124.855 65.8927 125.303 65.706C125.76 65.51 126.292 65.412 126.899 65.412C127.692 65.412 128.369 65.6313 128.929 66.07C129.489 66.4993 129.829 67.0827 129.951 67.82L128.453 67.904ZM135.928 67.904C135.853 67.5213 135.653 67.218 135.326 66.994C135.009 66.7607 134.649 66.644 134.248 66.644C133.856 66.644 133.529 66.742 133.268 66.938C133.007 67.1247 132.881 67.3767 132.89 67.694C132.89 67.9927 133.044 68.226 133.352 68.394C133.66 68.562 134.052 68.6927 134.528 68.786C135.2 68.9073 135.751 69.052 136.18 69.22C136.609 69.388 136.945 69.6213 137.188 69.92C137.431 70.2187 137.552 70.6013 137.552 71.068C137.552 71.5347 137.407 71.9267 137.118 72.244C136.838 72.552 136.469 72.7853 136.012 72.944C135.564 73.0933 135.074 73.168 134.542 73.168C133.917 73.168 133.357 73.0653 132.862 72.86C132.367 72.6547 131.975 72.3653 131.686 71.992C131.397 71.6093 131.233 71.166 131.196 70.662L132.694 70.564C132.75 70.8533 132.853 71.1007 133.002 71.306C133.161 71.502 133.366 71.656 133.618 71.768C133.879 71.8707 134.183 71.922 134.528 71.922C134.92 71.922 135.27 71.852 135.578 71.712C135.886 71.5627 136.04 71.3293 136.04 71.012C136.031 70.788 135.961 70.6107 135.83 70.48C135.709 70.3493 135.555 70.2513 135.368 70.186C135.181 70.1207 134.925 70.0553 134.598 69.99C134.523 69.9807 134.416 69.9573 134.276 69.92C133.651 69.7893 133.137 69.6493 132.736 69.5C132.335 69.3413 132.008 69.122 131.756 68.842C131.504 68.5527 131.378 68.1887 131.378 67.75C131.378 67.274 131.499 66.8633 131.742 66.518C131.985 66.1633 132.33 65.8927 132.778 65.706C133.235 65.51 133.767 65.412 134.374 65.412C135.167 65.412 135.844 65.6313 136.404 66.07C136.964 66.4993 137.305 67.0827 137.426 67.82L135.928 67.904ZM140.535 65.58V73H139.079V65.58H140.535ZM140.577 63.06V64.474H139.065V63.06H140.577ZM143.755 65.58L143.825 67.554L143.643 67.4C143.765 66.728 144.04 66.2287 144.469 65.902C144.908 65.5753 145.44 65.412 146.065 65.412C146.868 65.412 147.484 65.6733 147.913 66.196C148.352 66.7093 148.571 67.386 148.571 68.226V73H147.115V68.66C147.115 68.212 147.069 67.8433 146.975 67.554C146.882 67.2553 146.728 67.0313 146.513 66.882C146.308 66.7233 146.033 66.644 145.687 66.644C145.127 66.644 144.689 66.8167 144.371 67.162C144.054 67.5073 143.895 68.0067 143.895 68.66V73H142.439V65.58H143.755ZM153.235 72.622C152.563 72.622 151.975 72.4727 151.471 72.174C150.976 71.866 150.593 71.4413 150.323 70.9C150.052 70.3493 149.917 69.7287 149.917 69.038C149.917 68.338 150.052 67.7127 150.323 67.162C150.603 66.6113 150.995 66.182 151.499 65.874C152.003 65.566 152.581 65.412 153.235 65.412C153.711 65.412 154.135 65.5333 154.509 65.776C154.891 66.0093 155.167 66.3267 155.335 66.728V65.58H156.735V72.23C156.735 72.874 156.59 73.42 156.301 73.868C156.021 74.3253 155.624 74.6707 155.111 74.904C154.597 75.1467 154.005 75.268 153.333 75.268C152.801 75.268 152.311 75.1793 151.863 75.002C151.415 74.8247 151.041 74.5727 150.743 74.246C150.444 73.9287 150.234 73.5553 150.113 73.126L151.625 73.028C151.765 73.3453 151.979 73.5927 152.269 73.77C152.567 73.9473 152.927 74.036 153.347 74.036C153.963 74.036 154.439 73.9007 154.775 73.63C155.111 73.3687 155.279 72.986 155.279 72.482V71.39C155.073 71.782 154.779 72.0853 154.397 72.3C154.023 72.5147 153.636 72.622 153.235 72.622ZM151.429 69.038C151.429 69.4953 151.508 69.9013 151.667 70.256C151.825 70.6107 152.049 70.8907 152.339 71.096C152.637 71.292 152.983 71.39 153.375 71.39C153.767 71.39 154.107 71.292 154.397 71.096C154.686 70.8907 154.91 70.6107 155.069 70.256C155.237 69.9013 155.321 69.4953 155.321 69.038C155.321 68.5807 155.241 68.1747 155.083 67.82C154.933 67.4653 154.709 67.19 154.411 66.994C154.121 66.7887 153.776 66.686 153.375 66.686C152.973 66.686 152.628 66.7887 152.339 66.994C152.049 67.19 151.825 67.4653 151.667 67.82C151.508 68.1747 151.429 68.5807 151.429 69.038Z" fill="#24292F"/>
<g clip-path="url(#clip2_562_291)">
<rect x="362" y="60.5" width="28" height="16" rx="8" fill="#B2B7C2"/>
<g filter="url(#filter2_dd_562_291)">
<circle cx="370" cy="68.5" r="6" fill="white"/>
</g>
</g>
<rect width="404" height="45" transform="translate(2 91)" fill="white"/>
<mask id="path-13-inside-3_562_291" fill="white">
<path d="M2 91H406V136H2V91Z"/>
</mask>
<path d="M2 91H406V136H2V91Z" fill="#FAFAFB"/>
<path d="M406 135H2V137H406V135Z" fill="#E4E4E7" mask="url(#path-13-inside-3_562_291)"/>
<path d="M25.644 108.06V109.432H19.918L20.702 108.634V113.184L19.918 112.47H25.392V113.814H19.918L20.702 113.1V118H19.218V108.06H25.644ZM26.9422 112.792C27.0915 112.055 27.4415 111.476 27.9922 111.056C28.5428 110.627 29.2428 110.412 30.0922 110.412C31.1002 110.412 31.8702 110.683 32.4022 111.224C32.9342 111.756 33.2002 112.531 33.2002 113.548V116.348C33.2002 116.516 33.2375 116.637 33.3122 116.712C33.3868 116.787 33.4988 116.824 33.6482 116.824H33.9562V118H33.4662H33.4102C33.1488 118 32.9062 117.972 32.6822 117.916C32.4582 117.86 32.2668 117.748 32.1082 117.58C31.9495 117.412 31.8655 117.174 31.8562 116.866C31.6788 117.239 31.3848 117.552 30.9742 117.804C30.5635 118.047 30.0688 118.168 29.4902 118.168C28.7155 118.168 28.0762 117.977 27.5722 117.594C27.0682 117.211 26.8162 116.698 26.8162 116.054C26.8162 115.578 26.9235 115.195 27.1382 114.906C27.3622 114.617 27.6702 114.393 28.0622 114.234C28.4635 114.075 28.9815 113.935 29.6162 113.814L31.7442 113.394C31.7348 112.797 31.5948 112.353 31.3242 112.064C31.0535 111.775 30.6428 111.63 30.0922 111.63C29.6628 111.63 29.3082 111.737 29.0282 111.952C28.7482 112.167 28.5522 112.479 28.4402 112.89L26.9422 112.792ZM28.3282 116.026C28.3282 116.315 28.4495 116.553 28.6922 116.74C28.9442 116.927 29.3035 117.02 29.7702 117.02C30.1528 117.02 30.4935 116.931 30.7922 116.754C31.1002 116.567 31.3382 116.292 31.5062 115.928C31.6835 115.564 31.7722 115.121 31.7722 114.598V114.528L30.1762 114.808L29.9102 114.85C29.5275 114.925 29.2335 114.995 29.0282 115.06C28.8228 115.116 28.6548 115.223 28.5242 115.382C28.3935 115.541 28.3282 115.755 28.3282 116.026ZM39.5156 112.904C39.4409 112.521 39.2403 112.218 38.9136 111.994C38.5963 111.761 38.2369 111.644 37.8356 111.644C37.4436 111.644 37.1169 111.742 36.8556 111.938C36.5943 112.125 36.4683 112.377 36.4776 112.694C36.4776 112.993 36.6316 113.226 36.9396 113.394C37.2476 113.562 37.6396 113.693 38.1156 113.786C38.7876 113.907 39.3383 114.052 39.7676 114.22C40.1969 114.388 40.5329 114.621 40.7756 114.92C41.0183 115.219 41.1396 115.601 41.1396 116.068C41.1396 116.535 40.9949 116.927 40.7056 117.244C40.4256 117.552 40.0569 117.785 39.5996 117.944C39.1516 118.093 38.6616 118.168 38.1296 118.168C37.5043 118.168 36.9443 118.065 36.4496 117.86C35.9549 117.655 35.5629 117.365 35.2736 116.992C34.9843 116.609 34.8209 116.166 34.7836 115.662L36.2816 115.564C36.3376 115.853 36.4403 116.101 36.5896 116.306C36.7483 116.502 36.9536 116.656 37.2056 116.768C37.4669 116.871 37.7703 116.922 38.1156 116.922C38.5076 116.922 38.8576 116.852 39.1656 116.712C39.4736 116.563 39.6276 116.329 39.6276 116.012C39.6183 115.788 39.5483 115.611 39.4176 115.48C39.2963 115.349 39.1423 115.251 38.9556 115.186C38.7689 115.121 38.5123 115.055 38.1856 114.99C38.1109 114.981 38.0036 114.957 37.8636 114.92C37.2383 114.789 36.7249 114.649 36.3236 114.5C35.9223 114.341 35.5956 114.122 35.3436 113.842C35.0916 113.553 34.9656 113.189 34.9656 112.75C34.9656 112.274 35.0869 111.863 35.3296 111.518C35.5723 111.163 35.9176 110.893 36.3656 110.706C36.8229 110.51 37.3549 110.412 37.9616 110.412C38.7549 110.412 39.4316 110.631 39.9916 111.07C40.5516 111.499 40.8923 112.083 41.0136 112.82L39.5156 112.904ZM44.5647 108.9V115.886C44.5647 116.185 44.6347 116.413 44.7747 116.572C44.924 116.721 45.1433 116.796 45.4327 116.796H46.5247V118H45.3067C44.588 118 44.042 117.818 43.6687 117.454C43.2953 117.09 43.1087 116.567 43.1087 115.886V108.9H44.5647ZM46.5387 110.58V111.784H41.9887V110.58H46.5387ZM56.0332 113.17C55.9679 112.713 55.7719 112.353 55.4452 112.092C55.1185 111.821 54.7405 111.686 54.3112 111.686C53.6672 111.686 53.1725 111.915 52.8272 112.372C52.4819 112.829 52.3092 113.469 52.3092 114.29C52.3092 115.111 52.4819 115.751 52.8272 116.208C53.1725 116.665 53.6672 116.894 54.3112 116.894C54.7685 116.894 55.1559 116.754 55.4732 116.474C55.7999 116.185 56.0052 115.788 56.0892 115.284L57.6152 115.368C57.5405 115.937 57.3445 116.437 57.0272 116.866C56.7192 117.286 56.3272 117.608 55.8512 117.832C55.3845 118.056 54.8712 118.168 54.3112 118.168C53.6019 118.168 52.9812 118.009 52.4492 117.692C51.9265 117.375 51.5205 116.927 51.2312 116.348C50.9419 115.76 50.7972 115.074 50.7972 114.29C50.7972 113.506 50.9419 112.825 51.2312 112.246C51.5205 111.658 51.9265 111.205 52.4492 110.888C52.9812 110.571 53.6019 110.412 54.3112 110.412C54.8525 110.412 55.3565 110.524 55.8232 110.748C56.2992 110.963 56.6865 111.271 56.9852 111.672C57.2932 112.073 57.4799 112.545 57.5452 113.086L56.0332 113.17ZM60.4508 108.06V112.232L60.2408 112.134C60.3902 111.555 60.6795 111.126 61.1088 110.846C61.5382 110.557 62.0468 110.412 62.6348 110.412C63.4375 110.412 64.0535 110.673 64.4828 111.196C64.9122 111.719 65.1268 112.395 65.1268 113.226V118H63.6708V113.73C63.6708 113.282 63.6242 112.913 63.5308 112.624C63.4375 112.325 63.2835 112.101 63.0688 111.952C62.8635 111.793 62.5882 111.714 62.2428 111.714C61.6828 111.714 61.2442 111.887 60.9268 112.232C60.6095 112.577 60.4508 113.077 60.4508 113.73V118H58.9948V108.06H60.4508ZM66.7897 112.792C66.939 112.055 67.289 111.476 67.8397 111.056C68.3903 110.627 69.0903 110.412 69.9397 110.412C70.9477 110.412 71.7177 110.683 72.2497 111.224C72.7817 111.756 73.0477 112.531 73.0477 113.548V116.348C73.0477 116.516 73.085 116.637 73.1597 116.712C73.2343 116.787 73.3463 116.824 73.4957 116.824H73.8037V118H73.3137H73.2577C72.9963 118 72.7537 117.972 72.5297 117.916C72.3057 117.86 72.1143 117.748 71.9557 117.58C71.797 117.412 71.713 117.174 71.7037 116.866C71.5263 117.239 71.2323 117.552 70.8217 117.804C70.411 118.047 69.9163 118.168 69.3377 118.168C68.563 118.168 67.9237 117.977 67.4197 117.594C66.9157 117.211 66.6637 116.698 66.6637 116.054C66.6637 115.578 66.771 115.195 66.9857 114.906C67.2097 114.617 67.5177 114.393 67.9097 114.234C68.311 114.075 68.829 113.935 69.4637 113.814L71.5917 113.394C71.5823 112.797 71.4423 112.353 71.1717 112.064C70.901 111.775 70.4903 111.63 69.9397 111.63C69.5103 111.63 69.1557 111.737 68.8757 111.952C68.5957 112.167 68.3997 112.479 68.2877 112.89L66.7897 112.792ZM68.1757 116.026C68.1757 116.315 68.297 116.553 68.5397 116.74C68.7917 116.927 69.151 117.02 69.6177 117.02C70.0003 117.02 70.341 116.931 70.6397 116.754C70.9477 116.567 71.1857 116.292 71.3537 115.928C71.531 115.564 71.6197 115.121 71.6197 114.598V114.528L70.0237 114.808L69.7577 114.85C69.375 114.925 69.081 114.995 68.8757 115.06C68.6703 115.116 68.5023 115.223 68.3717 115.382C68.241 115.541 68.1757 115.755 68.1757 116.026ZM76.4784 110.58L76.5344 112.582L76.4224 112.484C76.5064 111.821 76.6978 111.341 76.9964 111.042C77.2951 110.734 77.7244 110.58 78.2844 110.58H78.9984V111.784H78.2704C77.8971 111.784 77.5844 111.854 77.3324 111.994C77.0804 112.134 76.8938 112.344 76.7724 112.624C76.6604 112.895 76.6044 113.24 76.6044 113.66V118H75.1484V110.58H76.4784ZM82.8677 117.622C82.1957 117.622 81.6077 117.473 81.1037 117.174C80.609 116.866 80.2264 116.441 79.9557 115.9C79.685 115.349 79.5497 114.729 79.5497 114.038C79.5497 113.338 79.685 112.713 79.9557 112.162C80.2357 111.611 80.6277 111.182 81.1317 110.874C81.6357 110.566 82.2144 110.412 82.8677 110.412C83.3437 110.412 83.7684 110.533 84.1417 110.776C84.5244 111.009 84.7997 111.327 84.9677 111.728V110.58H86.3677V117.23C86.3677 117.874 86.223 118.42 85.9337 118.868C85.6537 119.325 85.257 119.671 84.7437 119.904C84.2304 120.147 83.6377 120.268 82.9657 120.268C82.4337 120.268 81.9437 120.179 81.4957 120.002C81.0477 119.825 80.6744 119.573 80.3757 119.246C80.077 118.929 79.867 118.555 79.7457 118.126L81.2577 118.028C81.3977 118.345 81.6124 118.593 81.9017 118.77C82.2004 118.947 82.5597 119.036 82.9797 119.036C83.5957 119.036 84.0717 118.901 84.4077 118.63C84.7437 118.369 84.9117 117.986 84.9117 117.482V116.39C84.7064 116.782 84.4124 117.085 84.0297 117.3C83.6564 117.515 83.269 117.622 82.8677 117.622ZM81.0617 114.038C81.0617 114.495 81.141 114.901 81.2997 115.256C81.4584 115.611 81.6824 115.891 81.9717 116.096C82.2704 116.292 82.6157 116.39 83.0077 116.39C83.3997 116.39 83.7404 116.292 84.0297 116.096C84.319 115.891 84.543 115.611 84.7017 115.256C84.8697 114.901 84.9537 114.495 84.9537 114.038C84.9537 113.581 84.8744 113.175 84.7157 112.82C84.5664 112.465 84.3424 112.19 84.0437 111.994C83.7544 111.789 83.409 111.686 83.0077 111.686C82.6064 111.686 82.261 111.789 81.9717 111.994C81.6824 112.19 81.4584 112.465 81.2997 112.82C81.141 113.175 81.0617 113.581 81.0617 114.038ZM89.9416 110.58V118H88.4856V110.58H89.9416ZM89.9836 108.06V109.474H88.4716V108.06H89.9836ZM93.1616 110.58L93.2316 112.554L93.0496 112.4C93.171 111.728 93.4463 111.229 93.8756 110.902C94.3143 110.575 94.8463 110.412 95.4716 110.412C96.2743 110.412 96.8903 110.673 97.3196 111.196C97.7583 111.709 97.9776 112.386 97.9776 113.226V118H96.5216V113.66C96.5216 113.212 96.475 112.843 96.3816 112.554C96.2883 112.255 96.1343 112.031 95.9196 111.882C95.7143 111.723 95.439 111.644 95.0936 111.644C94.5336 111.644 94.095 111.817 93.7776 112.162C93.4603 112.507 93.3016 113.007 93.3016 113.66V118H91.8456V110.58H93.1616ZM102.641 117.622C101.969 117.622 101.381 117.473 100.877 117.174C100.382 116.866 99.9997 116.441 99.729 115.9C99.4584 115.349 99.323 114.729 99.323 114.038C99.323 113.338 99.4584 112.713 99.729 112.162C100.009 111.611 100.401 111.182 100.905 110.874C101.409 110.566 101.988 110.412 102.641 110.412C103.117 110.412 103.542 110.533 103.915 110.776C104.298 111.009 104.573 111.327 104.741 111.728V110.58H106.141V117.23C106.141 117.874 105.996 118.42 105.707 118.868C105.427 119.325 105.03 119.671 104.517 119.904C104.004 120.147 103.411 120.268 102.739 120.268C102.207 120.268 101.717 120.179 101.269 120.002C100.821 119.825 100.448 119.573 100.149 119.246C99.8504 118.929 99.6404 118.555 99.519 118.126L101.031 118.028C101.171 118.345 101.386 118.593 101.675 118.77C101.974 118.947 102.333 119.036 102.753 119.036C103.369 119.036 103.845 118.901 104.181 118.63C104.517 118.369 104.685 117.986 104.685 117.482V116.39C104.48 116.782 104.186 117.085 103.803 117.3C103.43 117.515 103.042 117.622 102.641 117.622ZM100.835 114.038C100.835 114.495 100.914 114.901 101.073 115.256C101.232 115.611 101.456 115.891 101.745 116.096C102.044 116.292 102.389 116.39 102.781 116.39C103.173 116.39 103.514 116.292 103.803 116.096C104.092 115.891 104.316 115.611 104.475 115.256C104.643 114.901 104.727 114.495 104.727 114.038C104.727 113.581 104.648 113.175 104.489 112.82C104.34 112.465 104.116 112.19 103.817 111.994C103.528 111.789 103.182 111.686 102.781 111.686C102.38 111.686 102.034 111.789 101.745 111.994C101.456 112.19 101.232 112.465 101.073 112.82C100.914 113.175 100.835 113.581 100.835 114.038Z" fill="#24292F"/>
<g clip-path="url(#clip3_562_291)">
<rect x="362" y="105.5" width="28" height="16" rx="8" fill="#B2B7C2"/>
<g filter="url(#filter3_dd_562_291)">
<circle cx="370" cy="113.5" r="6" fill="white"/>
</g>
</g>
<rect width="404" height="45" transform="translate(2 136)" fill="white"/>
<mask id="path-18-inside-4_562_291" fill="white">
<path d="M2 136H406V181H2V136Z"/>
</mask>
<path d="M2 136H406V181H2V136Z" fill="#FAFAFB"/>
<path d="M406 180H2V182H406V180Z" fill="#E4E4E7" mask="url(#path-18-inside-4_562_291)"/>
<path d="M22.9 153.06C23.6467 153.06 24.2907 153.181 24.832 153.424C25.3733 153.667 25.7887 154.021 26.078 154.488C26.3673 154.945 26.512 155.496 26.512 156.14C26.512 156.784 26.3673 157.344 26.078 157.82C25.7887 158.287 25.3733 158.646 24.832 158.898C24.2907 159.141 23.6467 159.262 22.9 159.262H20.702V163H19.218V153.06H22.9ZM22.872 157.89C23.5627 157.89 24.0853 157.745 24.44 157.456C24.7947 157.157 24.972 156.719 24.972 156.14C24.972 155.571 24.7947 155.146 24.44 154.866C24.0853 154.577 23.5627 154.432 22.872 154.432H20.702V157.89H22.872ZM29.3881 155.58L29.4441 157.582L29.3321 157.484C29.4161 156.821 29.6075 156.341 29.9061 156.042C30.2048 155.734 30.6341 155.58 31.1941 155.58H31.9081V156.784H31.1801C30.8068 156.784 30.4941 156.854 30.2421 156.994C29.9901 157.134 29.8035 157.344 29.6821 157.624C29.5701 157.895 29.5141 158.24 29.5141 158.66V163H28.0581V155.58H29.3881ZM35.9734 163.168C35.264 163.168 34.6434 163.009 34.1114 162.692C33.5887 162.375 33.1827 161.927 32.8934 161.348C32.604 160.76 32.4594 160.074 32.4594 159.29C32.4594 158.506 32.604 157.825 32.8934 157.246C33.1827 156.658 33.5887 156.205 34.1114 155.888C34.6434 155.571 35.264 155.412 35.9734 155.412C36.6734 155.412 37.2894 155.571 37.8214 155.888C38.3534 156.205 38.764 156.658 39.0534 157.246C39.3427 157.825 39.4874 158.506 39.4874 159.29C39.4874 160.074 39.3427 160.76 39.0534 161.348C38.764 161.927 38.3534 162.375 37.8214 162.692C37.2894 163.009 36.6734 163.168 35.9734 163.168ZM35.9734 161.894C36.608 161.894 37.098 161.665 37.4434 161.208C37.798 160.751 37.9754 160.111 37.9754 159.29C37.9754 158.469 37.798 157.829 37.4434 157.372C37.098 156.915 36.608 156.686 35.9734 156.686C35.3294 156.686 34.8347 156.915 34.4894 157.372C34.144 157.829 33.9714 158.469 33.9714 159.29C33.9714 160.111 34.144 160.751 34.4894 161.208C34.8347 161.665 35.3294 161.894 35.9734 161.894ZM42.9104 153.9V160.886C42.9104 161.185 42.9804 161.413 43.1204 161.572C43.2697 161.721 43.489 161.796 43.7784 161.796H44.8704V163H43.6524C42.9337 163 42.3877 162.818 42.0144 162.454C41.641 162.09 41.4544 161.567 41.4544 160.886V153.9H42.9104ZM44.8844 155.58V156.784H40.3344V155.58H44.8844ZM45.5915 159.29C45.5915 158.506 45.7362 157.825 46.0255 157.246C46.3148 156.658 46.7255 156.205 47.2575 155.888C47.7895 155.571 48.4055 155.412 49.1055 155.412C49.7122 155.412 50.2582 155.547 50.7435 155.818C51.2382 156.089 51.6348 156.509 51.9335 157.078C52.2415 157.647 52.4095 158.357 52.4375 159.206L52.4515 159.71H47.1175C47.1735 160.41 47.3742 160.951 47.7195 161.334C48.0648 161.717 48.5268 161.908 49.1055 161.908C49.4788 161.908 49.8195 161.81 50.1275 161.614C50.4355 161.409 50.6642 161.129 50.8135 160.774L52.3395 160.886C52.1248 161.577 51.7188 162.132 51.1215 162.552C50.5335 162.963 49.8615 163.168 49.1055 163.168C48.4055 163.168 47.7895 163.009 47.2575 162.692C46.7255 162.375 46.3148 161.927 46.0255 161.348C45.7362 160.76 45.5915 160.074 45.5915 159.29ZM50.9115 158.59C50.8182 157.927 50.6082 157.442 50.2815 157.134C49.9548 156.826 49.5628 156.672 49.1055 156.672C48.5642 156.672 48.1255 156.84 47.7895 157.176C47.4535 157.512 47.2388 157.983 47.1455 158.59H50.9115ZM58.8086 158.17C58.7432 157.713 58.5472 157.353 58.2206 157.092C57.8939 156.821 57.5159 156.686 57.0866 156.686C56.4426 156.686 55.9479 156.915 55.6026 157.372C55.2572 157.829 55.0846 158.469 55.0846 159.29C55.0846 160.111 55.2572 160.751 55.6026 161.208C55.9479 161.665 56.4426 161.894 57.0866 161.894C57.5439 161.894 57.9312 161.754 58.2486 161.474C58.5752 161.185 58.7806 160.788 58.8646 160.284L60.3906 160.368C60.3159 160.937 60.1199 161.437 59.8026 161.866C59.4946 162.286 59.1026 162.608 58.6266 162.832C58.1599 163.056 57.6466 163.168 57.0866 163.168C56.3772 163.168 55.7566 163.009 55.2246 162.692C54.7019 162.375 54.2959 161.927 54.0066 161.348C53.7172 160.76 53.5726 160.074 53.5726 159.29C53.5726 158.506 53.7172 157.825 54.0066 157.246C54.2959 156.658 54.7019 156.205 55.2246 155.888C55.7566 155.571 56.3772 155.412 57.0866 155.412C57.6279 155.412 58.1319 155.524 58.5986 155.748C59.0746 155.963 59.4619 156.271 59.7606 156.672C60.0686 157.073 60.2552 157.545 60.3206 158.086L58.8086 158.17ZM63.6681 153.9V160.886C63.6681 161.185 63.7381 161.413 63.8781 161.572C64.0274 161.721 64.2468 161.796 64.5361 161.796H65.6281V163H64.4101C63.6914 163 63.1454 162.818 62.7721 162.454C62.3988 162.09 62.2121 161.567 62.2121 160.886V153.9H63.6681ZM65.6421 155.58V156.784H61.0921V155.58H65.6421ZM71.8466 153.06V156.546C72.0706 156.182 72.3693 155.902 72.7426 155.706C73.116 155.51 73.5686 155.412 74.1006 155.412C74.782 155.412 75.356 155.589 75.8226 155.944C76.2986 156.289 76.6533 156.756 76.8866 157.344C77.12 157.932 77.2366 158.581 77.2366 159.29C77.2366 159.999 77.12 160.648 76.8866 161.236C76.6533 161.824 76.2986 162.295 75.8226 162.65C75.356 162.995 74.782 163.168 74.1006 163.168C73.55 163.168 73.0786 163.065 72.6866 162.86C72.2946 162.645 71.996 162.347 71.7906 161.964L71.7486 163H70.3906V153.06H71.8466ZM71.7346 159.29C71.7346 159.757 71.8046 160.186 71.9446 160.578C72.0846 160.97 72.304 161.287 72.6026 161.53C72.9013 161.773 73.2793 161.894 73.7366 161.894C74.3993 161.894 74.894 161.642 75.2206 161.138C75.5566 160.634 75.7246 160.018 75.7246 159.29C75.7246 158.534 75.5566 157.904 75.2206 157.4C74.894 156.896 74.3993 156.644 73.7366 156.644C73.2793 156.644 72.9013 156.765 72.6026 157.008C72.304 157.251 72.0846 157.573 71.9446 157.974C71.8046 158.366 71.7346 158.805 71.7346 159.29ZM78.5546 157.792C78.7039 157.055 79.0539 156.476 79.6046 156.056C80.1553 155.627 80.8553 155.412 81.7046 155.412C82.7126 155.412 83.4826 155.683 84.0146 156.224C84.5466 156.756 84.8126 157.531 84.8126 158.548V161.348C84.8126 161.516 84.8499 161.637 84.9246 161.712C84.9993 161.787 85.1113 161.824 85.2606 161.824H85.5686V163H85.0786H85.0226C84.7613 163 84.5186 162.972 84.2946 162.916C84.0706 162.86 83.8793 162.748 83.7206 162.58C83.5619 162.412 83.4779 162.174 83.4686 161.866C83.2913 162.239 82.9973 162.552 82.5866 162.804C82.1759 163.047 81.6813 163.168 81.1026 163.168C80.3279 163.168 79.6886 162.977 79.1846 162.594C78.6806 162.211 78.4286 161.698 78.4286 161.054C78.4286 160.578 78.5359 160.195 78.7506 159.906C78.9746 159.617 79.2826 159.393 79.6746 159.234C80.0759 159.075 80.5939 158.935 81.2286 158.814L83.3566 158.394C83.3473 157.797 83.2073 157.353 82.9366 157.064C82.6659 156.775 82.2553 156.63 81.7046 156.63C81.2753 156.63 80.9206 156.737 80.6406 156.952C80.3606 157.167 80.1646 157.479 80.0526 157.89L78.5546 157.792ZM79.9406 161.026C79.9406 161.315 80.0619 161.553 80.3046 161.74C80.5566 161.927 80.9159 162.02 81.3826 162.02C81.7653 162.02 82.1059 161.931 82.4046 161.754C82.7126 161.567 82.9506 161.292 83.1186 160.928C83.2959 160.564 83.3846 160.121 83.3846 159.598V159.528L81.7886 159.808L81.5226 159.85C81.1399 159.925 80.8459 159.995 80.6406 160.06C80.4353 160.116 80.2673 160.223 80.1366 160.382C80.0059 160.541 79.9406 160.755 79.9406 161.026ZM88.5651 153.9V160.886C88.5651 161.185 88.6351 161.413 88.7751 161.572C88.9245 161.721 89.1438 161.796 89.4331 161.796H90.5251V163H89.3071C88.5885 163 88.0425 162.818 87.6691 162.454C87.2958 162.09 87.1091 161.567 87.1091 160.886V153.9H88.5651ZM90.5391 155.58V156.784H85.9891V155.58H90.5391ZM93.0871 153.9V160.886C93.0871 161.185 93.1571 161.413 93.2971 161.572C93.4465 161.721 93.6658 161.796 93.9551 161.796H95.0471V163H93.8291C93.1105 163 92.5645 162.818 92.1911 162.454C91.8178 162.09 91.6311 161.567 91.6311 160.886V153.9H93.0871ZM95.0611 155.58V156.784H90.5111V155.58H95.0611ZM95.7716 159.29C95.7716 158.506 95.9163 157.825 96.2056 157.246C96.495 156.658 96.9056 156.205 97.4376 155.888C97.9696 155.571 98.5856 155.412 99.2856 155.412C99.8923 155.412 100.438 155.547 100.924 155.818C101.418 156.089 101.815 156.509 102.114 157.078C102.422 157.647 102.59 158.357 102.618 159.206L102.632 159.71H97.2976C97.3536 160.41 97.5543 160.951 97.8996 161.334C98.245 161.717 98.707 161.908 99.2856 161.908C99.659 161.908 99.9996 161.81 100.308 161.614C100.616 161.409 100.844 161.129 100.994 160.774L102.52 160.886C102.305 161.577 101.899 162.132 101.302 162.552C100.714 162.963 100.042 163.168 99.2856 163.168C98.5856 163.168 97.9696 163.009 97.4376 162.692C96.9056 162.375 96.495 161.927 96.2056 161.348C95.9163 160.76 95.7716 160.074 95.7716 159.29ZM101.092 158.59C100.998 157.927 100.788 157.442 100.462 157.134C100.135 156.826 99.743 156.672 99.2856 156.672C98.7443 156.672 98.3056 156.84 97.9696 157.176C97.6336 157.512 97.419 157.983 97.3256 158.59H101.092ZM105.491 155.58L105.547 157.582L105.435 157.484C105.519 156.821 105.71 156.341 106.009 156.042C106.307 155.734 106.737 155.58 107.297 155.58H108.011V156.784H107.283C106.909 156.784 106.597 156.854 106.345 156.994C106.093 157.134 105.906 157.344 105.785 157.624C105.673 157.895 105.617 158.24 105.617 158.66V163H104.161V155.58H105.491ZM110.285 155.58L112.399 161.46L114.443 155.58H115.913L112.945 163.868C112.795 164.297 112.576 164.61 112.287 164.806C111.997 165.002 111.624 165.1 111.167 165.1H110.159V163.91H110.971C111.157 163.91 111.307 163.868 111.419 163.784C111.54 163.709 111.633 163.588 111.699 163.42L111.951 162.79H111.489L108.801 155.58H110.285Z" fill="#24292F"/>
<g clip-path="url(#clip4_562_291)">
<rect x="362" y="150.5" width="28" height="16" rx="8" fill="#12B76A"/>
<g filter="url(#filter4_dd_562_291)">
<circle cx="382" cy="158.5" r="6" fill="white"/>
</g>
</g>
</g>
<rect x="2.5" y="1.5" width="403" height="179" rx="5.5" stroke="#E4E4E7"/>
</g>
<defs>
<filter id="filter0_d_562_291" x="0" y="0" width="408" height="184" filterUnits="userSpaceOnUse" color-interpolation-filters="sRGB">
<feFlood flood-opacity="0" result="BackgroundImageFix"/>
<feColorMatrix in="SourceAlpha" type="matrix" values="0 0 0 0 0 0 0 0 0 0 0 0 0 0 0 0 0 0 127 0" result="hardAlpha"/>
<feOffset dy="1"/>
<feGaussianBlur stdDeviation="1"/>
<feColorMatrix type="matrix" values="0 0 0 0 0.0627451 0 0 0 0 0.0941176 0 0 0 0 0.156863 0 0 0 0.05 0"/>
<feBlend mode="normal" in2="BackgroundImageFix" result="effect1_dropShadow_562_291"/>
<feBlend mode="normal" in="SourceGraphic" in2="effect1_dropShadow_562_291" result="shape"/>
</filter>
<filter id="filter1_dd_562_291" x="361" y="15.5" width="18" height="18" filterUnits="userSpaceOnUse" color-interpolation-filters="sRGB">
<feFlood flood-opacity="0" result="BackgroundImageFix"/>
<feColorMatrix in="SourceAlpha" type="matrix" values="0 0 0 0 0 0 0 0 0 0 0 0 0 0 0 0 0 0 127 0" result="hardAlpha"/>
<feOffset dy="1"/>
<feGaussianBlur stdDeviation="1"/>
<feColorMatrix type="matrix" values="0 0 0 0 0.0627451 0 0 0 0 0.0941176 0 0 0 0 0.156863 0 0 0 0.06 0"/>
<feBlend mode="normal" in2="BackgroundImageFix" result="effect1_dropShadow_562_291"/>
<feColorMatrix in="SourceAlpha" type="matrix" values="0 0 0 0 0 0 0 0 0 0 0 0 0 0 0 0 0 0 127 0" result="hardAlpha"/>
<feOffset dy="1"/>
<feGaussianBlur stdDeviation="1.5"/>
<feColorMatrix type="matrix" values="0 0 0 0 0.0627451 0 0 0 0 0.0941176 0 0 0 0 0.156863 0 0 0 0.1 0"/>
<feBlend mode="normal" in2="effect1_dropShadow_562_291" result="effect2_dropShadow_562_291"/>
<feBlend mode="normal" in="SourceGraphic" in2="effect2_dropShadow_562_291" result="shape"/>
</filter>
<filter id="filter2_dd_562_291" x="361" y="60.5" width="18" height="18" filterUnits="userSpaceOnUse" color-interpolation-filters="sRGB">
<feFlood flood-opacity="0" result="BackgroundImageFix"/>
<feColorMatrix in="SourceAlpha" type="matrix" values="0 0 0 0 0 0 0 0 0 0 0 0 0 0 0 0 0 0 127 0" result="hardAlpha"/>
<feOffset dy="1"/>
<feGaussianBlur stdDeviation="1"/>
<feColorMatrix type="matrix" values="0 0 0 0 0.0627451 0 0 0 0 0.0941176 0 0 0 0 0.156863 0 0 0 0.06 0"/>
<feBlend mode="normal" in2="BackgroundImageFix" result="effect1_dropShadow_562_291"/>
<feColorMatrix in="SourceAlpha" type="matrix" values="0 0 0 0 0 0 0 0 0 0 0 0 0 0 0 0 0 0 127 0" result="hardAlpha"/>
<feOffset dy="1"/>
<feGaussianBlur stdDeviation="1.5"/>
<feColorMatrix type="matrix" values="0 0 0 0 0.0627451 0 0 0 0 0.0941176 0 0 0 0 0.156863 0 0 0 0.1 0"/>
<feBlend mode="normal" in2="effect1_dropShadow_562_291" result="effect2_dropShadow_562_291"/>
<feBlend mode="normal" in="SourceGraphic" in2="effect2_dropShadow_562_291" result="shape"/>
</filter>
<filter id="filter3_dd_562_291" x="361" y="105.5" width="18" height="18" filterUnits="userSpaceOnUse" color-interpolation-filters="sRGB">
<feFlood flood-opacity="0" result="BackgroundImageFix"/>
<feColorMatrix in="SourceAlpha" type="matrix" values="0 0 0 0 0 0 0 0 0 0 0 0 0 0 0 0 0 0 127 0" result="hardAlpha"/>
<feOffset dy="1"/>
<feGaussianBlur stdDeviation="1"/>
<feColorMatrix type="matrix" values="0 0 0 0 0.0627451 0 0 0 0 0.0941176 0 0 0 0 0.156863 0 0 0 0.06 0"/>
<feBlend mode="normal" in2="BackgroundImageFix" result="effect1_dropShadow_562_291"/>
<feColorMatrix in="SourceAlpha" type="matrix" values="0 0 0 0 0 0 0 0 0 0 0 0 0 0 0 0 0 0 127 0" result="hardAlpha"/>
<feOffset dy="1"/>
<feGaussianBlur stdDeviation="1.5"/>
<feColorMatrix type="matrix" values="0 0 0 0 0.0627451 0 0 0 0 0.0941176 0 0 0 0 0.156863 0 0 0 0.1 0"/>
<feBlend mode="normal" in2="effect1_dropShadow_562_291" result="effect2_dropShadow_562_291"/>
<feBlend mode="normal" in="SourceGraphic" in2="effect2_dropShadow_562_291" result="shape"/>
</filter>
<filter id="filter4_dd_562_291" x="373" y="150.5" width="18" height="18" filterUnits="userSpaceOnUse" color-interpolation-filters="sRGB">
<feFlood flood-opacity="0" result="BackgroundImageFix"/>
<feColorMatrix in="SourceAlpha" type="matrix" values="0 0 0 0 0 0 0 0 0 0 0 0 0 0 0 0 0 0 127 0" result="hardAlpha"/>
<feOffset dy="1"/>
<feGaussianBlur stdDeviation="1"/>
<feColorMatrix type="matrix" values="0 0 0 0 0.0627451 0 0 0 0 0.0941176 0 0 0 0 0.156863 0 0 0 0.06 0"/>
<feBlend mode="normal" in2="BackgroundImageFix" result="effect1_dropShadow_562_291"/>
<feColorMatrix in="SourceAlpha" type="matrix" values="0 0 0 0 0 0 0 0 0 0 0 0 0 0 0 0 0 0 127 0" result="hardAlpha"/>
<feOffset dy="1"/>
<feGaussianBlur stdDeviation="1.5"/>
<feColorMatrix type="matrix" values="0 0 0 0 0.0627451 0 0 0 0 0.0941176 0 0 0 0 0.156863 0 0 0 0.1 0"/>
<feBlend mode="normal" in2="effect1_dropShadow_562_291" result="effect2_dropShadow_562_291"/>
<feBlend mode="normal" in="SourceGraphic" in2="effect2_dropShadow_562_291" result="shape"/>
</filter>
<clipPath id="clip0_562_291">
<rect x="2" y="1" width="404" height="180" rx="6" fill="white"/>
</clipPath>
<clipPath id="clip1_562_291">
<rect x="362" y="15.5" width="28" height="16" rx="8" fill="white"/>
</clipPath>
<clipPath id="clip2_562_291">
<rect x="362" y="60.5" width="28" height="16" rx="8" fill="white"/>
</clipPath>
<clipPath id="clip3_562_291">
<rect x="362" y="105.5" width="28" height="16" rx="8" fill="white"/>
</clipPath>
<clipPath id="clip4_562_291">
<rect x="362" y="150.5" width="28" height="16" rx="8" fill="white"/>
</clipPath>
</defs>
</svg>
