<svg width="408" height="49" viewBox="0 0 408 49" fill="none" xmlns="http://www.w3.org/2000/svg">
<g filter="url(#filter0_d_565_399)">
<g clip-path="url(#clip0_565_399)">
<rect width="404" height="45" transform="translate(2 1)" fill="white"/>
<mask id="path-3-inside-1_565_399" fill="white">
<path d="M2 1H406V46H2V1Z"/>
</mask>
<path d="M2 1H406V46H2V1Z" fill="#FAFAFB"/>
<path d="M406 45H2V47H406V45Z" fill="#E4E4E7" mask="url(#path-3-inside-1_565_399)"/>
<path d="M20.576 20.58V28H19.12V20.58H20.576ZM20.618 18.06V19.474H19.106V18.06H20.618ZM26.6233 28.224C25.6993 28.224 24.8873 28.014 24.1873 27.594C23.4967 27.174 22.9647 26.5767 22.5913 25.802C22.2273 25.018 22.0453 24.0987 22.0453 23.044C22.0453 21.98 22.2273 21.056 22.5913 20.272C22.9647 19.488 23.4967 18.886 24.1873 18.466C24.8873 18.046 25.6993 17.836 26.6233 17.836C27.5567 17.836 28.3687 18.046 29.0593 18.466C29.7593 18.886 30.2913 19.488 30.6553 20.272C31.0287 21.056 31.2153 21.98 31.2153 23.044C31.2153 24.0987 31.0287 25.018 30.6553 25.802C30.2913 26.5767 29.7593 27.174 29.0593 27.594C28.3687 28.014 27.5567 28.224 26.6233 28.224ZM26.6233 26.852C27.2767 26.852 27.832 26.7073 28.2893 26.418C28.7467 26.1193 29.092 25.6853 29.3253 25.116C29.5587 24.5467 29.6753 23.856 29.6753 23.044C29.6753 22.232 29.5587 21.5413 29.3253 20.972C29.092 20.3933 28.7467 19.9547 28.2893 19.656C27.832 19.3573 27.2767 19.208 26.6233 19.208C25.97 19.208 25.4147 19.3573 24.9573 19.656C24.5093 19.9547 24.1687 20.3933 23.9353 20.972C23.702 21.5413 23.5853 22.232 23.5853 23.044C23.5853 23.856 23.702 24.5467 23.9353 25.116C24.1687 25.6853 24.5093 26.1193 24.9573 26.418C25.4147 26.7073 25.97 26.852 26.6233 26.852ZM34.0577 24.71C34.1417 25.13 34.291 25.4987 34.5057 25.816C34.7297 26.1333 35.0237 26.376 35.3877 26.544C35.7517 26.712 36.1717 26.796 36.6477 26.796C37.049 26.796 37.3943 26.7447 37.6837 26.642C37.9823 26.5393 38.211 26.3853 38.3697 26.18C38.5283 25.9747 38.6077 25.7273 38.6077 25.438C38.6077 24.9807 38.3977 24.6027 37.9777 24.304C37.567 23.996 36.8903 23.7253 35.9477 23.492C34.9677 23.2493 34.1837 22.8993 33.5957 22.442C33.017 21.9847 32.7277 21.378 32.7277 20.622C32.7277 20.062 32.8723 19.572 33.1617 19.152C33.451 18.732 33.8477 18.41 34.3517 18.186C34.865 17.9527 35.4577 17.836 36.1297 17.836C36.839 17.836 37.469 17.976 38.0197 18.256C38.5703 18.5267 39.009 18.9047 39.3357 19.39C39.6623 19.866 39.8677 20.4213 39.9517 21.056L38.4257 21.14C38.3697 20.748 38.239 20.4073 38.0337 20.118C37.8283 19.8193 37.5577 19.5907 37.2217 19.432C36.895 19.2733 36.5217 19.194 36.1017 19.194C35.5603 19.194 35.117 19.3247 34.7717 19.586C34.4263 19.8473 34.2583 20.1973 34.2677 20.636C34.2677 20.9627 34.375 21.2333 34.5897 21.448C34.8137 21.6533 35.075 21.8167 35.3737 21.938C35.6723 22.05 36.0737 22.176 36.5777 22.316L36.7877 22.372C37.8237 22.6427 38.6403 23.0207 39.2377 23.506C39.8443 23.982 40.1477 24.5887 40.1477 25.326C40.1477 25.9233 39.9843 26.4367 39.6577 26.866C39.331 27.2953 38.8923 27.622 38.3417 27.846C37.8003 28.0607 37.2077 28.168 36.5637 28.168C35.8263 28.168 35.159 28.0327 34.5617 27.762C33.9737 27.482 33.5023 27.0853 33.1477 26.572C32.793 26.0587 32.5877 25.466 32.5317 24.794L34.0577 24.71ZM52.7808 24.5C52.7808 25.2467 52.6221 25.9047 52.3048 26.474C51.9968 27.034 51.5535 27.468 50.9748 27.776C50.3961 28.0747 49.7148 28.224 48.9308 28.224C48.1468 28.224 47.4655 28.0747 46.8868 27.776C46.3081 27.468 45.8601 27.034 45.5428 26.474C45.2348 25.9047 45.0808 25.2467 45.0808 24.5V18.046H46.5648V24.5C46.5648 25.2467 46.7701 25.8253 47.1808 26.236C47.5915 26.6467 48.1748 26.852 48.9308 26.852C49.6868 26.852 50.2701 26.6467 50.6808 26.236C51.0915 25.8253 51.2968 25.2467 51.2968 24.5V18.046H52.7808V24.5ZM54.7598 20.58H56.1178L56.1738 22.148L56.0338 21.938C56.2205 21.4433 56.5145 21.0653 56.9158 20.804C57.3265 20.5427 57.8258 20.412 58.4138 20.412C59.1138 20.412 59.7018 20.5893 60.1778 20.944C60.6538 21.2893 61.0085 21.756 61.2418 22.344C61.4845 22.9227 61.6058 23.5713 61.6058 24.29C61.6058 25.0087 61.4845 25.662 61.2418 26.25C61.0085 26.8287 60.6538 27.2953 60.1778 27.65C59.7018 27.9953 59.1138 28.168 58.4138 28.168C58.0218 28.168 57.6672 28.112 57.3498 28C57.0418 27.8787 56.7758 27.7013 56.5518 27.468C56.3372 27.2347 56.1692 26.95 56.0478 26.614L56.2158 26.432V30.1H54.7598V20.58ZM56.0758 24.29C56.0758 24.7567 56.1458 25.186 56.2858 25.578C56.4352 25.97 56.6592 26.2873 56.9578 26.53C57.2565 26.7727 57.6298 26.894 58.0778 26.894C58.7405 26.894 59.2352 26.6467 59.5618 26.152C59.8978 25.648 60.0658 25.0273 60.0658 24.29C60.0658 23.562 59.8978 22.946 59.5618 22.442C59.2258 21.938 58.7312 21.686 58.0778 21.686C57.6298 21.686 57.2565 21.8073 56.9578 22.05C56.6592 22.2927 56.4352 22.61 56.2858 23.002C56.1458 23.394 56.0758 23.8233 56.0758 24.29ZM68.1058 18.06H69.5618V28H68.2038L68.1618 26.964C67.9564 27.3467 67.6578 27.6453 67.2658 27.86C66.8738 28.0653 66.4024 28.168 65.8518 28.168C65.1704 28.168 64.5918 27.9953 64.1158 27.65C63.6491 27.2953 63.2991 26.824 63.0658 26.236C62.8324 25.648 62.7158 24.9993 62.7158 24.29C62.7158 23.5807 62.8324 22.932 63.0658 22.344C63.2991 21.756 63.6491 21.2893 64.1158 20.944C64.5918 20.5893 65.1704 20.412 65.8518 20.412C66.3838 20.412 66.8364 20.51 67.2098 20.706C67.5831 20.902 67.8818 21.182 68.1058 21.546V18.06ZM68.0078 25.578C68.1478 25.186 68.2178 24.7567 68.2178 24.29C68.2178 23.8047 68.1478 23.366 68.0078 22.974C67.8678 22.5727 67.6484 22.2507 67.3498 22.008C67.0511 21.7653 66.6731 21.644 66.2158 21.644C65.5531 21.644 65.0538 21.896 64.7178 22.4C64.3911 22.904 64.2278 23.534 64.2278 24.29C64.2278 25.018 64.3911 25.634 64.7178 26.138C65.0538 26.642 65.5531 26.894 66.2158 26.894C66.6731 26.894 67.0511 26.7727 67.3498 26.53C67.6484 26.2873 67.8678 25.97 68.0078 25.578ZM71.3014 22.792C71.4507 22.0547 71.8007 21.476 72.3514 21.056C72.9021 20.6267 73.6021 20.412 74.4514 20.412C75.4594 20.412 76.2294 20.6827 76.7614 21.224C77.2934 21.756 77.5594 22.5307 77.5594 23.548V26.348C77.5594 26.516 77.5967 26.6373 77.6714 26.712C77.7461 26.7867 77.8581 26.824 78.0074 26.824H78.3154V28H77.8254H77.7694C77.5081 28 77.2654 27.972 77.0414 27.916C76.8174 27.86 76.6261 27.748 76.4674 27.58C76.3087 27.412 76.2247 27.174 76.2154 26.866C76.0381 27.2393 75.7441 27.552 75.3334 27.804C74.9227 28.0467 74.4281 28.168 73.8494 28.168C73.0747 28.168 72.4354 27.9767 71.9314 27.594C71.4274 27.2113 71.1754 26.698 71.1754 26.054C71.1754 25.578 71.2827 25.1953 71.4974 24.906C71.7214 24.6167 72.0294 24.3927 72.4214 24.234C72.8227 24.0753 73.3407 23.9353 73.9754 23.814L76.1034 23.394C76.0941 22.7967 75.9541 22.3533 75.6834 22.064C75.4127 21.7747 75.0021 21.63 74.4514 21.63C74.0221 21.63 73.6674 21.7373 73.3874 21.952C73.1074 22.1667 72.9114 22.4793 72.7994 22.89L71.3014 22.792ZM72.6874 26.026C72.6874 26.3153 72.8087 26.5533 73.0514 26.74C73.3034 26.9267 73.6627 27.02 74.1294 27.02C74.5121 27.02 74.8527 26.9313 75.1514 26.754C75.4594 26.5673 75.6974 26.292 75.8654 25.928C76.0427 25.564 76.1314 25.1207 76.1314 24.598V24.528L74.5354 24.808L74.2694 24.85C73.8867 24.9247 73.5927 24.9947 73.3874 25.06C73.1821 25.116 73.0141 25.2233 72.8834 25.382C72.7527 25.5407 72.6874 25.7553 72.6874 26.026ZM81.3119 18.9V25.886C81.3119 26.1847 81.3819 26.4133 81.5219 26.572C81.6713 26.7213 81.8906 26.796 82.1799 26.796H83.2719V28H82.0539C81.3353 28 80.7893 27.818 80.4159 27.454C80.0426 27.09 79.8559 26.5673 79.8559 25.886V18.9H81.3119ZM83.2859 20.58V21.784H78.7359V20.58H83.2859ZM83.993 24.29C83.993 23.506 84.1377 22.8247 84.427 22.246C84.7164 21.658 85.127 21.2053 85.659 20.888C86.191 20.5707 86.807 20.412 87.507 20.412C88.1137 20.412 88.6597 20.5473 89.145 20.818C89.6397 21.0887 90.0364 21.5087 90.335 22.078C90.643 22.6473 90.811 23.3567 90.839 24.206L90.853 24.71H85.519C85.575 25.41 85.7757 25.9513 86.121 26.334C86.4664 26.7167 86.9284 26.908 87.507 26.908C87.8804 26.908 88.221 26.81 88.529 26.614C88.837 26.4087 89.0657 26.1287 89.215 25.774L90.741 25.886C90.5264 26.5767 90.1204 27.132 89.523 27.552C88.935 27.9627 88.263 28.168 87.507 28.168C86.807 28.168 86.191 28.0093 85.659 27.692C85.127 27.3747 84.7164 26.9267 84.427 26.348C84.1377 25.76 83.993 25.074 83.993 24.29ZM89.313 23.59C89.2197 22.9273 89.0097 22.442 88.683 22.134C88.3564 21.826 87.9644 21.672 87.507 21.672C86.9657 21.672 86.527 21.84 86.191 22.176C85.855 22.512 85.6404 22.9833 85.547 23.59H89.313ZM96.7061 22.904C96.6315 22.5213 96.4308 22.218 96.1041 21.994C95.7868 21.7607 95.4275 21.644 95.0261 21.644C94.6341 21.644 94.3075 21.742 94.0461 21.938C93.7848 22.1247 93.6588 22.3767 93.6681 22.694C93.6681 22.9927 93.8221 23.226 94.1301 23.394C94.4381 23.562 94.8301 23.6927 95.3061 23.786C95.9781 23.9073 96.5288 24.052 96.9581 24.22C97.3875 24.388 97.7235 24.6213 97.9661 24.92C98.2088 25.2187 98.3301 25.6013 98.3301 26.068C98.3301 26.5347 98.1855 26.9267 97.8961 27.244C97.6161 27.552 97.2475 27.7853 96.7901 27.944C96.3421 28.0933 95.8521 28.168 95.3201 28.168C94.6948 28.168 94.1348 28.0653 93.6401 27.86C93.1455 27.6547 92.7535 27.3653 92.4641 26.992C92.1748 26.6093 92.0115 26.166 91.9741 25.662L93.4721 25.564C93.5281 25.8533 93.6308 26.1007 93.7801 26.306C93.9388 26.502 94.1441 26.656 94.3961 26.768C94.6575 26.8707 94.9608 26.922 95.3061 26.922C95.6981 26.922 96.0481 26.852 96.3561 26.712C96.6641 26.5627 96.8181 26.3293 96.8181 26.012C96.8088 25.788 96.7388 25.6107 96.6081 25.48C96.4868 25.3493 96.3328 25.2513 96.1461 25.186C95.9595 25.1207 95.7028 25.0553 95.3761 24.99C95.3015 24.9807 95.1941 24.9573 95.0541 24.92C94.4288 24.7893 93.9155 24.6493 93.5141 24.5C93.1128 24.3413 92.7861 24.122 92.5341 23.842C92.2821 23.5527 92.1561 23.1887 92.1561 22.75C92.1561 22.274 92.2775 21.8633 92.5201 21.518C92.7628 21.1633 93.1081 20.8927 93.5561 20.706C94.0135 20.51 94.5455 20.412 95.1521 20.412C95.9455 20.412 96.6221 20.6313 97.1821 21.07C97.7421 21.4993 98.0828 22.0827 98.2041 22.82L96.7061 22.904Z" fill="#24292F"/>
<g clip-path="url(#clip1_565_399)">
<rect x="362" y="15.5" width="28" height="16" rx="8" fill="#B2B7C2"/>
<g filter="url(#filter1_dd_565_399)">
<circle cx="370" cy="23.5" r="6" fill="white"/>
</g>
</g>
</g>
<rect x="2.5" y="1.5" width="403" height="44" rx="5.5" stroke="#E4E4E7"/>
</g>
<defs>
<filter id="filter0_d_565_399" x="0" y="0" width="408" height="49" filterUnits="userSpaceOnUse" color-interpolation-filters="sRGB">
<feFlood flood-opacity="0" result="BackgroundImageFix"/>
<feColorMatrix in="SourceAlpha" type="matrix" values="0 0 0 0 0 0 0 0 0 0 0 0 0 0 0 0 0 0 127 0" result="hardAlpha"/>
<feOffset dy="1"/>
<feGaussianBlur stdDeviation="1"/>
<feColorMatrix type="matrix" values="0 0 0 0 0.0627451 0 0 0 0 0.0941176 0 0 0 0 0.156863 0 0 0 0.05 0"/>
<feBlend mode="normal" in2="BackgroundImageFix" result="effect1_dropShadow_565_399"/>
<feBlend mode="normal" in="SourceGraphic" in2="effect1_dropShadow_565_399" result="shape"/>
</filter>
<filter id="filter1_dd_565_399" x="361" y="15.5" width="18" height="18" filterUnits="userSpaceOnUse" color-interpolation-filters="sRGB">
<feFlood flood-opacity="0" result="BackgroundImageFix"/>
<feColorMatrix in="SourceAlpha" type="matrix" values="0 0 0 0 0 0 0 0 0 0 0 0 0 0 0 0 0 0 127 0" result="hardAlpha"/>
<feOffset dy="1"/>
<feGaussianBlur stdDeviation="1"/>
<feColorMatrix type="matrix" values="0 0 0 0 0.0627451 0 0 0 0 0.0941176 0 0 0 0 0.156863 0 0 0 0.06 0"/>
<feBlend mode="normal" in2="BackgroundImageFix" result="effect1_dropShadow_565_399"/>
<feColorMatrix in="SourceAlpha" type="matrix" values="0 0 0 0 0 0 0 0 0 0 0 0 0 0 0 0 0 0 127 0" result="hardAlpha"/>
<feOffset dy="1"/>
<feGaussianBlur stdDeviation="1.5"/>
<feColorMatrix type="matrix" values="0 0 0 0 0.0627451 0 0 0 0 0.0941176 0 0 0 0 0.156863 0 0 0 0.1 0"/>
<feBlend mode="normal" in2="effect1_dropShadow_565_399" result="effect2_dropShadow_565_399"/>
<feBlend mode="normal" in="SourceGraphic" in2="effect2_dropShadow_565_399" result="shape"/>
</filter>
<clipPath id="clip0_565_399">
<rect x="2" y="1" width="404" height="45" rx="6" fill="white"/>
</clipPath>
<clipPath id="clip1_565_399">
<rect x="362" y="15.5" width="28" height="16" rx="8" fill="white"/>
</clipPath>
</defs>
</svg>
