<svg width="408" height="49" viewBox="0 0 408 49" fill="none" xmlns="http://www.w3.org/2000/svg">
<g filter="url(#filter0_d_565_399)">
<g clip-path="url(#clip0_565_399)">
<rect width="404" height="45" transform="translate(2 1)" fill="white"/>
<mask id="path-3-inside-1_565_399" fill="white">
<path d="M2 1H406V46H2V1Z"/>
</mask>
<path d="M2 1H406V46H2V1Z" fill="#FAFAFB"/>
<path d="M406 45H2V47H406V45Z" fill="#E4E4E7" mask="url(#path-3-inside-1_565_399)"/>
<path d="M19.89 18.06L21.822 25.956L23.768 18.06H25.294L27.254 25.956L29.158 18.06H30.768L28.136 28H26.4L24.538 20.902L22.676 28H20.94L18.308 18.06H19.89ZM30.863 24.29C30.863 23.506 31.0077 22.8247 31.297 22.246C31.5864 21.658 31.997 21.2053 32.529 20.888C33.061 20.5707 33.677 20.412 34.377 20.412C34.9837 20.412 35.5297 20.5473 36.015 20.818C36.5097 21.0887 36.9064 21.5087 37.205 22.078C37.513 22.6473 37.681 23.3567 37.709 24.206L37.723 24.71H32.389C32.445 25.41 32.6457 25.9513 32.991 26.334C33.3364 26.7167 33.7984 26.908 34.377 26.908C34.7504 26.908 35.091 26.81 35.399 26.614C35.707 26.4087 35.9357 26.1287 36.085 25.774L37.611 25.886C37.3964 26.5767 36.9904 27.132 36.393 27.552C35.805 27.9627 35.133 28.168 34.377 28.168C33.677 28.168 33.061 28.0093 32.529 27.692C31.997 27.3747 31.5864 26.9267 31.297 26.348C31.0077 25.76 30.863 25.074 30.863 24.29ZM36.183 23.59C36.0897 22.9273 35.8797 22.442 35.553 22.134C35.2264 21.826 34.8344 21.672 34.377 21.672C33.8357 21.672 33.397 21.84 33.061 22.176C32.725 22.512 32.5104 22.9833 32.417 23.59H36.183ZM40.544 18.06V21.546C40.768 21.182 41.0667 20.902 41.44 20.706C41.8134 20.51 42.266 20.412 42.798 20.412C43.4794 20.412 44.0534 20.5893 44.52 20.944C44.996 21.2893 45.3507 21.756 45.584 22.344C45.8174 22.932 45.934 23.5807 45.934 24.29C45.934 24.9993 45.8174 25.648 45.584 26.236C45.3507 26.824 44.996 27.2953 44.52 27.65C44.0534 27.9953 43.4794 28.168 42.798 28.168C42.2474 28.168 41.776 28.0653 41.384 27.86C40.992 27.6453 40.6934 27.3467 40.488 26.964L40.446 28H39.088V18.06H40.544ZM40.432 24.29C40.432 24.7567 40.502 25.186 40.642 25.578C40.782 25.97 41.0014 26.2873 41.3 26.53C41.5987 26.7727 41.9767 26.894 42.434 26.894C43.0967 26.894 43.5914 26.642 43.918 26.138C44.254 25.634 44.422 25.018 44.422 24.29C44.422 23.534 44.254 22.904 43.918 22.4C43.5914 21.896 43.0967 21.644 42.434 21.644C41.9767 21.644 41.5987 21.7653 41.3 22.008C41.0014 22.2507 40.782 22.5727 40.642 22.974C40.502 23.366 40.432 23.8047 40.432 24.29ZM52.394 18.06V28H50.91V18.06H52.394ZM55.7067 20.58L55.7767 22.554L55.5947 22.4C55.716 21.728 55.9914 21.2287 56.4207 20.902C56.8594 20.5753 57.3914 20.412 58.0167 20.412C58.8194 20.412 59.4354 20.6733 59.8647 21.196C60.3034 21.7093 60.5227 22.386 60.5227 23.226V28H59.0667V23.66C59.0667 23.212 59.02 22.8433 58.9267 22.554C58.8334 22.2553 58.6794 22.0313 58.4647 21.882C58.2594 21.7233 57.984 21.644 57.6387 21.644C57.0787 21.644 56.64 21.8167 56.3227 22.162C56.0054 22.5073 55.8467 23.0067 55.8467 23.66V28H54.3907V20.58H55.7067ZM66.6001 22.904C66.5255 22.5213 66.3248 22.218 65.9981 21.994C65.6808 21.7607 65.3215 21.644 64.9201 21.644C64.5281 21.644 64.2015 21.742 63.9401 21.938C63.6788 22.1247 63.5528 22.3767 63.5621 22.694C63.5621 22.9927 63.7161 23.226 64.0241 23.394C64.3321 23.562 64.7241 23.6927 65.2001 23.786C65.8721 23.9073 66.4228 24.052 66.8521 24.22C67.2815 24.388 67.6175 24.6213 67.8601 24.92C68.1028 25.2187 68.2241 25.6013 68.2241 26.068C68.2241 26.5347 68.0795 26.9267 67.7901 27.244C67.5101 27.552 67.1415 27.7853 66.6841 27.944C66.2361 28.0933 65.7461 28.168 65.2141 28.168C64.5888 28.168 64.0288 28.0653 63.5341 27.86C63.0395 27.6547 62.6475 27.3653 62.3581 26.992C62.0688 26.6093 61.9055 26.166 61.8681 25.662L63.3661 25.564C63.4221 25.8533 63.5248 26.1007 63.6741 26.306C63.8328 26.502 64.0381 26.656 64.2901 26.768C64.5515 26.8707 64.8548 26.922 65.2001 26.922C65.5921 26.922 65.9421 26.852 66.2501 26.712C66.5581 26.5627 66.7121 26.3293 66.7121 26.012C66.7028 25.788 66.6328 25.6107 66.5021 25.48C66.3808 25.3493 66.2268 25.2513 66.0401 25.186C65.8535 25.1207 65.5968 25.0553 65.2701 24.99C65.1955 24.9807 65.0881 24.9573 64.9481 24.92C64.3228 24.7893 63.8095 24.6493 63.4081 24.5C63.0068 24.3413 62.6801 24.122 62.4281 23.842C62.1761 23.5527 62.0501 23.1887 62.0501 22.75C62.0501 22.274 62.1715 21.8633 62.4141 21.518C62.6568 21.1633 63.0021 20.8927 63.4501 20.706C63.9075 20.51 64.4395 20.412 65.0461 20.412C65.8395 20.412 66.5161 20.6313 67.0761 21.07C67.6361 21.4993 67.9768 22.0827 68.0981 22.82L66.6001 22.904ZM69.7513 20.58H71.1093L71.1653 22.148L71.0253 21.938C71.212 21.4433 71.506 21.0653 71.9073 20.804C72.318 20.5427 72.8173 20.412 73.4053 20.412C74.1053 20.412 74.6933 20.5893 75.1693 20.944C75.6453 21.2893 76 21.756 76.2333 22.344C76.476 22.9227 76.5973 23.5713 76.5973 24.29C76.5973 25.0087 76.476 25.662 76.2333 26.25C76 26.8287 75.6453 27.2953 75.1693 27.65C74.6933 27.9953 74.1053 28.168 73.4053 28.168C73.0133 28.168 72.6587 28.112 72.3413 28C72.0333 27.8787 71.7673 27.7013 71.5433 27.468C71.3287 27.2347 71.1607 26.95 71.0393 26.614L71.2073 26.432V30.1H69.7513V20.58ZM71.0673 24.29C71.0673 24.7567 71.1373 25.186 71.2773 25.578C71.4267 25.97 71.6507 26.2873 71.9493 26.53C72.248 26.7727 72.6213 26.894 73.0693 26.894C73.732 26.894 74.2267 26.6467 74.5533 26.152C74.8893 25.648 75.0573 25.0273 75.0573 24.29C75.0573 23.562 74.8893 22.946 74.5533 22.442C74.2173 21.938 73.7227 21.686 73.0693 21.686C72.6213 21.686 72.248 21.8073 71.9493 22.05C71.6507 22.2927 71.4267 22.61 71.2773 23.002C71.1373 23.394 71.0673 23.8233 71.0673 24.29ZM77.7073 24.29C77.7073 23.506 77.8519 22.8247 78.1413 22.246C78.4306 21.658 78.8413 21.2053 79.3733 20.888C79.9053 20.5707 80.5213 20.412 81.2213 20.412C81.8279 20.412 82.3739 20.5473 82.8593 20.818C83.3539 21.0887 83.7506 21.5087 84.0493 22.078C84.3573 22.6473 84.5253 23.3567 84.5533 24.206L84.5673 24.71H79.2333C79.2893 25.41 79.4899 25.9513 79.8353 26.334C80.1806 26.7167 80.6426 26.908 81.2213 26.908C81.5946 26.908 81.9353 26.81 82.2433 26.614C82.5513 26.4087 82.7799 26.1287 82.9293 25.774L84.4553 25.886C84.2406 26.5767 83.8346 27.132 83.2373 27.552C82.6493 27.9627 81.9773 28.168 81.2213 28.168C80.5213 28.168 79.9053 28.0093 79.3733 27.692C78.8413 27.3747 78.4306 26.9267 78.1413 26.348C77.8519 25.76 77.7073 25.074 77.7073 24.29ZM83.0273 23.59C82.9339 22.9273 82.7239 22.442 82.3973 22.134C82.0706 21.826 81.6786 21.672 81.2213 21.672C80.6799 21.672 80.2413 21.84 79.9053 22.176C79.5693 22.512 79.3546 22.9833 79.2613 23.59H83.0273ZM90.9244 23.17C90.859 22.7127 90.663 22.3533 90.3364 22.092C90.0097 21.8213 89.6317 21.686 89.2024 21.686C88.5584 21.686 88.0637 21.9147 87.7184 22.372C87.373 22.8293 87.2004 23.4687 87.2004 24.29C87.2004 25.1113 87.373 25.7507 87.7184 26.208C88.0637 26.6653 88.5584 26.894 89.2024 26.894C89.6597 26.894 90.047 26.754 90.3644 26.474C90.691 26.1847 90.8964 25.788 90.9804 25.284L92.5064 25.368C92.4317 25.9373 92.2357 26.4367 91.9184 26.866C91.6104 27.286 91.2184 27.608 90.7424 27.832C90.2757 28.056 89.7624 28.168 89.2024 28.168C88.493 28.168 87.8724 28.0093 87.3404 27.692C86.8177 27.3747 86.4117 26.9267 86.1224 26.348C85.833 25.76 85.6884 25.074 85.6884 24.29C85.6884 23.506 85.833 22.8247 86.1224 22.246C86.4117 21.658 86.8177 21.2053 87.3404 20.888C87.8724 20.5707 88.493 20.412 89.2024 20.412C89.7437 20.412 90.2477 20.524 90.7144 20.748C91.1904 20.9627 91.5777 21.2707 91.8764 21.672C92.1844 22.0733 92.371 22.5447 92.4364 23.086L90.9244 23.17ZM95.7839 18.9V25.886C95.7839 26.1847 95.8539 26.4133 95.9939 26.572C96.1432 26.7213 96.3626 26.796 96.6519 26.796H97.7439V28H96.5259C95.8072 28 95.2612 27.818 94.8879 27.454C94.5146 27.09 94.3279 26.5673 94.3279 25.886V18.9H95.7839ZM97.7579 20.58V21.784H93.2079V20.58H97.7579ZM101.979 28.168C101.27 28.168 100.649 28.0093 100.117 27.692C99.5943 27.3747 99.1883 26.9267 98.899 26.348C98.6097 25.76 98.465 25.074 98.465 24.29C98.465 23.506 98.6097 22.8247 98.899 22.246C99.1883 21.658 99.5943 21.2053 100.117 20.888C100.649 20.5707 101.27 20.412 101.979 20.412C102.679 20.412 103.295 20.5707 103.827 20.888C104.359 21.2053 104.77 21.658 105.059 22.246C105.348 22.8247 105.493 23.506 105.493 24.29C105.493 25.074 105.348 25.76 105.059 26.348C104.77 26.9267 104.359 27.3747 103.827 27.692C103.295 28.0093 102.679 28.168 101.979 28.168ZM101.979 26.894C102.614 26.894 103.104 26.6653 103.449 26.208C103.804 25.7507 103.981 25.1113 103.981 24.29C103.981 23.4687 103.804 22.8293 103.449 22.372C103.104 21.9147 102.614 21.686 101.979 21.686C101.335 21.686 100.84 21.9147 100.495 22.372C100.15 22.8293 99.977 23.4687 99.977 24.29C99.977 25.1113 100.15 25.7507 100.495 26.208C100.84 26.6653 101.335 26.894 101.979 26.894ZM108.348 20.58L108.404 22.582L108.292 22.484C108.376 21.8213 108.567 21.3407 108.866 21.042C109.165 20.734 109.594 20.58 110.154 20.58H110.868V21.784H110.14C109.767 21.784 109.454 21.854 109.202 21.994C108.95 22.134 108.763 22.344 108.642 22.624C108.53 22.8947 108.474 23.24 108.474 23.66V28H107.018V20.58H108.348Z" fill="#24292F"/>
<g clip-path="url(#clip1_565_399)">
<rect x="362" y="15.5" width="28" height="16" rx="8" fill="#12B76A"/>
<g filter="url(#filter1_dd_565_399)">
<circle cx="382" cy="23.5" r="6" fill="white"/>
</g>
</g>
</g>
<rect x="2.5" y="1.5" width="403" height="44" rx="5.5" stroke="#E4E4E7"/>
</g>
<defs>
<filter id="filter0_d_565_399" x="0" y="0" width="408" height="49" filterUnits="userSpaceOnUse" color-interpolation-filters="sRGB">
<feFlood flood-opacity="0" result="BackgroundImageFix"/>
<feColorMatrix in="SourceAlpha" type="matrix" values="0 0 0 0 0 0 0 0 0 0 0 0 0 0 0 0 0 0 127 0" result="hardAlpha"/>
<feOffset dy="1"/>
<feGaussianBlur stdDeviation="1"/>
<feColorMatrix type="matrix" values="0 0 0 0 0.0627451 0 0 0 0 0.0941176 0 0 0 0 0.156863 0 0 0 0.05 0"/>
<feBlend mode="normal" in2="BackgroundImageFix" result="effect1_dropShadow_565_399"/>
<feBlend mode="normal" in="SourceGraphic" in2="effect1_dropShadow_565_399" result="shape"/>
</filter>
<filter id="filter1_dd_565_399" x="373" y="15.5" width="18" height="18" filterUnits="userSpaceOnUse" color-interpolation-filters="sRGB">
<feFlood flood-opacity="0" result="BackgroundImageFix"/>
<feColorMatrix in="SourceAlpha" type="matrix" values="0 0 0 0 0 0 0 0 0 0 0 0 0 0 0 0 0 0 127 0" result="hardAlpha"/>
<feOffset dy="1"/>
<feGaussianBlur stdDeviation="1"/>
<feColorMatrix type="matrix" values="0 0 0 0 0.0627451 0 0 0 0 0.0941176 0 0 0 0 0.156863 0 0 0 0.06 0"/>
<feBlend mode="normal" in2="BackgroundImageFix" result="effect1_dropShadow_565_399"/>
<feColorMatrix in="SourceAlpha" type="matrix" values="0 0 0 0 0 0 0 0 0 0 0 0 0 0 0 0 0 0 127 0" result="hardAlpha"/>
<feOffset dy="1"/>
<feGaussianBlur stdDeviation="1.5"/>
<feColorMatrix type="matrix" values="0 0 0 0 0.0627451 0 0 0 0 0.0941176 0 0 0 0 0.156863 0 0 0 0.1 0"/>
<feBlend mode="normal" in2="effect1_dropShadow_565_399" result="effect2_dropShadow_565_399"/>
<feBlend mode="normal" in="SourceGraphic" in2="effect2_dropShadow_565_399" result="shape"/>
</filter>
<clipPath id="clip0_565_399">
<rect x="2" y="1" width="404" height="45" rx="6" fill="white"/>
</clipPath>
<clipPath id="clip1_565_399">
<rect x="362" y="15.5" width="28" height="16" rx="8" fill="white"/>
</clipPath>
</defs>
</svg>
