<svg width="408" height="49" viewBox="0 0 408 49" fill="none" xmlns="http://www.w3.org/2000/svg">
<g filter="url(#filter0_d_564_329)">
<g clip-path="url(#clip0_564_329)">
<rect width="404" height="45" transform="translate(2 1)" fill="white"/>
<mask id="path-3-inside-1_564_329" fill="white">
<path d="M2 1H406V46H2V1Z"/>
</mask>
<path d="M2 1H406V46H2V1Z" fill="#FAFAFB"/>
<path d="M406 45H2V47H406V45Z" fill="#E4E4E7" mask="url(#path-3-inside-1_564_329)"/>
<path d="M22.9 18.06C23.6467 18.06 24.2907 18.1813 24.832 18.424C25.3733 18.6667 25.7887 19.0213 26.078 19.488C26.3673 19.9453 26.512 20.496 26.512 21.14C26.512 21.784 26.3673 22.344 26.078 22.82C25.7887 23.2867 25.3733 23.646 24.832 23.898C24.2907 24.1407 23.6467 24.262 22.9 24.262H20.702V28H19.218V18.06H22.9ZM22.872 22.89C23.5627 22.89 24.0853 22.7453 24.44 22.456C24.7947 22.1573 24.972 21.7187 24.972 21.14C24.972 20.5707 24.7947 20.146 24.44 19.866C24.0853 19.5767 23.5627 19.432 22.872 19.432H20.702V22.89H22.872ZM32.8181 28L32.8041 26.082L32.9721 26.222C32.8508 26.8847 32.5755 27.3747 32.1461 27.692C31.7168 28.0093 31.2035 28.168 30.6061 28.168C29.8128 28.168 29.2015 27.9067 28.7721 27.384C28.3428 26.8613 28.1281 26.1847 28.1281 25.354V20.58H29.5841V24.906C29.5841 25.3633 29.6308 25.7413 29.7241 26.04C29.8268 26.3293 29.9761 26.5533 30.1721 26.712C30.3775 26.8613 30.6481 26.936 30.9841 26.936C31.5161 26.936 31.9408 26.7633 32.2581 26.418C32.5755 26.0633 32.7341 25.5593 32.7341 24.906V20.58H34.1901V28H32.8181ZM38.2652 18.9V25.886C38.2652 26.1847 38.3352 26.4133 38.4752 26.572C38.6246 26.7213 38.8439 26.796 39.1332 26.796H40.2252V28H39.0072C38.2886 28 37.7426 27.818 37.3692 27.454C36.9959 27.09 36.8092 26.5673 36.8092 25.886V18.9H38.2652ZM40.2392 20.58V21.784H35.6892V20.58H40.2392ZM49.7477 28L49.7337 26.082L49.9017 26.222C49.7804 26.8847 49.5051 27.3747 49.0757 27.692C48.6464 28.0093 48.1331 28.168 47.5357 28.168C46.7424 28.168 46.1311 27.9067 45.7017 27.384C45.2724 26.8613 45.0577 26.1847 45.0577 25.354V20.58H46.5137V24.906C46.5137 25.3633 46.5604 25.7413 46.6537 26.04C46.7564 26.3293 46.9057 26.5533 47.1017 26.712C47.3071 26.8613 47.5777 26.936 47.9137 26.936C48.4457 26.936 48.8704 26.7633 49.1877 26.418C49.5051 26.0633 49.6637 25.5593 49.6637 24.906V20.58H51.1197V28H49.7477ZM54.5309 20.58L54.6009 22.554L54.4189 22.4C54.5403 21.728 54.8156 21.2287 55.2449 20.902C55.6836 20.5753 56.2156 20.412 56.8409 20.412C57.6436 20.412 58.2596 20.6733 58.6889 21.196C59.1276 21.7093 59.3469 22.386 59.3469 23.226V28H57.8909V23.66C57.8909 23.212 57.8443 22.8433 57.7509 22.554C57.6576 22.2553 57.5036 22.0313 57.2889 21.882C57.0836 21.7233 56.8083 21.644 56.4629 21.644C55.9029 21.644 55.4643 21.8167 55.1469 22.162C54.8296 22.5073 54.6709 23.0067 54.6709 23.66V28H53.2149V20.58H54.5309ZM66.1338 28L66.1198 26.082L66.2878 26.222C66.1664 26.8847 65.8911 27.3747 65.4617 27.692C65.0324 28.0093 64.5191 28.168 63.9218 28.168C63.1284 28.168 62.5171 27.9067 62.0878 27.384C61.6584 26.8613 61.4437 26.1847 61.4437 25.354V20.58H62.8997V24.906C62.8997 25.3633 62.9464 25.7413 63.0398 26.04C63.1424 26.3293 63.2917 26.5533 63.4877 26.712C63.6931 26.8613 63.9638 26.936 64.2997 26.936C64.8318 26.936 65.2564 26.7633 65.5738 26.418C65.8911 26.0633 66.0498 25.5593 66.0498 24.906V20.58H67.5057V28H66.1338ZM73.8429 22.904C73.7683 22.5213 73.5676 22.218 73.2409 21.994C72.9236 21.7607 72.5643 21.644 72.1629 21.644C71.7709 21.644 71.4443 21.742 71.1829 21.938C70.9216 22.1247 70.7956 22.3767 70.8049 22.694C70.8049 22.9927 70.9589 23.226 71.2669 23.394C71.5749 23.562 71.9669 23.6927 72.4429 23.786C73.1149 23.9073 73.6656 24.052 74.0949 24.22C74.5243 24.388 74.8603 24.6213 75.1029 24.92C75.3456 25.2187 75.4669 25.6013 75.4669 26.068C75.4669 26.5347 75.3223 26.9267 75.0329 27.244C74.7529 27.552 74.3843 27.7853 73.9269 27.944C73.4789 28.0933 72.9889 28.168 72.4569 28.168C71.8316 28.168 71.2716 28.0653 70.7769 27.86C70.2823 27.6547 69.8903 27.3653 69.6009 26.992C69.3116 26.6093 69.1483 26.166 69.1109 25.662L70.6089 25.564C70.6649 25.8533 70.7676 26.1007 70.9169 26.306C71.0756 26.502 71.2809 26.656 71.5329 26.768C71.7943 26.8707 72.0976 26.922 72.4429 26.922C72.8349 26.922 73.1849 26.852 73.4929 26.712C73.8009 26.5627 73.9549 26.3293 73.9549 26.012C73.9456 25.788 73.8756 25.6107 73.7449 25.48C73.6236 25.3493 73.4696 25.2513 73.2829 25.186C73.0963 25.1207 72.8396 25.0553 72.5129 24.99C72.4383 24.9807 72.3309 24.9573 72.1909 24.92C71.5656 24.7893 71.0523 24.6493 70.6509 24.5C70.2496 24.3413 69.9229 24.122 69.6709 23.842C69.4189 23.5527 69.2929 23.1887 69.2929 22.75C69.2929 22.274 69.4143 21.8633 69.6569 21.518C69.8996 21.1633 70.2449 20.8927 70.6929 20.706C71.1503 20.51 71.6823 20.412 72.2889 20.412C73.0823 20.412 73.7589 20.6313 74.3189 21.07C74.8789 21.4993 75.2196 22.0827 75.3409 22.82L73.8429 22.904ZM76.5862 24.29C76.5862 23.506 76.7308 22.8247 77.0202 22.246C77.3095 21.658 77.7202 21.2053 78.2522 20.888C78.7842 20.5707 79.4002 20.412 80.1002 20.412C80.7068 20.412 81.2528 20.5473 81.7382 20.818C82.2328 21.0887 82.6295 21.5087 82.9282 22.078C83.2362 22.6473 83.4042 23.3567 83.4322 24.206L83.4462 24.71H78.1122C78.1682 25.41 78.3688 25.9513 78.7142 26.334C79.0595 26.7167 79.5215 26.908 80.1002 26.908C80.4735 26.908 80.8142 26.81 81.1222 26.614C81.4302 26.4087 81.6588 26.1287 81.8082 25.774L83.3342 25.886C83.1195 26.5767 82.7135 27.132 82.1162 27.552C81.5282 27.9627 80.8562 28.168 80.1002 28.168C79.4002 28.168 78.7842 28.0093 78.2522 27.692C77.7202 27.3747 77.3095 26.9267 77.0202 26.348C76.7308 25.76 76.5862 25.074 76.5862 24.29ZM81.9062 23.59C81.8128 22.9273 81.6028 22.442 81.2762 22.134C80.9495 21.826 80.5575 21.672 80.1002 21.672C79.5588 21.672 79.1202 21.84 78.7842 22.176C78.4482 22.512 78.2335 22.9833 78.1402 23.59H81.9062ZM89.9573 18.06H91.4133V28H90.0553L90.0133 26.964C89.8079 27.3467 89.5093 27.6453 89.1173 27.86C88.7253 28.0653 88.2539 28.168 87.7033 28.168C87.0219 28.168 86.4433 27.9953 85.9673 27.65C85.5006 27.2953 85.1506 26.824 84.9173 26.236C84.6839 25.648 84.5673 24.9993 84.5673 24.29C84.5673 23.5807 84.6839 22.932 84.9173 22.344C85.1506 21.756 85.5006 21.2893 85.9673 20.944C86.4433 20.5893 87.0219 20.412 87.7033 20.412C88.2353 20.412 88.6879 20.51 89.0613 20.706C89.4346 20.902 89.7333 21.182 89.9573 21.546V18.06ZM89.8593 25.578C89.9993 25.186 90.0693 24.7567 90.0693 24.29C90.0693 23.8047 89.9993 23.366 89.8593 22.974C89.7193 22.5727 89.4999 22.2507 89.2013 22.008C88.9026 21.7653 88.5246 21.644 88.0673 21.644C87.4046 21.644 86.9053 21.896 86.5693 22.4C86.2426 22.904 86.0793 23.534 86.0793 24.29C86.0793 25.018 86.2426 25.634 86.5693 26.138C86.9053 26.642 87.4046 26.894 88.0673 26.894C88.5246 26.894 88.9026 26.7727 89.2013 26.53C89.4999 26.2873 89.7193 25.97 89.8593 25.578ZM96.4308 22.792C96.5802 22.0547 96.9302 21.476 97.4808 21.056C98.0315 20.6267 98.7315 20.412 99.5808 20.412C100.589 20.412 101.359 20.6827 101.891 21.224C102.423 21.756 102.689 22.5307 102.689 23.548V26.348C102.689 26.516 102.726 26.6373 102.801 26.712C102.876 26.7867 102.988 26.824 103.137 26.824H103.445V28H102.955H102.899C102.638 28 102.395 27.972 102.171 27.916C101.947 27.86 101.756 27.748 101.597 27.58C101.438 27.412 101.354 27.174 101.345 26.866C101.168 27.2393 100.874 27.552 100.463 27.804C100.052 28.0467 99.5575 28.168 98.9788 28.168C98.2042 28.168 97.5648 27.9767 97.0608 27.594C96.5568 27.2113 96.3048 26.698 96.3048 26.054C96.3048 25.578 96.4122 25.1953 96.6268 24.906C96.8508 24.6167 97.1588 24.3927 97.5508 24.234C97.9522 24.0753 98.4702 23.9353 99.1048 23.814L101.233 23.394C101.224 22.7967 101.084 22.3533 100.813 22.064C100.542 21.7747 100.132 21.63 99.5808 21.63C99.1515 21.63 98.7968 21.7373 98.5168 21.952C98.2368 22.1667 98.0408 22.4793 97.9288 22.89L96.4308 22.792ZM97.8168 26.026C97.8168 26.3153 97.9382 26.5533 98.1808 26.74C98.4328 26.9267 98.7922 27.02 99.2588 27.02C99.6415 27.02 99.9822 26.9313 100.281 26.754C100.589 26.5673 100.827 26.292 100.995 25.928C101.172 25.564 101.261 25.1207 101.261 24.598V24.528L99.6648 24.808L99.3988 24.85C99.0162 24.9247 98.7222 24.9947 98.5168 25.06C98.3115 25.116 98.1435 25.2233 98.0128 25.382C97.8822 25.5407 97.8168 25.7553 97.8168 26.026ZM104.79 20.58H106.148L106.204 22.148L106.064 21.938C106.25 21.4433 106.544 21.0653 106.946 20.804C107.356 20.5427 107.856 20.412 108.444 20.412C109.144 20.412 109.732 20.5893 110.208 20.944C110.684 21.2893 111.038 21.756 111.272 22.344C111.514 22.9227 111.636 23.5713 111.636 24.29C111.636 25.0087 111.514 25.662 111.272 26.25C111.038 26.8287 110.684 27.2953 110.208 27.65C109.732 27.9953 109.144 28.168 108.444 28.168C108.052 28.168 107.697 28.112 107.38 28C107.072 27.8787 106.806 27.7013 106.582 27.468C106.367 27.2347 106.199 26.95 106.078 26.614L106.246 26.432V30.1H104.79V20.58ZM106.106 24.29C106.106 24.7567 106.176 25.186 106.316 25.578C106.465 25.97 106.689 26.2873 106.988 26.53C107.286 26.7727 107.66 26.894 108.108 26.894C108.77 26.894 109.265 26.6467 109.592 26.152C109.928 25.648 110.096 25.0273 110.096 24.29C110.096 23.562 109.928 22.946 109.592 22.442C109.256 21.938 108.761 21.686 108.108 21.686C107.66 21.686 107.286 21.8073 106.988 22.05C106.689 22.2927 106.465 22.61 106.316 23.002C106.176 23.394 106.106 23.8233 106.106 24.29ZM113.154 20.58H114.512L114.568 22.148L114.428 21.938C114.614 21.4433 114.908 21.0653 115.31 20.804C115.72 20.5427 116.22 20.412 116.808 20.412C117.508 20.412 118.096 20.5893 118.572 20.944C119.048 21.2893 119.402 21.756 119.636 22.344C119.878 22.9227 120 23.5713 120 24.29C120 25.0087 119.878 25.662 119.636 26.25C119.402 26.8287 119.048 27.2953 118.572 27.65C118.096 27.9953 117.508 28.168 116.808 28.168C116.416 28.168 116.061 28.112 115.744 28C115.436 27.8787 115.17 27.7013 114.946 27.468C114.731 27.2347 114.563 26.95 114.442 26.614L114.61 26.432V30.1H113.154V20.58ZM114.47 24.29C114.47 24.7567 114.54 25.186 114.68 25.578C114.829 25.97 115.053 26.2873 115.352 26.53C115.65 26.7727 116.024 26.894 116.472 26.894C117.134 26.894 117.629 26.6467 117.956 26.152C118.292 25.648 118.46 25.0273 118.46 24.29C118.46 23.562 118.292 22.946 117.956 22.442C117.62 21.938 117.125 21.686 116.472 21.686C116.024 21.686 115.65 21.8073 115.352 22.05C115.053 22.2927 114.829 22.61 114.68 23.002C114.54 23.394 114.47 23.8233 114.47 24.29ZM125.841 22.904C125.767 22.5213 125.566 22.218 125.239 21.994C124.922 21.7607 124.563 21.644 124.161 21.644C123.769 21.644 123.443 21.742 123.181 21.938C122.92 22.1247 122.794 22.3767 122.803 22.694C122.803 22.9927 122.957 23.226 123.265 23.394C123.573 23.562 123.965 23.6927 124.441 23.786C125.113 23.9073 125.664 24.052 126.093 24.22C126.523 24.388 126.859 24.6213 127.101 24.92C127.344 25.2187 127.465 25.6013 127.465 26.068C127.465 26.5347 127.321 26.9267 127.031 27.244C126.751 27.552 126.383 27.7853 125.925 27.944C125.477 28.0933 124.987 28.168 124.455 28.168C123.83 28.168 123.27 28.0653 122.775 27.86C122.281 27.6547 121.889 27.3653 121.599 26.992C121.31 26.6093 121.147 26.166 121.109 25.662L122.607 25.564C122.663 25.8533 122.766 26.1007 122.915 26.306C123.074 26.502 123.279 26.656 123.531 26.768C123.793 26.8707 124.096 26.922 124.441 26.922C124.833 26.922 125.183 26.852 125.491 26.712C125.799 26.5627 125.953 26.3293 125.953 26.012C125.944 25.788 125.874 25.6107 125.743 25.48C125.622 25.3493 125.468 25.2513 125.281 25.186C125.095 25.1207 124.838 25.0553 124.511 24.99C124.437 24.9807 124.329 24.9573 124.189 24.92C123.564 24.7893 123.051 24.6493 122.649 24.5C122.248 24.3413 121.921 24.122 121.669 23.842C121.417 23.5527 121.291 23.1887 121.291 22.75C121.291 22.274 121.413 21.8633 121.655 21.518C121.898 21.1633 122.243 20.8927 122.691 20.706C123.149 20.51 123.681 20.412 124.287 20.412C125.081 20.412 125.757 20.6313 126.317 21.07C126.877 21.4993 127.218 22.0827 127.339 22.82L125.841 22.904ZM134.579 18.9V25.886C134.579 26.1847 134.649 26.4133 134.789 26.572C134.938 26.7213 135.157 26.796 135.447 26.796H136.539V28H135.321C134.602 28 134.056 27.818 133.683 27.454C133.309 27.09 133.123 26.5673 133.123 25.886V18.9H134.579ZM136.553 20.58V21.784H132.003V20.58H136.553ZM140.774 28.168C140.064 28.168 139.444 28.0093 138.912 27.692C138.389 27.3747 137.983 26.9267 137.694 26.348C137.404 25.76 137.26 25.074 137.26 24.29C137.26 23.506 137.404 22.8247 137.694 22.246C137.983 21.658 138.389 21.2053 138.912 20.888C139.444 20.5707 140.064 20.412 140.774 20.412C141.474 20.412 142.09 20.5707 142.622 20.888C143.154 21.2053 143.564 21.658 143.854 22.246C144.143 22.8247 144.288 23.506 144.288 24.29C144.288 25.074 144.143 25.76 143.854 26.348C143.564 26.9267 143.154 27.3747 142.622 27.692C142.09 28.0093 141.474 28.168 140.774 28.168ZM140.774 26.894C141.408 26.894 141.898 26.6653 142.244 26.208C142.598 25.7507 142.776 25.1113 142.776 24.29C142.776 23.4687 142.598 22.8293 142.244 22.372C141.898 21.9147 141.408 21.686 140.774 21.686C140.13 21.686 139.635 21.9147 139.29 22.372C138.944 22.8293 138.772 23.4687 138.772 24.29C138.772 25.1113 138.944 25.7507 139.29 26.208C139.635 26.6653 140.13 26.894 140.774 26.894ZM153.415 22.904C153.34 22.5213 153.14 22.218 152.813 21.994C152.496 21.7607 152.136 21.644 151.735 21.644C151.343 21.644 151.016 21.742 150.755 21.938C150.494 22.1247 150.368 22.3767 150.377 22.694C150.377 22.9927 150.531 23.226 150.839 23.394C151.147 23.562 151.539 23.6927 152.015 23.786C152.687 23.9073 153.238 24.052 153.667 24.22C154.096 24.388 154.432 24.6213 154.675 24.92C154.918 25.2187 155.039 25.6013 155.039 26.068C155.039 26.5347 154.894 26.9267 154.605 27.244C154.325 27.552 153.956 27.7853 153.499 27.944C153.051 28.0933 152.561 28.168 152.029 28.168C151.404 28.168 150.844 28.0653 150.349 27.86C149.854 27.6547 149.462 27.3653 149.173 26.992C148.884 26.6093 148.72 26.166 148.683 25.662L150.181 25.564C150.237 25.8533 150.34 26.1007 150.489 26.306C150.648 26.502 150.853 26.656 151.105 26.768C151.366 26.8707 151.67 26.922 152.015 26.922C152.407 26.922 152.757 26.852 153.065 26.712C153.373 26.5627 153.527 26.3293 153.527 26.012C153.518 25.788 153.448 25.6107 153.317 25.48C153.196 25.3493 153.042 25.2513 152.855 25.186C152.668 25.1207 152.412 25.0553 152.085 24.99C152.01 24.9807 151.903 24.9573 151.763 24.92C151.138 24.7893 150.624 24.6493 150.223 24.5C149.822 24.3413 149.495 24.122 149.243 23.842C148.991 23.5527 148.865 23.1887 148.865 22.75C148.865 22.274 148.986 21.8633 149.229 21.518C149.472 21.1633 149.817 20.8927 150.265 20.706C150.722 20.51 151.254 20.412 151.861 20.412C152.654 20.412 153.331 20.6313 153.891 21.07C154.451 21.4993 154.792 22.0827 154.913 22.82L153.415 22.904ZM158.174 18.06V26.306C158.174 26.4647 158.211 26.586 158.286 26.67C158.37 26.754 158.491 26.796 158.65 26.796H159.266V28H158.342C157.857 28 157.465 27.8507 157.166 27.552C156.867 27.2533 156.718 26.8613 156.718 26.376V18.06H158.174ZM160.161 24.29C160.161 23.506 160.305 22.8247 160.595 22.246C160.884 21.658 161.295 21.2053 161.827 20.888C162.359 20.5707 162.975 20.412 163.675 20.412C164.281 20.412 164.827 20.5473 165.313 20.818C165.807 21.0887 166.204 21.5087 166.503 22.078C166.811 22.6473 166.979 23.3567 167.007 24.206L167.021 24.71H161.687C161.743 25.41 161.943 25.9513 162.289 26.334C162.634 26.7167 163.096 26.908 163.675 26.908C164.048 26.908 164.389 26.81 164.697 26.614C165.005 26.4087 165.233 26.1287 165.383 25.774L166.909 25.886C166.694 26.5767 166.288 27.132 165.691 27.552C165.103 27.9627 164.431 28.168 163.675 28.168C162.975 28.168 162.359 28.0093 161.827 27.692C161.295 27.3747 160.884 26.9267 160.595 26.348C160.305 25.76 160.161 25.074 160.161 24.29ZM165.481 23.59C165.387 22.9273 165.177 22.442 164.851 22.134C164.524 21.826 164.132 21.672 163.675 21.672C163.133 21.672 162.695 21.84 162.359 22.176C162.023 22.512 161.808 22.9833 161.715 23.59H165.481ZM168.142 24.29C168.142 23.506 168.286 22.8247 168.576 22.246C168.865 21.658 169.276 21.2053 169.808 20.888C170.34 20.5707 170.956 20.412 171.656 20.412C172.262 20.412 172.808 20.5473 173.294 20.818C173.788 21.0887 174.185 21.5087 174.484 22.078C174.792 22.6473 174.96 23.3567 174.988 24.206L175.002 24.71H169.668C169.724 25.41 169.924 25.9513 170.27 26.334C170.615 26.7167 171.077 26.908 171.656 26.908C172.029 26.908 172.37 26.81 172.678 26.614C172.986 26.4087 173.214 26.1287 173.364 25.774L174.89 25.886C174.675 26.5767 174.269 27.132 173.672 27.552C173.084 27.9627 172.412 28.168 171.656 28.168C170.956 28.168 170.34 28.0093 169.808 27.692C169.276 27.3747 168.865 26.9267 168.576 26.348C168.286 25.76 168.142 25.074 168.142 24.29ZM173.462 23.59C173.368 22.9273 173.158 22.442 172.832 22.134C172.505 21.826 172.113 21.672 171.656 21.672C171.114 21.672 170.676 21.84 170.34 22.176C170.004 22.512 169.789 22.9833 169.696 23.59H173.462ZM176.531 20.58H177.889L177.945 22.148L177.805 21.938C177.992 21.4433 178.286 21.0653 178.687 20.804C179.098 20.5427 179.597 20.412 180.185 20.412C180.885 20.412 181.473 20.5893 181.949 20.944C182.425 21.2893 182.78 21.756 183.013 22.344C183.256 22.9227 183.377 23.5713 183.377 24.29C183.377 25.0087 183.256 25.662 183.013 26.25C182.78 26.8287 182.425 27.2953 181.949 27.65C181.473 27.9953 180.885 28.168 180.185 28.168C179.793 28.168 179.438 28.112 179.121 28C178.813 27.8787 178.547 27.7013 178.323 27.468C178.108 27.2347 177.94 26.95 177.819 26.614L177.987 26.432V30.1H176.531V20.58ZM177.847 24.29C177.847 24.7567 177.917 25.186 178.057 25.578C178.206 25.97 178.43 26.2873 178.729 26.53C179.028 26.7727 179.401 26.894 179.849 26.894C180.512 26.894 181.006 26.6467 181.333 26.152C181.669 25.648 181.837 25.0273 181.837 24.29C181.837 23.562 181.669 22.946 181.333 22.442C180.997 21.938 180.502 21.686 179.849 21.686C179.401 21.686 179.028 21.8073 178.729 22.05C178.43 22.2927 178.206 22.61 178.057 23.002C177.917 23.394 177.847 23.8233 177.847 24.29Z" fill="#24292F"/>
<g clip-path="url(#clip1_564_329)">
<rect x="362" y="15.5" width="28" height="16" rx="8" fill="#B2B7C2"/>
<g filter="url(#filter1_dd_564_329)">
<circle cx="370" cy="23.5" r="6" fill="white"/>
</g>
</g>
</g>
<rect x="2.5" y="1.5" width="403" height="44" rx="5.5" stroke="#E4E4E7"/>
</g>
<defs>
<filter id="filter0_d_564_329" x="0" y="0" width="408" height="49" filterUnits="userSpaceOnUse" color-interpolation-filters="sRGB">
<feFlood flood-opacity="0" result="BackgroundImageFix"/>
<feColorMatrix in="SourceAlpha" type="matrix" values="0 0 0 0 0 0 0 0 0 0 0 0 0 0 0 0 0 0 127 0" result="hardAlpha"/>
<feOffset dy="1"/>
<feGaussianBlur stdDeviation="1"/>
<feColorMatrix type="matrix" values="0 0 0 0 0.0627451 0 0 0 0 0.0941176 0 0 0 0 0.156863 0 0 0 0.05 0"/>
<feBlend mode="normal" in2="BackgroundImageFix" result="effect1_dropShadow_564_329"/>
<feBlend mode="normal" in="SourceGraphic" in2="effect1_dropShadow_564_329" result="shape"/>
</filter>
<filter id="filter1_dd_564_329" x="361" y="15.5" width="18" height="18" filterUnits="userSpaceOnUse" color-interpolation-filters="sRGB">
<feFlood flood-opacity="0" result="BackgroundImageFix"/>
<feColorMatrix in="SourceAlpha" type="matrix" values="0 0 0 0 0 0 0 0 0 0 0 0 0 0 0 0 0 0 127 0" result="hardAlpha"/>
<feOffset dy="1"/>
<feGaussianBlur stdDeviation="1"/>
<feColorMatrix type="matrix" values="0 0 0 0 0.0627451 0 0 0 0 0.0941176 0 0 0 0 0.156863 0 0 0 0.06 0"/>
<feBlend mode="normal" in2="BackgroundImageFix" result="effect1_dropShadow_564_329"/>
<feColorMatrix in="SourceAlpha" type="matrix" values="0 0 0 0 0 0 0 0 0 0 0 0 0 0 0 0 0 0 127 0" result="hardAlpha"/>
<feOffset dy="1"/>
<feGaussianBlur stdDeviation="1.5"/>
<feColorMatrix type="matrix" values="0 0 0 0 0.0627451 0 0 0 0 0.0941176 0 0 0 0 0.156863 0 0 0 0.1 0"/>
<feBlend mode="normal" in2="effect1_dropShadow_564_329" result="effect2_dropShadow_564_329"/>
<feBlend mode="normal" in="SourceGraphic" in2="effect2_dropShadow_564_329" result="shape"/>
</filter>
<clipPath id="clip0_564_329">
<rect x="2" y="1" width="404" height="45" rx="6" fill="white"/>
</clipPath>
<clipPath id="clip1_564_329">
<rect x="362" y="15.5" width="28" height="16" rx="8" fill="white"/>
</clipPath>
</defs>
</svg>
