<svg width="16" height="16" viewBox="0 0 16 16" fill="none" xmlns="http://www.w3.org/2000/svg">
<path d="M10.6775 4.48926C11.8067 4.07824 12.8606 4.5286 13.2664 5.64355C13.6694 6.75127 13.1514 7.77359 12.0222 8.18457L10.8933 8.5957C10.5378 8.44181 10.0683 8.15053 9.59644 7.78809C9.48599 7.70692 9.36206 7.67917 9.22632 7.72852C9.0405 7.79615 8.93343 8.01406 9.00367 8.20703C9.04528 8.32107 9.10485 8.37263 9.19312 8.4375C9.55178 8.71149 9.93419 8.96082 10.324 9.14258L11.2839 9.57812C11.8464 9.83454 12.1399 10.1083 12.3064 10.5654C12.6472 11.5017 12.0994 12.5107 11.2918 12.8047C10.7274 13.01 10.2846 13.0176 8.93531 12.4893C9.30662 11.7311 9.29378 11.161 9.29566 10.9658C9.29758 10.8599 9.29888 10.7534 9.27027 10.6748C9.1947 10.4678 8.97807 10.3608 8.77808 10.4336C8.59232 10.5012 8.52678 10.6544 8.53199 10.8467C8.54053 11.1591 8.46731 11.7362 8.28882 12.0684L7.54078 13.4824C7.25502 14.0316 6.76464 14.4201 6.40015 14.5527C5.53543 14.8674 4.57392 14.4486 4.1941 13.4053C3.98601 12.8336 4.1927 12.3128 4.66675 11.6143L5.10914 10.96C5.38908 10.5505 5.47188 9.97765 5.48804 9.68848C5.49644 9.55593 5.46848 9.43639 5.44507 9.37207C5.3748 9.17921 5.16983 9.05942 4.96265 9.13477C4.75556 9.21014 4.72661 9.39859 4.71949 9.5791C4.70204 9.9092 4.63999 10.2723 4.47632 10.5342L4.32593 10.7666C3.55741 10.5446 3.02866 10.2031 2.70875 9.32422C2.35496 8.35221 2.88028 7.32703 4.00953 6.91602L7.34351 5.70264L10.6775 4.48926Z" fill="#1C4A47"/>
<path d="M5.78297 1C6.92265 1 7.84727 1.92382 7.84742 3.06348C7.84742 4.20325 6.92274 5.12793 5.78297 5.12793C4.64334 5.12775 3.71949 4.20314 3.71949 3.06348C3.71964 1.92394 4.64343 1.00018 5.78297 1Z" fill="#ED7846"/>
</svg>
