<svg width="760" height="100" viewBox="0 0 760 100" fill="none" xmlns="http://www.w3.org/2000/svg">
<path d="M164.584 81.8756L141.841 54.4174L161.643 30.6991H143.311L127.136 51.3665L119.881 60.8145H119.489L119.783 51.1697V19.8916C119.783 15.5332 116.25 12 111.892 12C107.533 12 104 15.5332 104 19.8916V81.8756H118.901L132.625 65.44L146.056 81.8756H164.584Z" fill="#E3E2D8"/>
<path d="M190.373 29.2228C174.884 29.2228 164.884 33.2579 165.374 46.5441H179.393C180.079 42.4106 183.02 41.0328 189.687 41.0328C196.941 41.0328 199.98 42.7059 199.98 47.6267V51.5633H182.236C168.904 51.5633 162.728 56.681 162.728 67.0147C162.728 77.9389 169.59 83.3518 180.668 83.3518C189.098 83.3518 198.509 80.2025 202.823 72.9197L201.058 76.5611L202.431 81.8756H215.763V45.9536C215.763 34.931 208.019 29.2228 190.373 29.2228ZM186.353 71.4434C180.864 71.4434 178.805 69.3767 178.805 66.2274C178.805 62.9796 180.864 61.2081 184.785 61.2081H199.98V67.2115C196.647 69.9672 192.039 71.4434 187.04 71.4434H186.353Z" fill="#E3E2D8"/>
<path d="M255.361 29.3213C247.519 29.3213 240.951 32.4706 235.755 41.4265L238.598 36.0136L238.304 30.6991H222.815V99H238.598V75.5769C242.715 81.1866 248.695 83.3518 255.361 83.3518C270.654 83.3518 280.458 71.345 280.458 56.2873C280.458 41.3281 270.654 29.3213 255.361 29.3213ZM251.636 69.4751C243.499 69.4751 238.402 63.9638 238.402 56.2873C238.402 48.6109 243.499 43.0995 251.636 43.0995C259.773 43.0995 264.773 48.6109 264.773 56.2873C264.773 63.9638 259.773 69.4751 251.636 69.4751Z" fill="#E3E2D8"/>
<path d="M317.497 29.3213C309.655 29.3213 303.086 32.4706 297.891 41.4265L300.734 36.0136L300.44 30.6991H284.95V99H300.734V75.5769C304.851 81.1866 310.831 83.3518 317.497 83.3518C332.79 83.3518 342.594 71.345 342.594 56.2873C342.594 41.3281 332.79 29.3213 317.497 29.3213ZM313.772 69.4751C305.635 69.4751 300.538 63.9638 300.538 56.2873C300.538 48.6109 305.635 43.0995 313.772 43.0995C321.909 43.0995 326.908 48.6109 326.908 56.2873C326.908 63.9638 321.909 69.4751 313.772 69.4751Z" fill="#E3E2D8"/>
<path d="M384.756 44.1821V30.6991H370.541V12.9842H354.758V30.6991H343.484V44.1821H354.758V63.767C354.758 75.3801 360.248 82.3676 374.953 82.3676H384.756V68.1957H377.894C372.992 68.1957 370.541 66.4242 370.541 61.2081V44.1821H384.756Z" fill="#E3E2D8"/>
<path d="M389.982 81.8756H405.765V30.6991C400.81 33.2365 394.937 33.2365 389.982 30.6991V81.8756Z" fill="#E3E2D8"/>
<path d="M430.117 81.8756H446.979L468.742 30.6991H452.371L438.842 64.1606H438.254L424.824 30.6991H408.452L430.117 81.8756Z" fill="#E3E2D8"/>
<path d="M493.492 29.2228C478.003 29.2228 468.004 33.2579 468.494 46.5441H482.513C483.199 42.4106 486.14 41.0328 492.806 41.0328C500.061 41.0328 503.1 42.7059 503.1 47.6267V51.5633H485.356C472.023 51.5633 465.847 56.681 465.847 67.0147C465.847 77.9389 472.709 83.3518 483.787 83.3518C492.218 83.3518 501.629 80.2025 505.942 72.9197L504.178 76.5611L505.55 81.8756H518.883V45.9536C518.883 34.931 511.138 29.2228 493.492 29.2228ZM489.473 71.4434C483.983 71.4434 481.925 69.3767 481.925 66.2274C481.925 62.9796 483.983 61.2081 487.905 61.2081H503.1V67.2115C499.766 69.9672 495.159 71.4434 490.159 71.4434H489.473Z" fill="#E3E2D8"/>
<path d="M562.551 44.1821V30.6991H548.336V12.9842H532.553V30.6991H521.279V44.1821H532.553V63.767C532.553 75.3801 538.043 82.3676 552.748 82.3676H562.551V68.1957H555.689C550.787 68.1957 548.336 66.4242 548.336 61.2081V44.1821H562.551Z" fill="#E3E2D8"/>
<path d="M580.63 61.0113H620.431C622 41.0328 611.02 29.2228 592.982 29.2228C574.846 29.2228 564.749 41.0328 564.749 56.2873C564.749 71.5419 575.631 83.3518 593.865 83.3518C604.253 83.3518 612.595 79.5048 617.468 74.3746C620.922 70.7384 617.386 66.0305 612.37 66.0305C609.12 66.0305 606.075 68.1995 603.129 69.5737C600.712 70.7012 597.602 71.2466 594.747 71.2466C586.904 71.2466 581.905 67.4084 580.63 61.0113ZM592.982 40.836C599.551 40.836 603.472 43.7885 604.942 51.4649H580.532C581.709 44.4774 585.728 40.836 592.982 40.836Z" fill="#E3E2D8"/>
<path d="M11.4251 55.6401C13.3049 60.8048 16.4131 62.8119 20.9297 64.1162L21.8112 62.7493C22.7728 61.2105 23.1387 59.0801 23.2412 57.1407C23.2828 56.0794 23.4505 54.9722 24.6682 54.529C25.8859 54.0858 27.0925 54.7879 27.5051 55.9216C27.6426 56.2995 27.8032 57.0019 27.7538 57.7808C27.6589 59.4796 27.1712 62.8431 25.5265 65.2487L22.9316 69.0938C20.146 73.1986 18.9291 76.2569 20.1517 79.6161C22.383 85.7465 28.0338 88.2072 33.1146 86.358C35.256 85.5786 38.1338 83.2948 39.8126 80.0684L44.2081 71.7637C45.2574 69.8126 45.6878 66.4224 45.6376 64.5861C45.6067 63.4561 45.9921 62.5551 47.0838 62.1577C48.2595 61.7298 49.5348 62.3593 49.978 63.577C50.1461 64.0389 50.1348 64.6612 50.1235 65.2835C50.1124 66.4287 50.1898 69.7768 48.0074 74.2326C55.9375 77.3378 58.5373 77.2951 61.8545 76.0877C66.5993 74.3607 69.8158 68.4348 67.8138 62.9342C66.8357 60.2469 65.1096 58.6402 61.8031 57.1332L56.1637 54.5732C53.8728 53.5049 51.6276 52.0396 49.5198 50.4292C49.0005 50.0476 48.653 49.7461 48.4085 49.0743C47.9958 47.9406 48.6254 46.6653 49.7171 46.2679C50.5149 45.9775 51.2403 46.1415 51.8894 46.6185C54.6617 48.7479 57.4223 50.4536 59.5108 51.3578L66.1452 48.9431C72.7795 46.5284 75.8242 40.5223 73.4553 34.0139C71.0712 27.4636 64.8782 24.8198 58.2439 27.2345L19.0677 41.4935C12.4334 43.9082 9.34666 49.9295 11.4251 55.6401Z" fill="#E3E2D8"/>
<circle cx="29.4907" cy="18.8604" r="12.1245" fill="#E3E2D8"/>
<circle cx="397.75" cy="16.25" r="11.75" fill="#ED7846"/>
<rect x="645" y="33" width="100" height="34" rx="6" stroke="#E3E2D8" stroke-width="2" fill="none"/>
<text x="695" y="55.5" font-family="Geist, ui-sans-serif, system-ui, -apple-system, sans-serif" font-size="18" font-weight="600" letter-spacing="1.5" text-anchor="middle" fill="#E3E2D8">DOCS</text>
</svg>
